<svg width="29" height="39" viewBox="0 0 29 39" fill="none" xmlns="http://www.w3.org/2000/svg">
    <path d="M4.02058 8.23382C8.02519 8.23382 11.2999 11.9201 11.2999 16.4672C11.2999 11.9201 14.556 8.23382 18.5792 8.23382C14.556 8.23382 11.2999 4.54709 11.2999 0C11.2813 4.54709 8.04377 8.23382 4.02058 8.23382Z" fill="#5B6C8C"/>
    <path d="M20.523 21.3244C22.8622 21.3244 24.7522 23.4766 24.7522 26.1337C24.7522 23.4766 26.6422 21.3244 29 21.3244C26.6608 21.3244 24.7522 19.1727 24.7522 16.5152C24.7708 19.1913 22.8622 21.3244 20.523 21.3244Z" fill="#5B6C8C"/>
    <path d="M0 33.9585C2.33919 33.9585 4.2292 36.1106 4.2292 38.7677C4.2292 36.1106 6.11921 33.9585 8.47698 33.9585C6.13779 33.9585 4.2292 31.8067 4.2292 29.1492C4.24778 31.8253 2.33919 33.9585 0 33.9585Z" fill="#5B6C8C"/>
</svg>
