<svg width="28" height="28" viewBox="0 0 28 28" fill="none" xmlns="http://www.w3.org/2000/svg">
    <path d="M14 2.80005C7.51187 2.80005 2.23999 8.07192 2.23999 14.56C2.23999 18.9941 4.70093 22.8616 8.33218 24.8632C8.60343 25.0119 8.94468 24.9135 9.09343 24.6444C9.24218 24.3732 9.14374 24.0319 8.87249 23.881C5.58905 22.0719 3.35999 18.5807 3.35999 14.56C3.35999 8.67786 8.1178 3.92005 14 3.92005C19.8822 3.92005 24.64 8.67786 24.64 14.56C24.64 18.5807 22.4109 22.0719 19.1275 23.881C18.8562 24.0319 18.7578 24.3732 18.9066 24.6444C19.0553 24.9135 19.3966 25.0119 19.6678 24.8632C23.2991 22.8616 25.76 18.9941 25.76 14.56C25.76 8.07192 20.4881 2.80005 14 2.80005ZM14 5.04005C8.7478 5.04005 4.47999 9.30786 4.47999 14.56C4.47999 18.1497 6.47062 21.28 9.4128 22.901C9.68187 23.0497 10.0231 22.9513 10.1741 22.68C10.3228 22.411 10.2244 22.0697 9.95312 21.9188C7.35874 20.4904 5.59999 17.7363 5.59999 14.56C5.59999 9.9138 9.35374 6.16005 14 6.16005C18.6462 6.16005 22.4 9.9138 22.4 14.56C22.4 17.7363 20.6412 20.4904 18.0469 21.9188C17.7756 22.0697 17.6772 22.411 17.8259 22.68C17.9769 22.9513 18.3181 23.0497 18.5872 22.901C21.5294 21.28 23.52 18.1497 23.52 14.56C23.52 9.30786 19.2522 5.04005 14 5.04005ZM14 7.28005C9.98593 7.28005 6.71999 10.546 6.71999 14.56C6.71999 17.3032 8.24249 19.6985 10.4912 20.9388C10.7625 21.0875 11.1037 20.9891 11.2525 20.72C11.4012 20.4488 11.3028 20.1075 11.0337 19.9588C9.13062 18.9088 7.83999 16.8897 7.83999 14.56C7.83999 11.1519 10.5919 8.40005 14 8.40005C17.4081 8.40005 20.16 11.1519 20.16 14.56C20.16 16.8897 18.8694 18.9088 16.9662 19.9588C16.6972 20.1075 16.5987 20.4488 16.7475 20.72C16.8962 20.9891 17.2375 21.0875 17.5087 20.9388C19.7575 19.6985 21.28 17.3032 21.28 14.56C21.28 10.546 18.0141 7.28005 14 7.28005ZM14 9.52005C11.2241 9.52005 8.95999 11.7841 8.95999 14.56C8.95999 16.4588 10.0144 18.1169 11.5697 18.9766C11.7469 19.075 11.9612 19.0729 12.1341 18.9679C12.3069 18.865 12.4119 18.6769 12.4075 18.4757C12.4009 18.2722 12.2894 18.0907 12.11 17.9944C10.9003 17.3272 10.08 16.0432 10.08 14.56C10.08 12.3879 11.8278 10.64 14 10.64C16.1722 10.64 17.92 12.3879 17.92 14.56C17.92 16.0432 17.0997 17.3272 15.89 17.9944C15.7106 18.0907 15.5991 18.2722 15.5925 18.4757C15.5881 18.6769 15.6931 18.865 15.8659 18.9679C16.0387 19.0729 16.2531 19.075 16.4303 18.9766C17.9856 18.1169 19.04 16.4588 19.04 14.56C19.04 11.7841 16.7759 9.52005 14 9.52005ZM14 11.76C12.46 11.76 11.2 13.02 11.2 14.56C11.2 15.6144 11.795 16.531 12.6547 17.0035C12.9259 17.1544 13.2672 17.056 13.4159 16.7847C13.5647 16.5135 13.4662 16.1722 13.195 16.0235C12.6744 15.7347 12.32 15.1966 12.32 14.56C12.32 13.626 13.0659 12.88 14 12.88C14.9341 12.88 15.68 13.626 15.68 14.56C15.68 15.1966 15.3256 15.7347 14.805 16.0235C14.5337 16.1722 14.4353 16.5135 14.5841 16.7847C14.7328 17.056 15.0741 17.1544 15.3453 17.0035C16.205 16.531 16.8 15.6144 16.8 14.56C16.8 13.02 15.54 11.76 14 11.76ZM14 14C13.6916 14 13.44 14.2516 13.44 14.56C13.44 14.8685 13.6916 15.12 14 15.12C14.3084 15.12 14.56 14.8685 14.56 14.56C14.56 14.2516 14.3084 14 14 14Z" fill="#111827"/>
</svg>
