<svg width="22" height="18" viewBox="0 0 22 18" fill="none" xmlns="http://www.w3.org/2000/svg">
    <path fill-rule="evenodd" clip-rule="evenodd" d="M1.29012 10.1894H17.5954L12.057 15.6664C11.568 16.1652 11.5783 16.9626 12.0724 17.455C12.5704 17.9436 13.3768 17.9538 13.8812 17.4703L21.6219 9.81562C21.8644 9.57705 21.9999 9.253 21.9999 8.91874V8.91364C21.9999 8.74906 21.9651 8.57938 21.8993 8.42501C21.8335 8.27064 21.738 8.13158 21.6219 8.01166L13.8812 0.356963C13.3716 -0.126559 12.5704 -0.116352 12.0724 0.372272C11.5732 0.864725 11.568 1.66209 12.057 2.16092L17.5954 7.63786H1.29012C0.579263 7.63786 0 8.21068 0 8.91364C0 9.6166 0.579263 10.1894 1.29012 10.1894Z" fill="#0961F5"/>
</svg>
