<svg width="12" height="12" viewBox="0 0 12 12" fill="none" xmlns="http://www.w3.org/2000/svg">
    <path fill-rule="evenodd" clip-rule="evenodd" d="M6.58815 0.372798L7.92435 3.0566C8.02275 3.251 8.20995 3.3872 8.42775 3.4196L11.426 3.8558C11.6012 3.8816 11.7608 3.9728 11.8664 4.1132C11.9744 4.2542 12.0188 4.43 11.993 4.6034C11.972 4.7462 11.9036 4.88 11.801 4.9808L9.62775 7.0856C9.46875 7.2356 9.39615 7.451 9.43335 7.664L9.97035 10.6268C10.0286 10.9808 9.79215 11.3156 9.43335 11.3882C9.28815 11.4116 9.13815 11.3882 9.00675 11.3204L6.33015 9.926C6.13095 9.8252 5.89695 9.8252 5.70015 9.926L3.02355 11.3204C2.69235 11.4962 2.28075 11.3744 2.10195 11.051C2.03475 10.922 2.01135 10.7744 2.03235 10.6316L2.56815 7.6688C2.60655 7.4582 2.53395 7.2398 2.37435 7.0898L0.201153 4.9874C0.0751531 4.8632 0.00195312 4.6946 0.00195312 4.5188C0.00195312 4.343 0.0751531 4.1744 0.201153 4.0502C0.304353 3.947 0.439953 3.8792 0.588153 3.8606L3.58635 3.4244C3.80355 3.3914 3.99075 3.2582 4.08735 3.0614L5.37855 0.372798C5.49075 0.145398 5.72775 0.000198292 5.98815 0.00499829H6.06795C6.29295 0.0331983 6.48975 0.171198 6.58815 0.372798Z" fill="#FF9C07"/>
    <path fill-rule="evenodd" clip-rule="evenodd" d="M6.00465 9.84631C5.88705 9.84631 5.77725 9.88591 5.67165 9.93751L3.00465 11.3277C2.68365 11.4891 2.27805 11.3601 2.10225 11.0511C2.03445 10.9245 2.00865 10.7793 2.03205 10.6359L2.56845 7.68091C2.60385 7.46491 2.53125 7.24951 2.37405 7.09711L0.19665 4.99231C-0.06555 4.73491 -0.06555 4.31491 0.19665 4.05511C0.29985 3.95431 0.43365 3.88831 0.57645 3.86731L3.58605 3.42451C3.81525 3.39151 3.98205 3.26311 4.08705 3.06151L5.39505 0.34231C5.49345 0.12211 5.82885 -0.0302901 6.00945 0.00510993C6.00465 0.18571 6.00465 9.72691 6.00465 9.84631Z" fill="#FF9C07"/>
</svg>
