<svg width="270" height="100" viewBox="0 0 270 100" fill="none" xmlns="http://www.w3.org/2000/svg">
    <path fill-rule="evenodd" clip-rule="evenodd" d="M226.692 42.5287C228.067 42.5287 229.192 41.4043 229.192 40.03V12.5437C229.192 11.1694 228.067 10.045 226.692 10.045C225.317 10.045 224.192 11.1694 224.192 12.5437V40.03C224.192 41.4043 225.317 42.5287 226.692 42.5287ZM57.5106 42.5287C58.8859 42.5287 60.0111 41.4043 60.0111 40.03V12.5437C60.0111 11.1694 58.8859 10.045 57.5106 10.045C56.1354 10.045 55.0102 11.1694 55.0102 12.5437V40.03C55.0102 41.4043 56.1354 42.5287 57.5106 42.5287ZM211.689 42.5287C213.064 42.5287 214.19 41.4043 214.19 40.03V12.5437C214.19 11.1694 213.064 10.045 211.689 10.045C210.314 10.045 209.189 11.1694 209.189 12.5437V40.03C209.189 41.4043 210.314 42.5287 211.689 42.5287ZM156.679 42.5287C158.054 42.5287 159.179 41.4043 159.179 40.03V12.5437C159.179 11.1694 158.054 10.045 156.679 10.045C155.304 10.045 154.179 11.1694 154.179 12.5437V40.03C154.179 41.4043 155.304 42.5287 156.679 42.5287ZM171.682 42.5287C173.057 42.5287 174.182 41.4043 174.182 40.03V12.5437C174.182 11.1694 173.057 10.045 171.682 10.045C170.307 10.045 169.181 11.1694 169.181 12.5437V40.03C169.181 41.4043 170.307 42.5287 171.682 42.5287ZM17.5032 95.0025H5.00093V82.5087C5.00093 81.1344 3.87572 80.01 2.50046 80.01C1.12521 80.01 0 81.1344 0 82.5087V97.5013C0 98.8756 1.12521 100 2.50046 100H17.5032C18.8785 100 20.0037 98.8756 20.0037 97.5013C20.0037 96.1269 18.8785 95.0025 17.5032 95.0025ZM267.5 0H252.497C251.122 0 249.996 1.12444 249.996 2.49875C249.996 3.87306 251.122 4.9975 252.497 4.9975H264.999V17.4913C264.999 18.8656 266.124 19.99 267.5 19.99C268.875 19.99 270 18.8656 270 17.4913V2.49875C270 1.12444 268.875 0 267.5 0ZM267.5 79.96C266.124 79.96 264.999 81.0845 264.999 82.4588V94.9525H252.497C251.122 94.9525 249.996 96.077 249.996 97.4513C249.996 98.8256 251.122 99.95 252.497 99.95H267.5C268.875 99.95 270 98.8256 270 97.4513V82.4588C270 81.0845 268.875 79.96 267.5 79.96ZM10.0019 12.5437V40.03C10.0019 41.4043 11.1271 42.5287 12.5023 42.5287C13.8776 42.5287 15.0028 41.4043 15.0028 40.03V12.5437C15.0028 11.1694 13.8776 10.045 12.5023 10.045C11.1271 10.045 10.0019 11.1694 10.0019 12.5437ZM82.5153 42.5287C83.8905 42.5287 85.0157 41.4043 85.0157 40.03V12.5437C85.0157 11.1694 83.8905 10.045 82.5153 10.045C81.14 10.045 80.0148 11.1694 80.0148 12.5437V40.03C80.0148 41.4043 81.14 42.5287 82.5153 42.5287ZM70.013 42.5287C71.3882 42.5287 72.5134 41.4043 72.5134 40.03V12.5437C72.5134 11.1694 71.3882 10.045 70.013 10.045C68.6377 10.045 67.5125 11.1694 67.5125 12.5437V40.03C67.5125 41.4043 68.6377 42.5287 70.013 42.5287ZM112.521 42.5287C113.896 42.5287 115.021 41.4043 115.021 40.03V12.5437C115.021 11.1694 113.896 10.045 112.521 10.045C111.146 10.045 110.02 11.1694 110.02 12.5437V40.03C110.02 41.4043 111.146 42.5287 112.521 42.5287ZM42.5079 42.5287C43.8831 42.5287 45.0083 41.4043 45.0083 40.03V12.5437C45.0083 11.1694 43.8831 10.045 42.5079 10.045C41.1326 10.045 40.0074 11.1694 40.0074 12.5437V40.03C40.0074 41.4043 41.1326 42.5287 42.5079 42.5287ZM97.5181 42.5287C98.8933 42.5287 100.019 41.4043 100.019 40.03V12.5437C100.019 11.1694 98.8933 10.045 97.5181 10.045C96.1428 10.045 95.0176 11.1694 95.0176 12.5437V40.03C95.0176 41.4043 96.1428 42.5287 97.5181 42.5287ZM254.197 87.5062C254.197 88.8806 255.322 90.005 256.698 90.005C258.073 90.005 259.198 88.8806 259.198 87.5062V52.5237H266.699C268.075 52.5237 269.2 51.3993 269.2 50.025C269.2 48.6507 268.075 47.5262 266.699 47.5262H2.50046C1.12521 47.5262 0 48.6507 0 50.025C0 51.3993 1.12521 52.5237 2.50046 52.5237H10.0019V87.5062C10.0019 88.8806 11.1271 90.005 12.5023 90.005C13.8776 90.005 15.0028 88.8806 15.0028 87.5062V52.5237H25.0046V72.5137C25.0046 73.8881 26.1298 75.0125 27.5051 75.0125C28.8803 75.0125 30.0056 73.8881 30.0056 72.5137V52.5237H40.0074V72.5137C40.0074 73.8881 41.1326 75.0125 42.5079 75.0125C43.8831 75.0125 45.0083 73.8881 45.0083 72.5137V52.5237H55.0102V67.5162C55.0102 68.8906 56.1354 70.015 57.5107 70.015C58.8859 70.015 60.0111 68.8906 60.0111 67.5162V52.5237H67.5125V57.5212C67.5125 58.8956 68.6377 60.02 70.013 60.02C71.3882 60.02 72.5134 58.8956 72.5134 57.5212V52.5237H80.0148V72.5137C80.0148 73.8881 81.14 75.0125 82.5153 75.0125C83.8905 75.0125 85.0157 73.8881 85.0157 72.5137V52.5237H95.0176V67.5162C95.0176 68.8906 96.1428 70.015 97.5181 70.015C98.8933 70.015 100.019 68.8906 100.019 67.5162V52.5237H110.02V72.5137C110.02 73.8881 111.146 75.0125 112.521 75.0125C113.896 75.0125 115.021 73.8881 115.021 72.5137V52.5237H125.023V97.5013C125.023 98.8756 126.148 100 127.524 100C128.899 100 130.024 98.8756 130.024 97.5013V52.5237H139.176V65.0175C139.176 66.3918 140.301 67.5162 141.676 67.5162C143.051 67.5162 144.177 66.3918 144.177 65.0175V52.5237H154.179V72.5137C154.179 73.8881 155.304 75.0125 156.679 75.0125C158.054 75.0125 159.179 73.8881 159.179 72.5137V52.5237H169.181V72.5137C169.181 73.8881 170.307 75.0125 171.682 75.0125C173.057 75.0125 174.182 73.8881 174.182 72.5137V52.5237H184.184V67.5162C184.184 68.8906 185.309 70.015 186.685 70.015C188.06 70.015 189.185 68.8906 189.185 67.5162V52.5237H196.686V62.5187C196.686 63.8931 197.812 65.0175 199.187 65.0175C200.562 65.0175 201.687 63.8931 201.687 62.5187V52.5237H209.189V72.5137C209.189 73.8881 210.314 75.0125 211.689 75.0125C213.064 75.0125 214.19 73.8881 214.19 72.5137V52.5237H224.192V67.5162C224.192 68.8906 225.317 70.015 226.692 70.015C228.067 70.015 229.192 68.8906 229.192 67.5162V52.5237H239.194V72.5137C239.194 73.8881 240.32 75.0125 241.695 75.0125C243.07 75.0125 244.195 73.8881 244.195 72.5137V52.5237H254.197V87.5062ZM2.50046 20.04C3.87572 20.04 5.00093 18.9155 5.00093 17.5412V5.04748H17.5032C18.8785 5.04748 20.0037 3.92304 20.0037 2.54873C20.0037 1.17441 18.8785 0.049975 17.5032 0.049975H2.50046C1.12521 0.049975 0 1.17441 0 2.54873V17.5412C0 18.9155 1.12521 20.04 2.50046 20.04ZM141.676 42.5287C143.051 42.5287 144.177 41.4043 144.177 40.03V12.5437C144.177 11.1694 143.051 10.045 141.676 10.045C140.301 10.045 139.176 11.1694 139.176 12.5437V40.03C139.176 41.4043 140.301 42.5287 141.676 42.5287ZM27.5051 42.5287C28.8803 42.5287 30.0056 41.4043 30.0056 40.03V12.5437C30.0056 11.1694 28.8803 10.045 27.5051 10.045C26.1298 10.045 25.0046 11.1694 25.0046 12.5437V40.03C25.0046 41.4043 26.1298 42.5287 27.5051 42.5287ZM199.187 42.5287C200.562 42.5287 201.687 41.4043 201.687 40.03V12.5437C201.687 11.1694 200.562 10.045 199.187 10.045C197.812 10.045 196.686 11.1694 196.686 12.5437V40.03C196.686 41.4043 197.812 42.5287 199.187 42.5287ZM186.685 42.5287C188.06 42.5287 189.185 41.4043 189.185 40.03V12.5437C189.185 11.1694 188.06 10.045 186.685 10.045C185.309 10.045 184.184 11.1694 184.184 12.5437V40.03C184.184 41.4043 185.309 42.5287 186.685 42.5287ZM241.695 42.5287C243.07 42.5287 244.195 41.4043 244.195 40.03V12.5437C244.195 11.1694 243.07 10.045 241.695 10.045C240.32 10.045 239.194 11.1694 239.194 12.5437V40.03C239.194 41.4043 240.32 42.5287 241.695 42.5287ZM259.198 40.03V12.5437C259.198 11.1694 258.073 10.045 256.698 10.045C255.322 10.045 254.197 11.1694 254.197 12.5437V40.03C254.197 41.4043 255.322 42.5287 256.698 42.5287C258.073 42.5287 259.198 41.4043 259.198 40.03ZM125.023 40.03V12.5437C125.023 11.1694 126.148 10.045 127.524 10.045C128.899 10.045 130.024 11.1694 130.024 12.5437V40.03C130.024 41.4043 128.899 42.5287 127.524 42.5287C126.148 42.5287 125.023 41.4043 125.023 40.03Z" fill="#1D1D1B"/>
</svg>
