<svg width="15" height="20" viewBox="0 0 15 20" fill="none" xmlns="http://www.w3.org/2000/svg">
    <path fill-rule="evenodd" clip-rule="evenodd" d="M13.3213 8.64286H12.0687V5.97179C12.0687 3.38299 9.93791 1.25265 7.34994 1.25265C4.76155 1.25265 2.6308 3.38299 2.6308 5.97179V8.64286H1.37815V5.97179C1.37815 2.67148 4.05213 0 7.34994 0C10.6477 0 13.3213 2.67148 13.3213 5.97179V8.64286Z" fill="#545454"/>
    <path fill-rule="evenodd" clip-rule="evenodd" d="M2.00466 9.31198C1.63011 9.31198 1.33783 9.60384 1.33783 9.9788V17.997C1.33783 18.3724 1.63011 18.6643 2.00466 18.6643H12.6952C13.0697 18.6643 13.3616 18.3724 13.3616 17.997V9.9788C13.3616 9.60384 13.0697 9.31198 12.6952 9.31198H2.00466ZM12.6952 20H2.00466C0.920279 20 0 19.0818 0 17.997V9.9788C0 8.89443 0.920279 7.97624 2.00466 7.97624H12.6952C13.7791 7.97624 14.6994 8.89443 14.6994 9.9788V17.997C14.6994 19.1244 13.7791 20 12.6952 20Z" fill="#545454"/>
    <path fill-rule="evenodd" clip-rule="evenodd" d="M8.68541 11.9834C8.68541 12.7355 8.1021 13.3192 7.34967 13.3192C6.59766 13.3192 6.01435 12.7355 6.01435 11.9834C6.01435 11.2314 6.59766 10.6477 7.34967 10.6477C8.1021 10.6477 8.68541 11.274 8.68541 11.9834Z" fill="#545454"/>
    <path fill-rule="evenodd" clip-rule="evenodd" d="M7.68426 11.9835H7.01493L6.34852 15.9928H8.35109L7.68426 11.9835Z" fill="#545454"/>
</svg>
