<svg width="18" height="20" viewBox="0 0 18 20" fill="none" xmlns="http://www.w3.org/2000/svg">
    <path fill-rule="evenodd" clip-rule="evenodd" d="M5.23783 0.105639C5.59382 0.105639 5.89081 0.37963 5.92981 0.734619V1.69959H9.85968C10.2417 1.69959 10.5467 2.01258 10.5467 2.39857C10.5467 2.78555 10.2417 3.09854 9.85968 3.09854H5.91381V3.79752C5.91381 3.98052 5.83981 4.16051 5.70682 4.29351C5.57782 4.4265 5.40183 4.4965 5.21883 4.4965L5.11684 4.4845C4.78885 4.4265 4.54285 4.13351 4.54685 3.78552V0.734619L4.56585 0.629622C4.64785 0.324632 4.92184 0.105639 5.23783 0.105639ZM4.84784 10.6133L4.95684 10.6213C5.14783 10.6453 5.32783 10.7343 5.46483 10.8713C5.62882 11.0393 5.72282 11.2623 5.72282 11.5003C5.72282 11.9883 5.33183 12.3832 4.85184 12.3832C4.37086 12.3832 3.98387 11.9883 3.98387 11.5003C3.98387 11.0123 4.37086 10.6133 4.85184 10.6133H4.84784ZM9.01571 10.6133L9.12471 10.6213C9.55469 10.6763 9.88668 11.0473 9.88668 11.5003C9.88668 11.9883 9.4957 12.3832 9.01571 12.3832C8.53873 12.3832 8.14774 11.9883 8.14774 11.5003C8.14774 11.0123 8.53873 10.6133 9.01571 10.6133ZM13.1876 10.6133L13.2966 10.6213C13.4876 10.6453 13.6636 10.7343 13.8046 10.8713C13.9686 11.0393 14.0625 11.2623 14.0625 11.5003C14.0625 11.9883 13.6716 12.3832 13.1916 12.3832C12.7106 12.3832 12.3206 11.9883 12.3206 11.5003C12.3206 11.0123 12.7106 10.6133 13.1916 10.6133H13.1876ZM4.84784 14.1952L4.95684 14.2032C5.14783 14.2272 5.32783 14.3162 5.46483 14.4532C5.62882 14.6212 5.72282 14.8482 5.72282 15.0822C5.72282 15.5701 5.33183 15.9651 4.85184 15.9651C4.37086 15.9651 3.98387 15.5701 3.98387 15.0822C3.98387 14.5942 4.37086 14.1992 4.85184 14.1992L4.84784 14.1952ZM9.01571 14.1992L9.12471 14.2032C9.55469 14.2582 9.88668 14.6332 9.88668 15.0822C9.88668 15.5701 9.4957 15.9651 9.01571 15.9651C8.53873 15.9651 8.14774 15.5701 8.14774 15.0822C8.14774 14.5942 8.53873 14.1992 9.01571 14.1992ZM13.1876 14.1952L13.2966 14.2032C13.4876 14.2272 13.6636 14.3162 13.8046 14.4532C13.9686 14.6212 14.0625 14.8482 14.0625 15.0822C14.0625 15.5701 13.6716 15.9651 13.1916 15.9651C12.7106 15.9651 12.3206 15.5701 12.3206 15.0822C12.3206 14.5942 12.7106 14.1992 13.1916 14.1992L13.1876 14.1952ZM12.7926 0.000642582C13.1716 0.0236418 13.4606 0.348631 13.4526 0.734619V1.77059C16.4605 2.06258 17.9994 3.72752 17.9994 6.71543V14.9842C17.9994 18.3131 16.1055 20 12.3746 20H5.62482C1.89494 20 0 18.3131 0 14.9842V6.71543C0 4.72349 0.679978 3.30154 2.06993 2.46956L2.16793 2.41457C2.36692 2.32057 2.60492 2.32857 2.80091 2.44156C3.0309 2.57456 3.1679 2.82855 3.1519 3.09854C3.1369 3.36353 2.9729 3.60253 2.72991 3.70752C1.80894 4.25451 1.37496 5.21148 1.37496 6.71543V6.98042H14.0625C14.4415 6.98042 14.7455 7.29341 14.7455 7.6804C14.7455 8.06638 14.4415 8.37937 14.0625 8.37937H1.37496V14.9842C1.37496 17.5231 2.60892 18.574 5.62482 18.594H12.3746C15.3475 18.594 16.6165 17.5161 16.6165 14.9772V6.70743C16.6165 4.4965 15.6525 3.42653 13.4526 3.16854V3.84052C13.4026 4.19951 13.0936 4.4615 12.7376 4.4455C12.3826 4.4345 12.0936 4.14851 12.0706 3.78552V0.672621L12.0816 0.562625C12.1096 0.418629 12.1836 0.285633 12.2926 0.184637C12.4296 0.0596407 12.6096 -0.00735716 12.7926 0.000642582Z" fill="#545454"/>
</svg>
