<svg width="14" height="14" viewBox="0 0 14 14" fill="none" xmlns="http://www.w3.org/2000/svg">
    <path fill-rule="evenodd" clip-rule="evenodd" d="M9.54545 6.36364H4.45455C4.1028 6.36364 3.81818 6.64825 3.81818 7C3.81818 7.35175 4.1028 7.63636 4.45455 7.63636H9.54545C9.8972 7.63636 10.1818 7.35175 10.1818 7C10.1818 6.64825 9.8972 6.36364 9.54545 6.36364ZM12.7273 12.0909C12.7273 12.4427 12.4427 12.7273 12.0909 12.7273H1.90909C1.55734 12.7273 1.27273 12.4427 1.27273 12.0909V1.90909C1.27273 1.55734 1.55734 1.27273 1.90909 1.27273H12.0909C12.4427 1.27273 12.7273 1.55734 12.7273 1.90909V12.0909ZM12.0909 0H1.90909C0.854477 0 0 0.854477 0 1.90909V12.0909C0 13.1455 0.854477 14 1.90909 14H12.0909C13.1455 14 14 13.1455 14 12.0909V1.90909C14 0.854477 13.1455 0 12.0909 0Z" fill="#167F71"/>
</svg>
