<svg width="19" height="15" viewBox="0 0 19 15" fill="none" xmlns="http://www.w3.org/2000/svg">
    <path fill-rule="evenodd" clip-rule="evenodd" d="M18.8013 1.9834L18.0484 1.22854L11.0663 8.21067C10.194 9.08255 8.72672 9.08255 7.85206 8.21067L0.87231 1.269L0.117056 2.02187L5.31459 7.21901L0.117056 12.4161L0.87231 13.169L6.06706 7.97188L7.09959 9.00401C7.73505 9.63947 8.56646 9.99568 9.43873 9.99568C10.3134 9.99568 11.1448 9.63947 11.7807 9.00401L12.8104 7.97188L18.0079 13.169L18.7604 12.4161L13.5657 7.21901L18.8013 1.9834Z" fill="#545454"/>
    <path fill-rule="evenodd" clip-rule="evenodd" d="M1.62515 1.0706C1.30741 1.0706 1.071 1.3094 1.071 1.62515V12.8127C1.071 13.1285 1.30741 13.3673 1.62515 13.3673H17.2935C17.6116 13.3673 17.85 13.1285 17.85 12.8127V1.62515C17.85 1.3094 17.6116 1.0706 17.2935 1.0706H1.62515ZM17.3344 14.5168H1.666C0.752874 14.5168 0 13.764 0 12.8512V1.66561C0 0.752874 0.752874 0 1.666 0H17.3344C18.2467 0 19 0.752874 19 1.66561V12.8512C19 13.764 18.2467 14.5168 17.3344 14.5168Z" fill="#545454"/>
</svg>
