<svg width="17" height="17" viewBox="0 0 17 17" fill="none" xmlns="http://www.w3.org/2000/svg">
<path fill-rule="evenodd" clip-rule="evenodd" d="M16.7905 15.8138L13.8684 12.9588L13.8021 12.856C13.6729 12.7259 13.5004 12.6562 13.3176 12.6562C13.1383 12.6562 12.9624 12.7259 12.8366 12.856C10.3531 15.133 6.52833 15.2562 3.89522 13.1441C1.26212 11.0295 0.641661 7.33732 2.44438 4.51298C4.2471 1.68948 7.91288 0.611761 11.0101 1.99291C14.1081 3.37406 15.6779 6.78571 14.6758 9.96703C14.6061 10.1999 14.6622 10.4489 14.8314 10.6249C14.998 10.8008 15.2504 10.8739 15.4892 10.8204C15.7281 10.7677 15.921 10.5909 15.9941 10.3623C17.1891 6.58768 15.383 2.52412 11.7444 0.799597C8.10497 -0.922378 3.72269 0.213139 1.4355 3.47265C-0.852531 6.73302 -0.361266 11.1357 2.59397 13.8385C5.54496 16.5379 10.0743 16.7232 13.2479 14.2737L15.8343 16.8031C16.1003 17.0657 16.5313 17.0657 16.8007 16.8031C17.0659 16.5405 17.0659 16.1155 16.8007 15.8503L16.7905 15.8138Z" fill="white"/>
</svg>
