<svg width="20" height="24" viewBox="0 0 20 24" fill="none" xmlns="http://www.w3.org/2000/svg">
    <mask id="mask0_0_1800" style="mask-type:luminance" maskUnits="userSpaceOnUse" x="0" y="1" width="20" height="23">
        <path fill-rule="evenodd" clip-rule="evenodd" d="M0 1.04368H19.0638V24H0V1.04368Z" fill="white"/>
    </mask>
    <g mask="url(#mask0_0_1800)">
        <path fill-rule="evenodd" clip-rule="evenodd" d="M14.5744 13.873C14.7861 14.4338 14.9276 15.0177 14.9978 15.6127L15.1423 13.8379L14.5744 13.873ZM11.5416 19.4963L12.6111 20.5628C13.5401 19.414 14.0457 17.9764 14.0457 16.4996C14.0457 15.4963 13.822 14.5322 13.3836 13.6302C13.3043 13.4807 13.3123 13.3011 13.3986 13.1567C13.4809 13.0112 13.6344 12.9169 13.8019 12.9099L15.66 12.8075C15.8054 12.7995 15.9419 12.8537 16.0482 12.956C16.1496 13.0614 16.2007 13.2028 16.1887 13.3483L15.7382 18.8693C15.7031 19.2937 15.8947 19.5204 16.0633 19.6388C16.3382 19.8264 16.7335 19.8615 17.0274 19.721C17.2903 19.5956 17.4468 19.3478 17.4709 19.0117L18.0548 11.9217C18.0738 11.6708 17.9876 11.427 17.812 11.2515C17.6354 11.0709 17.3886 10.9776 17.1378 10.9886L12.3442 11.2555C12.1405 11.2715 11.9529 11.1612 11.8626 10.9776C11.7723 10.797 11.8034 10.5773 11.9409 10.4248L14.5744 7.43104C14.7901 7.18323 14.8875 6.85015 14.8373 6.51706C14.7942 6.21609 14.6336 5.95323 14.4099 5.81578V5.81177C12.3171 4.59681 10.2243 3.38186 8.12846 2.1669C7.8024 1.97528 7.39106 2.01441 7.11315 2.26522L4.04015 5.00514C3.56661 5.42752 3.70606 5.92614 3.97695 6.22311C4.24381 6.52509 4.72639 6.72474 5.20093 6.30237L7.53152 4.22862C7.69304 4.08415 7.92781 4.06007 8.11642 4.17043L10.0397 5.28706C10.1691 5.3613 10.2594 5.49072 10.2835 5.63921C10.3065 5.78869 10.2634 5.93718 10.1651 6.05155L6.76402 9.91513C6.68978 10.0014 6.58343 10.0606 6.46906 10.0756C5.36145 10.2562 4.32307 10.7187 3.44923 11.42L4.51871 12.4905C5.38453 11.8394 6.43896 11.4903 7.52048 11.4903C9.50795 11.4742 11.3138 12.651 12.1014 14.473C12.8498 16.1665 12.6311 18.0506 11.5416 19.4963ZM12.6341 21.8018C12.5017 21.7968 12.3763 21.7466 12.282 21.6523L10.5062 19.8816C10.3186 19.693 10.3106 19.388 10.4912 19.1913C11.5687 18.0235 11.8385 16.322 11.1844 14.8763C10.5534 13.4185 9.10765 12.4825 7.52048 12.4935C6.52123 12.4935 5.56512 12.8667 4.82471 13.5359C4.62405 13.7165 4.32307 13.7085 4.13045 13.5199L2.35968 11.7491C2.26136 11.6518 2.21019 11.5224 2.21019 11.3849C2.21421 11.2515 2.26939 11.1221 2.36971 11.0277C3.41311 10.0445 4.71836 9.38239 6.12895 9.11552L9.00933 5.84688L7.92781 5.21683L5.87111 7.0508C4.95413 7.86545 3.84853 7.58755 3.22951 6.89028C2.6105 6.19602 2.46101 5.06735 3.37298 4.2557L6.44297 1.5208C7.04995 0.980041 7.93082 0.889747 8.6331 1.29707C13.4769 4.10321 14.6336 4.7774 14.9386 4.96903L14.9426 4.962C15.4172 5.25596 15.7422 5.76863 15.8325 6.36858C15.9228 6.99562 15.7422 7.62266 15.3309 8.08918L13.4849 10.186L17.0786 9.98536C17.6194 9.95024 18.1521 10.1539 18.5283 10.5462C18.9086 10.9344 19.1012 11.4632 19.058 11.9999L18.4741 19.09C18.4149 19.7873 18.0467 20.3481 17.4588 20.625C16.8198 20.9189 16.0753 20.8567 15.4954 20.4655C14.9547 20.0892 14.6798 19.4813 14.735 18.787L14.755 18.5793C14.4219 19.7281 13.822 20.7745 12.9993 21.6413C12.909 21.7426 12.7796 21.7968 12.6422 21.8018H12.6341ZM1.80688 13.3794C1.27716 14.3245 1.00327 15.3859 1.00327 16.4955C1.00327 18.9365 2.28745 21.0805 4.44848 22.2212C6.41889 23.2676 8.73945 23.2475 10.6396 22.2091L9.51798 21.0925C8.89094 21.3664 8.21073 21.5069 7.52449 21.5119C5.76477 21.5199 4.13045 20.5949 3.23353 19.081C2.38276 17.6583 2.2734 15.9738 2.92352 14.5001L1.80688 13.3794ZM7.54757 24C6.30051 24 5.07552 23.695 3.97695 23.1101C1.48483 21.7898 0 19.3167 0 16.4955C0 14.9746 0.449463 13.5249 1.30525 12.2939C1.38651 12.1725 1.52095 12.0942 1.66943 12.0782C1.81792 12.0671 1.96339 12.1213 2.06873 12.2267L3.88364 14.0416C4.04015 14.1991 4.07527 14.4368 3.97394 14.6335C3.31178 15.8685 3.35893 17.3383 4.09533 18.5643C4.81267 19.7752 6.11792 20.5126 7.52449 20.5086C8.18163 20.5086 8.80867 20.3511 9.38555 20.0461C9.57818 19.9398 9.82097 19.9749 9.97347 20.1324L11.7994 21.9463C11.9058 22.0526 11.9609 22.2011 11.9449 22.3506C11.9328 22.4991 11.8506 22.6315 11.7292 22.7178C10.4952 23.5575 9.03642 24.004 7.54757 24Z" fill="#1D1D1B"/>
    </g>
    <mask id="mask1_0_1800" style="mask-type:luminance" maskUnits="userSpaceOnUse" x="12" y="0" width="7" height="6">
        <path fill-rule="evenodd" clip-rule="evenodd" d="M12.8264 0H18.4267V5.52187H12.8264V0Z" fill="white"/>
    </mask>
    <g mask="url(#mask1_0_1800)">
        <path fill-rule="evenodd" clip-rule="evenodd" d="M15.6245 0.933037C14.6373 0.933037 13.8297 1.73665 13.8297 2.72387C13.8297 3.71911 14.6333 4.52272 15.6245 4.52272C16.6158 4.52272 17.4234 3.71911 17.4234 2.72387C17.4234 1.73665 16.6158 0.933037 15.6245 0.933037ZM15.6245 5.52198C14.0805 5.52198 12.8264 4.26789 12.8264 2.72387C12.8655 1.20693 14.1076 0 15.6245 0C17.1455 0 18.3835 1.20693 18.4267 2.72387C18.4226 4.27191 17.1686 5.52198 15.6245 5.52198Z" fill="#1D1D1B"/>
    </g>
</svg>
