<svg width="22" height="14" viewBox="0 0 22 14" fill="none" xmlns="http://www.w3.org/2000/svg">
    <path fill-rule="evenodd" clip-rule="evenodd" d="M1.28631 7.04606C1.96373 8.22161 5.08121 12.8276 10.8162 12.8276C16.5513 12.8276 19.6692 8.22161 20.3466 7.04606C19.6692 5.87097 16.5513 1.26497 10.8162 1.26497C5.08121 1.26497 1.96373 5.87097 1.28631 7.04606ZM10.8162 14C3.50056 14 0.203339 7.54419 0.0674032 7.27187C-0.0224677 7.09258 -0.0224677 6.91013 0.0674032 6.73084C0.203339 6.45852 3.50056 0 10.8162 0C18.1319 0 21.4291 6.45852 21.5655 6.73084C21.655 6.91013 21.655 7.09258 21.5655 7.27187C21.4291 7.58755 18.1319 14 10.8162 14Z" fill="#202244"/>
    <path fill-rule="evenodd" clip-rule="evenodd" d="M10.8162 2.53008C8.33235 2.53008 6.3001 4.56234 6.3001 7.04621C6.3001 9.53008 8.33235 11.5623 10.8162 11.5623C13.3001 11.5623 15.3324 9.53008 15.3324 7.04621C15.3324 4.56234 13.3001 2.53008 10.8162 2.53008ZM10.8162 12.7374C7.65494 12.7374 5.125 10.1614 5.125 7.04621C5.125 3.93098 7.701 1.35498 10.8162 1.35498C13.9315 1.35498 16.5079 3.93098 16.5079 7.04621C16.5079 10.1614 13.9775 12.7374 10.8162 12.7374Z" fill="#202244"/>
    <path fill-rule="evenodd" clip-rule="evenodd" d="M10.8163 10.2072C9.09974 10.2072 7.65503 8.80631 7.65503 7.04593C7.65503 6.7307 7.9269 6.45838 8.24258 6.45838C8.55826 6.45838 8.83013 6.7307 8.83013 7.04593C8.83013 8.12889 9.68729 8.98877 10.7703 8.98877C11.8559 8.98877 12.7126 8.12889 12.7126 7.04593C12.7126 5.96341 11.8559 5.10354 10.7703 5.10354C10.4546 5.10354 10.185 4.83438 10.185 4.51599C10.185 4.20031 10.4546 3.93115 10.7703 3.93115C12.4868 3.93115 13.9315 5.32935 13.9315 7.09244C13.9315 8.85238 12.5334 10.2072 10.8163 10.2072Z" fill="#202244"/>
</svg>
