<svg width="19" height="15" viewBox="0 0 19 15" fill="none" xmlns="http://www.w3.org/2000/svg">
    <path fill-rule="evenodd" clip-rule="evenodd" d="M18.8018 1.98342L18.0489 1.22856L11.0666 8.21078C10.1944 9.08267 8.72707 9.08267 7.85241 8.21078L0.872566 1.26902L0.117302 2.0219L5.3149 7.2191L0.117302 12.4163L0.872566 13.1692L6.06739 7.97198L7.09992 9.00412C7.73539 9.63959 8.56682 9.9958 9.4391 9.9958C10.3138 9.9958 11.1452 9.63959 11.7811 9.00412L12.8108 7.97198L18.0084 13.1692L18.7609 12.4163L13.5661 7.2191L18.8018 1.98342Z" fill="#167F71"/>
    <path fill-rule="evenodd" clip-rule="evenodd" d="M1.62517 1.07062C1.30743 1.07062 1.07101 1.30942 1.07101 1.62517V12.8129C1.07101 13.1287 1.30743 13.3675 1.62517 13.3675H17.2937C17.6118 13.3675 17.8502 13.1287 17.8502 12.8129V1.62517C17.8502 1.30942 17.6118 1.07062 17.2937 1.07062H1.62517ZM17.3346 14.517H1.66602C0.752884 14.517 0 13.7641 0 12.8514V1.66563C0 0.752884 0.752884 0 1.66602 0H17.3346C18.2469 0 19.0002 0.752884 19.0002 1.66563V12.8514C19.0002 13.7641 18.2469 14.517 17.3346 14.517Z" fill="#167F71"/>
</svg>
