<svg width="60" height="60" viewBox="0 0 60 60" fill="none" xmlns="http://www.w3.org/2000/svg">
    <path fill-rule="evenodd" clip-rule="evenodd" d="M0 40.0003H3.99993V0H0V40.0003Z" fill="#41EAD4"/>
    <path fill-rule="evenodd" clip-rule="evenodd" d="M7.99987 40.0003H11.9998V10.0008H7.99987V40.0003Z" fill="#FF9F1C"/>
    <path fill-rule="evenodd" clip-rule="evenodd" d="M15.9997 40.0003H19.9997V6.00088H15.9997V40.0003Z" fill="#1B98E0"/>
    <path fill-rule="evenodd" clip-rule="evenodd" d="M23.9996 40.0003H27.9995V22.0006H23.9996V40.0003Z" fill="#F71735"/>
    <path fill-rule="evenodd" clip-rule="evenodd" d="M31.9995 42.0003H0V40.0003H30.9995V20.0007C30.9995 19.4497 31.4485 19.0007 31.9995 19.0007C32.5505 19.0007 32.9995 19.4497 32.9995 20.0007V41.0003C32.9995 41.5513 32.5505 42.0003 31.9995 42.0003Z" fill="#4F5D75"/>
    <path fill-rule="evenodd" clip-rule="evenodd" d="M14.9216 51.9104C9.77672 51.0664 8.93373 50.2234 8.08975 45.0785C8.08175 45.0315 8.04675 45.0005 7.99975 45.0005C7.95275 45.0005 7.91775 45.0315 7.90975 45.0785C7.06576 50.2234 6.22278 51.0664 1.07786 51.9104C1.03086 51.9184 0.999862 51.9534 0.999862 52.0004C0.999862 52.0474 1.03086 52.0824 1.07786 52.0904C6.22278 52.9334 7.06576 53.7773 7.90975 58.9223C7.91775 58.9693 7.95275 59.0003 7.99975 59.0003C8.04675 59.0003 8.08175 58.9693 8.08975 58.9223C8.93373 53.7773 9.77672 52.9334 14.9216 52.0904C14.9686 52.0824 14.9996 52.0474 14.9996 52.0004C14.9996 51.9534 14.9686 51.9184 14.9216 51.9104ZM58.9209 7.91109C53.776 7.06711 52.933 6.22412 52.089 1.0792C52.081 1.0322 52.046 1.0012 51.999 1.0012C51.952 1.0012 51.917 1.0322 51.909 1.0792C51.066 6.22412 50.2221 7.06711 45.0771 7.91109C45.0301 7.91909 44.9991 7.95409 44.9991 8.00109C44.9991 8.04809 45.0301 8.08309 45.0771 8.09109C50.2221 8.93508 51.066 9.77806 51.909 14.923C51.917 14.97 51.952 15.001 51.999 15.001C52.046 15.001 52.081 14.97 52.089 14.923C52.933 9.77806 53.776 8.93508 58.9209 8.09109C58.9679 8.08309 58.9989 8.04809 58.9989 8.00109C58.9989 7.95409 58.9679 7.91909 58.9209 7.91109Z" fill="#1B98E0"/>
    <path fill-rule="evenodd" clip-rule="evenodd" d="M43.7102 42.0003H50.2881C55.651 42.0003 59.9989 46.3482 59.9989 51.7111V60H33.9993V51.7111C33.9993 46.3482 38.3473 42.0003 43.7102 42.0003Z" fill="#2D3142"/>
    <path fill-rule="evenodd" clip-rule="evenodd" d="M50.1086 52.0001L46.9996 47.7152L43.8897 52.0001L42.9997 42.0003H50.9995L50.1086 52.0001Z" fill="#247BA0"/>
    <path fill-rule="evenodd" clip-rule="evenodd" d="M46.9992 48.0002L48.9992 42.0003H44.9993L46.9992 48.0002Z" fill="#F71735"/>
    <path fill-rule="evenodd" clip-rule="evenodd" d="M54.9991 60H52.9991V51.0001C52.9991 50.4492 53.4481 50.0002 53.9991 50.0002C54.5501 50.0002 54.9991 50.4492 54.9991 51.0001V60ZM40.9993 60H38.9994V51.0001C38.9994 50.4492 39.4484 50.0002 39.9993 50.0002C40.5503 50.0002 40.9993 50.4492 40.9993 51.0001V60Z" fill="#4F5D75"/>
    <path fill-rule="evenodd" clip-rule="evenodd" d="M53.921 30.8794V31.4303C55.151 31.5203 56.081 32.5863 55.999 33.8203C56.007 34.4423 55.788 35.0433 55.39 35.5203C55.026 35.9573 54.487 36.2153 53.921 36.2193C53.851 38.5592 52.476 40.6602 50.3581 41.6602L48.4601 42.6492C47.5421 43.1172 46.4561 43.1172 45.5381 42.6492L43.6402 41.6602C42.5852 41.1292 41.6872 40.3322 41.0302 39.3522C40.4132 38.4222 40.0852 37.3322 40.0772 36.2193C38.8862 36.0513 37.9993 35.0313 37.9993 33.8243C37.9993 32.6213 38.8862 31.5983 40.0772 31.4303V31.0003L48.6011 29.0004H51.011L53.921 30.8794Z" fill="#FFBF69"/>
    <path fill-rule="evenodd" clip-rule="evenodd" d="M54.9991 32.0005C53.5731 31.9885 52.2181 31.3675 51.2722 30.3015L49.9992 31.0005L49.9092 29.0005C48.1042 30.9615 45.5463 32.0515 42.8863 32.0005H38.9994V29.6025C38.9994 25.6216 41.9293 24.0006 45.5463 24.0006H48.4522C52.0692 24.0006 54.9991 25.6256 54.9991 29.6025V32.0005Z" fill="#2D3142"/>
</svg>
