<svg width="51" height="36" viewBox="0 0 51 36" fill="none" xmlns="http://www.w3.org/2000/svg">
    <path fill-rule="evenodd" clip-rule="evenodd" d="M6.65755 4.93152H48.7726C49.7258 4.93152 50.4986 5.70438 50.4986 6.65755V34.274C50.4986 35.2271 49.7258 36 48.7726 36H6.65755C5.70438 36 4.93152 35.2271 4.93152 34.274V6.65755C4.93152 5.70438 5.70438 4.93152 6.65755 4.93152Z" fill="#8397CC"/>
    <path fill-rule="evenodd" clip-rule="evenodd" d="M6.65755 4.93152C5.70478 4.9327 4.9327 5.70478 4.93152 6.65755V33.0411H45.8137C46.7665 33.0399 47.5386 32.2678 47.5397 31.3151V4.93152H6.65755Z" fill="#6D83B5"/>
    <path fill-rule="evenodd" clip-rule="evenodd" d="M1.72603 0H43.8411C44.7943 0 45.5671 0.772866 45.5671 1.72603V29.3425C45.5671 30.2956 44.7943 31.0685 43.8411 31.0685H1.72603C0.772866 31.0685 0 30.2956 0 29.3425V1.72603C0 0.772866 0.772866 0 1.72603 0Z" fill="#3D58FF"/>
    <path fill-rule="evenodd" clip-rule="evenodd" d="M1.9726 3.69863C1.97379 2.74586 2.74586 1.97379 3.69863 1.9726H45.5671V1.72603C45.5659 0.77326 44.7939 0.00118356 43.8411 0H1.72603C0.77326 0.00118356 0.00118356 0.77326 0 1.72603V29.3425C0.00118356 30.2952 0.77326 31.0673 1.72603 31.0685H1.9726V3.69863Z" fill="#3146CC"/>
    <path fill-rule="evenodd" clip-rule="evenodd" d="M30.0329 22.6849H40.8822C41.8354 22.6849 42.6083 23.4578 42.6083 24.411V26.3836C42.6083 27.3367 41.8354 28.1096 40.8822 28.1096H30.0329C29.0798 28.1096 28.3069 27.3367 28.3069 26.3836V24.411C28.3069 23.4578 29.0798 22.6849 30.0329 22.6849Z" fill="#3146CC"/>
    <path fill-rule="evenodd" clip-rule="evenodd" d="M29.0466 21.6986H39.8959C40.8491 21.6986 41.6219 22.4715 41.6219 23.4246V25.3972C41.6219 26.3504 40.8491 27.1233 39.8959 27.1233H29.0466C28.0934 27.1233 27.3206 26.3504 27.3206 25.3972V23.4246C27.3206 22.4715 28.0934 21.6986 29.0466 21.6986Z" fill="#F65D6D"/>
    <path fill-rule="evenodd" clip-rule="evenodd" d="M28.3069 26.3835V24.4109C28.308 23.4582 29.0801 22.6861 30.0329 22.6849H40.8822C41.0952 22.6853 41.306 22.725 41.5045 22.8024C41.2466 22.1382 40.6083 21.7002 39.8959 21.6986H29.0466C28.0938 21.6998 27.3217 22.4719 27.3206 23.4246V25.3972C27.3221 26.1096 27.7602 26.748 28.4243 27.0058C28.3469 26.8074 28.3073 26.5966 28.3069 26.3835Z" fill="#E25065"/>
    <path fill-rule="evenodd" clip-rule="evenodd" d="M45.5671 4.93151V1.72603C45.5659 0.77326 44.7939 0.00118356 43.8411 0H1.72603C0.77326 0.00118356 0.00118356 0.77326 0 1.72603V4.93151H45.5671Z" fill="white"/>
    <path fill-rule="evenodd" clip-rule="evenodd" d="M1.9726 3.69863C1.97379 2.74586 2.74586 1.97379 3.69863 1.9726H45.5671V1.72603C45.5659 0.77326 44.7939 0.00118356 43.8411 0H1.72603C0.77326 0.00118356 0.00118356 0.77326 0 1.72603V4.93151H1.9726V3.69863Z" fill="#E8EFFF"/>
    <path fill-rule="evenodd" clip-rule="evenodd" d="M14.4 19.2329C14.0778 19.2329 13.7928 19.0241 13.6956 18.717L11.0326 10.3335C10.9441 10.0791 11.0003 9.79674 11.1799 9.59603C11.3594 9.39532 11.6341 9.30823 11.8964 9.36829C12.1588 9.42885 12.368 9.6268 12.442 9.88571L15.105 18.2693C15.1771 18.4943 15.137 18.7397 14.9976 18.9305C14.8581 19.1211 14.6362 19.2333 14.4 19.2329ZM7.35293 17.8351C7.15025 17.8359 6.95644 17.7526 6.81737 17.6055L4.14933 14.8123C3.87731 14.526 3.87731 14.0768 4.14933 13.7905L6.81737 10.9973C7.09906 10.701 7.56785 10.689 7.86413 10.971C8.16042 11.2531 8.17235 11.7216 7.89037 12.0183L5.70778 14.3014L7.89037 16.5845C8.09493 16.7987 8.15194 17.1143 8.03565 17.3862C7.91927 17.6586 7.65188 17.8351 7.3556 17.8351H7.35293ZM18.784 17.8351C18.4873 17.8363 18.2188 17.6602 18.102 17.3878C17.985 17.115 18.0416 16.7991 18.2465 16.5845L20.4265 14.3014L18.2465 12.0183C17.9646 11.7216 17.9765 11.2531 18.2728 10.971C18.5691 10.689 19.0378 10.701 19.3195 10.9973L21.9876 13.7913C22.2596 14.0779 22.2596 14.5271 21.9876 14.8134L19.3195 17.6055C19.1805 17.7526 18.9867 17.8359 18.784 17.8351Z" fill="#F65D6D"/>
    <path fill-rule="evenodd" clip-rule="evenodd" d="M40.8822 18.7397H26.3835C25.9751 18.7397 25.6438 18.4084 25.6438 18C25.6438 17.5916 25.9751 17.2603 26.3835 17.2603H40.8822C41.2906 17.2603 41.6219 17.5916 41.6219 18C41.6219 18.4084 41.2906 18.7397 40.8822 18.7397ZM40.8822 14.3014H26.3835C25.9751 14.3014 25.6438 13.9701 25.6438 13.5616C25.6438 13.1532 25.9751 12.8219 26.3835 12.8219H40.8822C41.2906 12.8219 41.6219 13.1532 41.6219 13.5616C41.6219 13.9701 41.2906 14.3014 40.8822 14.3014ZM40.8822 10.3562H31.1671C30.7587 10.3562 30.4274 10.0249 30.4274 9.61643C30.4274 9.20801 30.7587 8.87671 31.1671 8.87671H40.8822C41.2906 8.87671 41.6219 9.20801 41.6219 9.61643C41.6219 10.0249 41.2906 10.3562 40.8822 10.3562ZM5.37533 23.1781H4.68492C4.27649 23.1781 3.94519 22.8468 3.94519 22.4384C3.94519 22.0299 4.27649 21.6986 4.68492 21.6986H5.37533C5.78375 21.6986 6.11505 22.0299 6.11505 22.4384C6.11505 22.8468 5.78375 23.1781 5.37533 23.1781ZM24.1151 23.1781H9.17259C8.76416 23.1781 8.43286 22.8468 8.43286 22.4384C8.43286 22.0299 8.76416 21.6986 9.17259 21.6986H24.1151C24.5235 21.6986 24.8548 22.0299 24.8548 22.4384C24.8548 22.8468 24.5235 23.1781 24.1151 23.1781ZM24.1151 27.1233H4.68492C4.27649 27.1233 3.94519 26.792 3.94519 26.3836C3.94519 25.9751 4.27649 25.6438 4.68492 25.6438H24.1151C24.5235 25.6438 24.8548 25.9751 24.8548 26.3836C24.8548 26.792 24.5235 27.1233 24.1151 27.1233ZM27.7151 10.3562H26.3835C25.9751 10.3562 25.6438 10.0249 25.6438 9.61643C25.6438 9.20801 25.9751 8.87671 26.3835 8.87671H27.7151C28.1235 8.87671 28.4548 9.20801 28.4548 9.61643C28.4548 10.0249 28.1235 10.3562 27.7151 10.3562Z" fill="white"/>
    <path fill-rule="evenodd" clip-rule="evenodd" d="M41.8685 3.52607H40.8822C40.4738 3.52607 40.1425 3.12299 40.1425 2.62607C40.1425 2.12915 40.4738 1.72607 40.8822 1.72607H41.8685C42.2769 1.72607 42.6082 2.12915 42.6082 2.62607C42.6082 3.12299 42.2769 3.52607 41.8685 3.52607ZM37.9233 3.52607H36.937C36.5286 3.52607 36.1973 3.12299 36.1973 2.62607C36.1973 2.12915 36.5286 1.72607 36.937 1.72607H37.9233C38.3317 1.72607 38.663 2.12915 38.663 2.62607C38.663 3.12299 38.3317 3.52607 37.9233 3.52607Z" fill="#8397CC"/>
</svg>
