<svg width="28" height="28" viewBox="0 0 28 28" fill="none" xmlns="http://www.w3.org/2000/svg">
    <path d="M7.27345 24.0626C6.93768 24.062 6.60785 23.974 6.31642 23.8072C5.66017 23.4353 5.2522 22.7135 5.2522 21.9298V6.07041C5.2522 5.28455 5.66017 4.56486 6.31642 4.19299C6.61479 4.02151 6.95375 3.93332 7.29787 3.93765C7.64198 3.94198 7.97862 4.03866 8.27259 4.2176L21.8269 12.331C22.1094 12.5082 22.3422 12.7541 22.5037 13.0459C22.6651 13.3376 22.7498 13.6656 22.7498 13.999C22.7498 14.3324 22.6651 14.6604 22.5037 14.9521C22.3422 15.2439 22.1094 15.4898 21.8269 15.667L8.2704 23.7826C7.96956 23.9645 7.62499 24.0612 7.27345 24.0626Z" fill="white"/>
</svg>
