<svg width="17" height="20" viewBox="0 0 17 20" fill="none" xmlns="http://www.w3.org/2000/svg">
    <path fill-rule="evenodd" clip-rule="evenodd" d="M8.4656 0C11.5354 0 14.9782 2.16388 15.3672 5.64068V7.45257C15.5002 8.10453 15.8092 8.7145 16.2542 9.21047C16.2812 9.24147 16.3062 9.27247 16.3241 9.30847C16.7311 9.92143 16.9651 10.6284 17.0001 11.3583L16.9731 11.5423C17.0041 12.5423 16.6721 13.5222 16.0312 14.2962C15.2192 15.1751 14.1063 15.7261 12.9103 15.8391C9.96151 16.1591 6.98468 16.1591 4.03985 15.8391C2.85992 15.7181 1.76698 15.1671 0.97003 14.2962C0.321067 13.5342 -0.0219129 12.5583 0.00108582 11.5623V11.4373C0.0520829 10.6874 0.302069 9.96043 0.731044 9.33546L0.80204 9.24547C1.24701 8.7455 1.552 8.14053 1.68899 7.48757V5.67567L1.73499 5.57368C1.88798 5.31569 2.17696 5.1677 2.48094 5.1987C2.82092 5.2377 3.09891 5.49568 3.1529 5.83166V7.64456V7.74156C2.96592 8.6515 2.54394 9.49545 1.92698 10.1874C1.68899 10.5654 1.556 10.9954 1.536 11.4373V11.6323C1.517 12.2533 1.72399 12.8623 2.12196 13.3472C2.67293 13.9132 3.41089 14.2612 4.19984 14.3312C7.05168 14.6402 9.93152 14.6402 12.7854 14.3312C13.5983 14.2572 14.3533 13.8942 14.9062 13.3042C15.2852 12.8313 15.4812 12.2413 15.4652 11.6403V11.4373C15.4452 10.9914 15.3172 10.5624 15.0822 10.1794C14.4423 9.49146 13.9923 8.6475 13.7893 7.73356C13.7853 7.70256 13.7853 7.66756 13.7893 7.63656V5.81567C13.5313 3.15982 10.8605 1.51191 8.5356 1.51191C7.54765 1.51191 6.57471 1.7619 5.71576 2.24187L5.60976 2.29687C5.39178 2.38286 5.14579 2.36686 4.9388 2.24987C4.69982 2.10888 4.55182 1.85189 4.55982 1.57791C4.56682 1.30093 4.72381 1.05094 4.9698 0.925947C6.03574 0.323981 7.23867 0.00799954 8.4656 0ZM10.1415 17.569C10.4185 17.319 10.8445 17.304 11.1414 17.55C11.4654 17.815 11.5124 18.2959 11.2424 18.6159C10.5785 19.4789 9.55254 19.9869 8.4576 19.9989L8.23861 19.9909C7.23067 19.9169 6.29772 19.4209 5.68076 18.6159L5.61376 18.5259C5.42277 18.21 5.48477 17.792 5.78175 17.55C6.10574 17.28 6.59071 17.327 6.85969 17.651C6.97769 17.808 7.11768 17.944 7.27767 18.061C7.69964 18.3739 8.23061 18.5069 8.75058 18.4289C9.27455 18.3509 9.74253 18.073 10.0565 17.651H10.0635L10.1415 17.569Z" fill="#202244"/>
</svg>
