<svg width="28" height="28" viewBox="0 0 28 28" fill="none" xmlns="http://www.w3.org/2000/svg">
    <path d="M14.0002 2.80005C7.51211 2.80005 2.24023 8.07192 2.24023 14.56C2.24023 18.9941 4.70117 22.8616 8.33242 24.8632C8.60367 25.0119 8.94492 24.9135 9.09367 24.6444C9.24242 24.3732 9.14398 24.0319 8.87273 23.881C5.5893 22.0719 3.36023 18.5807 3.36023 14.56C3.36023 8.67786 8.11805 3.92005 14.0002 3.92005C19.8824 3.92005 24.6402 8.67786 24.6402 14.56C24.6402 18.5807 22.4112 22.0719 19.1277 23.881C18.8565 24.0319 18.758 24.3732 18.9068 24.6444C19.0555 24.9135 19.3968 25.0119 19.668 24.8632C23.2993 22.8616 25.7602 18.9941 25.7602 14.56C25.7602 8.07192 20.4884 2.80005 14.0002 2.80005ZM14.0002 5.04005C8.74805 5.04005 4.48023 9.30786 4.48023 14.56C4.48023 18.1497 6.47086 21.28 9.41305 22.901C9.68211 23.0497 10.0234 22.9513 10.1743 22.68C10.323 22.411 10.2246 22.0697 9.95336 21.9188C7.35898 20.4904 5.60023 17.7363 5.60023 14.56C5.60023 9.9138 9.35398 6.16005 14.0002 6.16005C18.6465 6.16005 22.4002 9.9138 22.4002 14.56C22.4002 17.7363 20.6415 20.4904 18.0471 21.9188C17.7759 22.0697 17.6774 22.411 17.8262 22.68C17.9771 22.9513 18.3184 23.0497 18.5874 22.901C21.5296 21.28 23.5202 18.1497 23.5202 14.56C23.5202 9.30786 19.2524 5.04005 14.0002 5.04005ZM14.0002 7.28005C9.98617 7.28005 6.72023 10.546 6.72023 14.56C6.72023 17.3032 8.24273 19.6985 10.4915 20.9388C10.7627 21.0875 11.104 20.9891 11.2527 20.72C11.4015 20.4488 11.303 20.1075 11.034 19.9588C9.13086 18.9088 7.84023 16.8897 7.84023 14.56C7.84023 11.1519 10.5921 8.40005 14.0002 8.40005C17.4084 8.40005 20.1602 11.1519 20.1602 14.56C20.1602 16.8897 18.8696 18.9088 16.9665 19.9588C16.6974 20.1075 16.599 20.4488 16.7477 20.72C16.8965 20.9891 17.2377 21.0875 17.509 20.9388C19.7577 19.6985 21.2802 17.3032 21.2802 14.56C21.2802 10.546 18.0143 7.28005 14.0002 7.28005ZM14.0002 9.52005C11.2243 9.52005 8.96023 11.7841 8.96023 14.56C8.96023 16.4588 10.0146 18.1169 11.5699 18.9766C11.7471 19.075 11.9615 19.0729 12.1343 18.9679C12.3071 18.865 12.4121 18.6769 12.4077 18.4757C12.4012 18.2722 12.2896 18.0907 12.1102 17.9944C10.9005 17.3272 10.0802 16.0432 10.0802 14.56C10.0802 12.3879 11.828 10.64 14.0002 10.64C16.1724 10.64 17.9202 12.3879 17.9202 14.56C17.9202 16.0432 17.0999 17.3272 15.8902 17.9944C15.7109 18.0907 15.5993 18.2722 15.5927 18.4757C15.5884 18.6769 15.6934 18.865 15.8662 18.9679C16.039 19.0729 16.2534 19.075 16.4305 18.9766C17.9859 18.1169 19.0402 16.4588 19.0402 14.56C19.0402 11.7841 16.7762 9.52005 14.0002 9.52005ZM14.0002 11.76C12.4602 11.76 11.2002 13.02 11.2002 14.56C11.2002 15.6144 11.7952 16.531 12.6549 17.0035C12.9262 17.1544 13.2674 17.056 13.4162 16.7847C13.5649 16.5135 13.4665 16.1722 13.1952 16.0235C12.6746 15.7347 12.3202 15.1966 12.3202 14.56C12.3202 13.626 13.0662 12.88 14.0002 12.88C14.9343 12.88 15.6802 13.626 15.6802 14.56C15.6802 15.1966 15.3259 15.7347 14.8052 16.0235C14.534 16.1722 14.4355 16.5135 14.5843 16.7847C14.733 17.056 15.0743 17.1544 15.3455 17.0035C16.2052 16.531 16.8002 15.6144 16.8002 14.56C16.8002 13.02 15.5402 11.76 14.0002 11.76ZM14.0002 14C13.6918 14 13.4402 14.2516 13.4402 14.56C13.4402 14.8685 13.6918 15.12 14.0002 15.12C14.3087 15.12 14.5602 14.8685 14.5602 14.56C14.5602 14.2516 14.3087 14 14.0002 14Z" fill="#F9FAFB"/>
</svg>
