<svg width="20" height="20" viewBox="0 0 20 20" fill="none" xmlns="http://www.w3.org/2000/svg">
    <path d="M7.5 3.33325H4.16667C3.70643 3.33325 3.33333 3.70635 3.33333 4.16659V7.49992C3.33333 7.96016 3.70643 8.33325 4.16667 8.33325H7.5C7.96024 8.33325 8.33333 7.96016 8.33333 7.49992V4.16659C8.33333 3.70635 7.96024 3.33325 7.5 3.33325Z" stroke="#1E2857" stroke-width="1.5" stroke-linecap="round" stroke-linejoin="round"/>
    <path d="M15.8333 3.33325H12.5C12.0398 3.33325 11.6667 3.70635 11.6667 4.16659V7.49992C11.6667 7.96016 12.0398 8.33325 12.5 8.33325H15.8333C16.2936 8.33325 16.6667 7.96016 16.6667 7.49992V4.16659C16.6667 3.70635 16.2936 3.33325 15.8333 3.33325Z" stroke="#1E2857" stroke-width="1.5" stroke-linecap="round" stroke-linejoin="round"/>
    <path d="M7.5 11.6665H4.16667C3.70643 11.6665 3.33333 12.0396 3.33333 12.4998V15.8332C3.33333 16.2934 3.70643 16.6665 4.16667 16.6665H7.5C7.96024 16.6665 8.33333 16.2934 8.33333 15.8332V12.4998C8.33333 12.0396 7.96024 11.6665 7.5 11.6665Z" stroke="#1E2857" stroke-width="1.5" stroke-linecap="round" stroke-linejoin="round"/>
    <path d="M15.8333 11.6665H12.5C12.0398 11.6665 11.6667 12.0396 11.6667 12.4998V15.8332C11.6667 16.2934 12.0398 16.6665 12.5 16.6665H15.8333C16.2936 16.6665 16.6667 16.2934 16.6667 15.8332V12.4998C16.6667 12.0396 16.2936 11.6665 15.8333 11.6665Z" stroke="#1E2857" stroke-width="1.5" stroke-linecap="round" stroke-linejoin="round"/>
</svg>
