<svg width="42" height="42" viewBox="0 0 42 42" fill="none" xmlns="http://www.w3.org/2000/svg">
    <path fill-rule="evenodd" clip-rule="evenodd" d="M41.0852 18.0519V23.9482L36.8823 24.3691V24.3701C35.3912 23.3483 33.6253 22.8029 31.8178 22.8061C31.667 22.8061 31.5175 22.8097 31.3684 22.8169V22.8097C32.1534 18.3015 29.925 13.8052 25.8623 11.6999C21.7996 9.59412 16.841 10.3655 13.6101 13.6058C10.3791 16.8461 9.62234 21.8072 11.7394 25.8635C13.8569 29.92 18.3597 32.1356 22.8653 31.3374C22.8582 31.4726 22.8554 31.6095 22.8554 31.7465C22.8525 33.5334 23.3886 35.2792 24.3939 36.7564L23.9746 41.1116H18.0783L17.6563 36.7418C15.7444 36.3184 13.9246 35.5513 12.2868 34.4774L8.91783 37.2679L4.75773 33.1089L7.54827 29.7396C6.46576 28.1061 5.69835 26.2846 5.28456 24.3691L0.914917 23.9482V18.0519L5.28456 17.6311C5.7084 15.7186 6.47517 13.899 7.54827 12.2605L4.75773 8.89116L8.91783 4.73216L12.2868 7.52269C13.92 6.43982 15.741 5.67195 17.6563 5.25825L18.0783 0.888428H23.9746L24.3957 5.25825C26.3081 5.68163 28.1278 6.44877 29.7663 7.52269L33.1353 4.73216L37.2422 8.89116L34.4517 12.2605C35.5341 13.894 36.3017 15.7154 36.7154 17.6311L41.0852 18.0519Z" fill="#00ACEA"/>
    <path fill-rule="evenodd" clip-rule="evenodd" d="M24.3939 36.7565C23.3885 35.2791 22.8524 33.5333 22.8552 31.7465C22.8552 31.6095 22.8582 31.4726 22.8653 31.3374C23.0814 26.7308 26.7624 23.0426 31.3684 22.8168C31.5175 22.8097 31.6668 22.8062 31.8178 22.8062C36.0741 22.8151 39.7341 25.8235 40.5665 29.9978C41.399 34.1721 39.1734 38.3546 35.2459 39.9957C31.3188 41.6369 26.7789 40.282 24.3939 36.7565Z" fill="#FEDB41"/>
    <mask id="mask0_0_1043" style="mask-type:luminance" maskUnits="userSpaceOnUse" x="0" y="0" width="42" height="42">
        <path fill-rule="evenodd" clip-rule="evenodd" d="M0 0H42V42H0V0Z" fill="white"/>
    </mask>
    <g mask="url(#mask0_0_1043)">
        <path fill-rule="evenodd" clip-rule="evenodd" d="M40.1739 23.1222L37.1131 23.4289C35.6975 22.529 34.0754 22.0065 32.4005 21.9116C32.4248 21.6089 32.4373 21.3047 32.4373 21.0004C32.4373 14.6982 27.3282 9.58949 21.0264 9.58949C14.7243 9.58949 9.61544 14.6986 9.61544 21.0004C9.61544 27.3025 14.7247 32.4113 21.0264 32.4113C21.3381 32.4113 21.6513 32.3981 21.9634 32.3724C22.0646 34.0077 22.5775 35.5909 23.4542 36.9751L23.1457 40.174H18.9075L18.5651 36.6416C18.5266 36.2479 18.2366 35.9244 17.8493 35.843C16.0453 35.4432 14.3288 34.7196 12.7826 33.7074C12.4477 33.492 12.0115 33.5183 11.7051 33.7726L8.97531 36.0335L5.99112 33.0504L8.25126 30.3223C8.50847 30.0117 8.53157 29.5691 8.30797 29.2335C7.28974 27.6949 6.56716 25.9801 6.17692 24.1765C6.09274 23.788 5.76715 23.4988 5.37125 23.4606L1.82609 23.119V18.8812L5.37125 18.5399C5.76715 18.5017 6.09274 18.2121 6.17656 17.8237C6.5782 16.019 7.30252 14.3021 8.31509 12.7552C8.5313 12.4207 8.50518 11.9845 8.25126 11.6777L5.99112 8.94935L8.97531 5.96589L11.7041 8.22604C12.0151 8.48315 12.4577 8.50598 12.7933 8.28238C14.3316 7.26378 16.046 6.54084 17.8493 6.1506C18.2359 6.07217 18.5262 5.75078 18.5651 5.35854L18.9075 1.82615H23.1457L23.4869 5.35817C23.5255 5.75224 23.8155 6.07573 24.2031 6.15708C26.0075 6.55681 27.7247 7.28049 29.2713 8.29269C29.6062 8.50854 30.0423 8.48178 30.3487 8.22741L33.0735 5.96982L36.0124 8.94543L33.7487 11.6777C33.4915 11.9884 33.4687 12.431 33.6924 12.7666C34.7103 14.3053 35.4328 16.0201 35.8231 17.8237C35.9073 18.2121 36.2332 18.5013 36.6287 18.5395L40.1739 18.8812V23.1222ZM31.8177 39.7742C29.1468 39.7756 26.6487 38.4531 25.1487 36.2429C24.2467 34.9172 23.7655 33.3501 23.7683 31.7465C23.7683 31.6131 23.7713 31.4954 23.7777 31.3784C23.9728 27.2423 27.2779 23.9314 31.4137 23.7289C31.5467 23.7224 31.6826 23.7192 31.8177 23.7192C36.2568 23.7142 39.86 27.3076 39.8672 31.7465C39.8672 36.1729 36.2564 39.7742 31.8177 39.7742ZM22.0176 30.5321C21.6883 30.5667 21.3574 30.5845 21.0264 30.5852C15.7328 30.5859 11.4409 26.2946 11.4405 21.0012C11.4398 15.7072 15.7311 11.4156 21.0247 11.4149C26.3185 11.4146 30.6101 15.7055 30.6109 20.9993V21.0001C30.6101 21.3249 30.593 21.6499 30.5598 21.973C26.0927 22.5419 22.5778 26.0639 22.0176 30.5321ZM41.1736 17.1432L37.453 16.7847C37.0464 15.2176 36.4151 13.7175 35.5787 12.3315L37.9455 9.47362C38.2444 9.1127 38.2212 8.58377 37.892 8.25024L33.7851 4.09059C33.4524 3.7535 32.9173 3.72675 32.5528 4.02887L29.6896 6.40068C28.3033 5.56717 26.8057 4.93443 25.2421 4.52146L24.8836 0.812493C24.8369 0.347115 24.4424 -0.00559368 23.9745 6.71866e-05H18.0783C17.6103 -0.00559368 17.2159 0.347115 17.1695 0.812493L16.8103 4.52675C15.2435 4.9326 13.7438 5.56288 12.3579 6.39849L9.49994 4.0307C9.13719 3.73003 8.60544 3.75459 8.27199 4.0874L4.11226 8.24594C3.77918 8.57911 3.75416 9.11087 4.05446 9.47399L6.42627 12.3372C5.59349 13.7239 4.96111 15.2211 4.54805 16.7847L0.826396 17.1432C0.358096 17.1881 0.000365217 17.5815 0 18.0519V23.9482C0.000365217 24.4186 0.358096 24.812 0.826396 24.8569L4.54705 25.2154C4.95363 26.7826 5.5849 28.2827 6.42125 29.6686L4.05446 32.5265C3.75416 32.8893 3.77918 33.4214 4.11226 33.7545L8.27199 37.9135C8.60507 38.2465 9.13719 38.2716 9.49994 37.9709L12.3635 35.5994C13.7492 36.433 15.2464 37.0657 16.81 37.4787L17.1691 41.1872C17.2155 41.653 17.6103 42.0057 18.0783 42.0001H23.9745C24.4428 42.0057 24.8372 41.6527 24.8836 41.1869L25.0984 38.9606C26.9255 40.6551 29.3255 41.597 31.8177 41.597C37.2632 41.597 41.6933 37.178 41.6933 31.7454C41.6926 29.2691 40.7581 26.8842 39.0764 25.0667L41.1772 24.8566C41.6441 24.8102 42 24.4176 42 23.9482V18.0519C41.9996 17.5815 41.6419 17.1881 41.1736 17.1432Z" fill="#083863"/>
    </g>
    <path fill-rule="evenodd" clip-rule="evenodd" d="M32.0478 26.144C31.5435 26.144 31.1347 26.5528 31.1347 27.0571V31.6094L28.9313 33.7964C28.5725 34.1506 28.5689 34.7288 28.9231 35.0876C29.2759 35.4425 29.8494 35.4442 30.2043 35.0915L30.2082 35.0876L32.6776 32.633C32.8535 32.4637 32.9552 32.2315 32.9608 31.9875V27.0571C32.9608 26.5528 32.5521 26.144 32.0478 26.144Z" fill="#083863"/>
</svg>
