<svg width="20" height="25" viewBox="0 0 20 25" fill="none" xmlns="http://www.w3.org/2000/svg">
    <path fill-rule="evenodd" clip-rule="evenodd" d="M18.7606 11.8421C18.1581 11.8421 17.6508 12.2382 17.5672 12.7776C17.0325 16.2105 13.6471 18.5553 9.99929 18.5553C6.35297 18.5553 2.96751 16.2211 2.43281 12.7776C2.34777 12.2382 1.82605 11.8421 1.23946 11.8421C0.484258 11.8421 -0.0893539 12.4487 0.0115325 13.1171C0.675942 17.0132 4.27903 20.0921 8.55806 20.6829V23.6842C8.55806 24.4092 9.20517 25 9.99929 25C10.7949 25 11.442 24.4092 11.442 23.6842V20.6829C15.7095 20.1066 19.3241 17.0132 19.9885 13.1171C20.0894 12.4487 19.5143 11.8421 18.7606 11.8421ZM9.99929 15.7895C12.3932 15.7895 14.3057 14.0263 14.3057 11.8421L14.3244 3.94737C14.3244 1.76316 12.3932 0 9.99929 0C7.60684 0 5.67559 1.76316 5.67559 3.94737V11.8421C5.67559 14.0263 7.60684 15.7895 9.99929 15.7895Z" fill="black"/>
</svg>
