<svg width="16" height="20" viewBox="0 0 16 20" fill="none" xmlns="http://www.w3.org/2000/svg">
    <path fill-rule="evenodd" clip-rule="evenodd" d="M7.99206 1.53129C6.98008 1.52729 6.0121 1.93028 5.29712 2.64827C4.58214 3.36725 4.18015 4.34422 4.18015 5.3592C4.17615 6.91016 5.10213 8.31213 6.52709 8.91011C7.94906 9.5041 9.59002 9.18011 10.683 8.08213C11.773 6.98816 12.101 5.3362 11.512 3.90224C10.922 2.46927 9.53102 1.53129 7.99206 1.53129ZM5.9651 0.406321C7.95306 -0.421659 10.246 0.0393295 11.765 1.57429C13.2889 3.10525 13.7419 5.4142 12.9139 7.41415C12.09 9.4181 10.144 10.7231 7.99205 10.7191C5.05513 10.7111 2.67618 8.31613 2.67618 5.3592L2.68418 5.12921C2.77018 3.05226 4.04715 1.2073 5.9651 0.406321ZM5.88311 12.766C7.32007 12.645 8.76604 12.645 10.203 12.766C10.988 12.821 11.769 12.934 12.5349 13.11C14.1949 13.446 15.2809 14.106 15.7339 15.074C16.0969 15.8749 16.0859 16.8009 15.7069 17.5979C15.2459 18.5669 14.1599 19.2269 12.4719 19.5709C11.711 19.7418 10.933 19.8518 10.148 19.9028C9.28502 19.9998 8.55104 19.9998 7.86706 19.9998H7.59806C7.21107 19.9568 6.91808 19.6289 6.91808 19.2389C6.91808 18.8479 7.21107 18.5199 7.59806 18.4769H8.19505C8.79303 18.4689 9.39802 18.4419 10 18.3909C10.711 18.3439 11.418 18.2419 12.117 18.0899C13.3119 17.8279 14.0659 17.4489 14.3009 16.9459C14.4839 16.5629 14.4839 16.1169 14.3009 15.7349C14.0659 15.223 13.3119 14.828 12.14 14.59C11.433 14.43 10.715 14.324 9.99201 14.281C8.64104 14.156 7.28107 14.156 5.93011 14.281C5.21512 14.328 4.50414 14.426 3.80516 14.578C2.60519 14.844 1.8632 15.223 1.62121 15.7229C1.53121 15.9139 1.48821 16.1209 1.48821 16.3319C1.48821 16.5429 1.53121 16.7539 1.62121 16.9459C2.0352 17.5199 2.66818 17.8909 3.36717 17.9769L3.46917 18.0039C3.69916 18.0819 3.87916 18.2699 3.94915 18.5119C4.03115 18.7809 3.95315 19.0779 3.75016 19.2779C3.54716 19.4769 3.25017 19.5429 2.98418 19.4529C1.8552 19.2699 0.867229 18.5939 0.281243 17.6059C-0.0937477 16.8089 -0.0937477 15.8789 0.281243 15.082C0.746232 14.086 1.82821 13.446 3.50016 13.102C4.28515 12.93 5.08213 12.821 5.88311 12.766Z" fill="#167F71"/>
</svg>
