<svg width="16" height="16" viewBox="0 0 16 16" fill="none" xmlns="http://www.w3.org/2000/svg">
    <path d="M11.3333 7.33325H4.66667C3.93029 7.33325 3.33333 7.93021 3.33333 8.66659V12.6666C3.33333 13.403 3.93029 13.9999 4.66667 13.9999H11.3333C12.0697 13.9999 12.6667 13.403 12.6667 12.6666V8.66659C12.6667 7.93021 12.0697 7.33325 11.3333 7.33325Z" stroke="#9CA3AF" stroke-linecap="round" stroke-linejoin="round"/>
    <path d="M8 11.3333C8.36819 11.3333 8.66667 11.0349 8.66667 10.6667C8.66667 10.2985 8.36819 10 8 10C7.63181 10 7.33333 10.2985 7.33333 10.6667C7.33333 11.0349 7.63181 11.3333 8 11.3333Z" stroke="#9CA3AF" stroke-linecap="round" stroke-linejoin="round"/>
    <path d="M5.33333 7.33333V4.66667C5.33333 3.95942 5.61428 3.28115 6.11438 2.78105C6.61448 2.28095 7.29275 2 8 2C8.70724 2 9.38552 2.28095 9.88562 2.78105C10.3857 3.28115 10.6667 3.95942 10.6667 4.66667V7.33333" stroke="#9CA3AF" stroke-linecap="round" stroke-linejoin="round"/>
</svg>
