<svg width="58" height="58" viewBox="0 0 58 58" fill="none" xmlns="http://www.w3.org/2000/svg">
    <path d="M29 32V42" stroke="black" stroke-width="2" stroke-linecap="round" stroke-linejoin="round"/>
    <path fill-rule="evenodd" clip-rule="evenodd" d="M4 0H54C56.211 0 58 1.789 58 4V54C58 56.211 56.211 58 54 58H4C1.789 58 0 56.211 0 54V4C0 1.789 1.789 0 4 0Z" fill="#EBEBEB"/>
    <path fill-rule="evenodd" clip-rule="evenodd" d="M58 4V12H0V4C0 1.789 1.789 0 4 0H54C56.211 0 58 1.789 58 4Z" fill="#232D4D"/>
    <path fill-rule="evenodd" clip-rule="evenodd" d="M7 6C7 6.551 6.551 7 6 7C5.449 7 5 6.551 5 6C5 5.449 5.449 5 6 5C6.551 5 7 5.449 7 6Z" fill="white"/>
    <path fill-rule="evenodd" clip-rule="evenodd" d="M12 6C12 6.551 11.551 7 11 7C10.449 7 10 6.551 10 6C10 5.449 10.449 5 11 5C11.551 5 12 5.449 12 6Z" fill="white"/>
    <path fill-rule="evenodd" clip-rule="evenodd" d="M17 6C17 6.551 16.551 7 16 7C15.449 7 15 6.551 15 6C15 5.449 15.449 5 16 5C16.551 5 17 5.449 17 6Z" fill="white"/>
    <path fill-rule="evenodd" clip-rule="evenodd" d="M52 5H42C41.449 5 41 5.449 41 6C41 6.551 41.449 7 42 7H52C52.551 7 53 6.551 53 6C53 5.449 52.551 5 52 5Z" fill="white"/>
    <path fill-rule="evenodd" clip-rule="evenodd" d="M44 36H30V31C30 30.449 29.551 30 29 30C28.449 30 28 30.449 28 31V36H14C13.449 36 13 36.449 13 37V44C13 44.551 13.449 45 14 45C14.551 45 15 44.551 15 44V38H28V44C28 44.551 28.449 45 29 45C29.551 45 30 44.551 30 44V38H43V44C43 44.551 43.449 45 44 45C44.551 45 45 44.551 45 44V37C45 36.449 44.551 36 44 36Z" fill="#CDCDCD"/>
    <path fill-rule="evenodd" clip-rule="evenodd" d="M22 17H36C37.105 17 38 17.895 38 19V31C38 32.105 37.105 33 36 33H22C20.895 33 20 32.105 20 31V19C20 17.895 20.895 17 22 17Z" fill="#1AB3FF"/>
    <path fill-rule="evenodd" clip-rule="evenodd" d="M34 30H24C23.449 30 23 29.551 23 29C23 28.449 23.449 28 24 28H34C34.551 28 35 28.449 35 29C35 29.551 34.551 30 34 30ZM34 26H24C23.449 26 23 25.551 23 25C23 24.449 23.449 24 24 24H34C34.551 24 35 24.449 35 25C35 25.551 34.551 26 34 26ZM34 22H28C27.449 22 27 21.551 27 21C27 20.449 27.449 20 28 20H34C34.551 20 35 20.449 35 21C35 21.551 34.551 22 34 22Z" fill="#0094E4"/>
    <path fill-rule="evenodd" clip-rule="evenodd" d="M25 21C25 21.551 24.551 22 24 22C23.449 22 23 21.551 23 21C23 20.449 23.449 20 24 20C24.551 20 25 20.449 25 21Z" fill="#0094E4"/>
    <path fill-rule="evenodd" clip-rule="evenodd" d="M11 42H17C18.105 42 19 42.895 19 44V50C19 51.105 18.105 52 17 52H11C9.895 52 9 51.105 9 50V44C9 42.895 9.895 42 11 42Z" fill="#1AB3FF"/>
    <path fill-rule="evenodd" clip-rule="evenodd" d="M47 52H41C39.895 52 39 51.105 39 50V44C39 42.895 39.895 42 41 42H47C48.105 42 49 42.895 49 44V50C49 51.105 48.105 52 47 52Z" fill="#1AB3FF"/>
    <path fill-rule="evenodd" clip-rule="evenodd" d="M26 42H32C33.105 42 34 42.895 34 44V50C34 51.105 33.105 52 32 52H26C24.895 52 24 51.105 24 50V44C24 42.895 24.895 42 26 42Z" fill="#1AB3FF"/>
    <path fill-rule="evenodd" clip-rule="evenodd" d="M45 46H43C42.449 46 42 46.449 42 47C42 47.551 42.449 48 43 48H45C45.551 48 46 47.551 46 47C46 46.449 45.551 46 45 46ZM30 46H28C27.449 46 27 46.449 27 47C27 47.551 27.449 48 28 48H30C30.551 48 31 47.551 31 47C31 46.449 30.551 46 30 46ZM15 46H13C12.449 46 12 46.449 12 47C12 47.551 12.449 48 13 48H15C15.551 48 16 47.551 16 47C16 46.449 15.551 46 15 46Z" fill="#0094E4"/>
</svg>
