<svg width="16" height="18" viewBox="0 0 16 18" fill="none" xmlns="http://www.w3.org/2000/svg">
    <path fill-rule="evenodd" clip-rule="evenodd" d="M9.16575 7.9452C9.16047 8.30085 8.97432 8.6328 8.66011 8.82872V10.5296C8.66011 10.8753 8.3657 11.1536 8 11.1536C7.6343 11.1536 7.33989 10.8753 7.33989 10.5296V8.82872C7.02568 8.6328 6.83953 8.30085 6.83425 7.9452C6.83425 7.33621 7.35573 6.84328 8 6.84328C8.64426 6.84328 9.16575 7.33621 9.16575 7.9452ZM14.473 10.3C14.0651 12.9469 10.9137 15.2817 9.0773 16.4423C8.42247 16.8566 7.57753 16.8566 6.9227 16.4423C5.08628 15.2817 1.93492 12.9469 1.53358 10.3736L1.32102 4.22764C1.31178 3.94811 1.49661 3.69977 1.78046 3.61242C3.81755 3.05085 5.78203 2.29087 7.64882 1.33995C7.86534 1.20892 8.13466 1.20892 8.35118 1.33995C10.218 2.29087 12.1877 3.05085 14.2248 3.61242C14.5034 3.69977 14.6895 3.94811 14.679 4.22764L14.473 10.3ZM14.6169 2.4219C12.6828 1.89153 10.816 1.17024 9.03637 0.277974C8.40267 -0.0926581 7.59733 -0.0926581 6.96363 0.277974C5.18398 1.17024 3.31719 1.89153 1.38307 2.4219C0.538134 2.67648 -0.0242779 3.43147 0.000806248 4.27007L0.217322 10.481C0.708442 13.6058 4.16873 16.2089 6.19526 17.4806C7.2884 18.1731 8.7116 18.1731 9.80474 17.4806C11.8326 16.2089 15.2929 13.6058 15.788 10.4123L15.9992 4.27007C16.0243 3.43147 15.4632 2.67648 14.6169 2.4219Z" fill="#202244"/>
</svg>
