<svg width="12" height="12" viewBox="0 0 12 12" fill="none" xmlns="http://www.w3.org/2000/svg">
    <path fill-rule="evenodd" clip-rule="evenodd" d="M6.58811 0.372793L7.92429 3.05655C8.02269 3.25095 8.20989 3.38715 8.42769 3.41955L11.4258 3.85574C11.601 3.88154 11.7606 3.97274 11.8662 4.11314C11.9742 4.25413 12.0186 4.42993 11.9928 4.60333C11.9718 4.74613 11.9034 4.87992 11.8008 4.98072L9.62767 7.08549C9.46867 7.23549 9.39607 7.45088 9.43327 7.66388L9.97026 10.6266C10.0285 10.9806 9.79206 11.3154 9.43327 11.388C9.28807 11.4114 9.13807 11.388 9.00668 11.3202L6.33012 9.92585C6.13092 9.82505 5.89692 9.82505 5.70013 9.92585L3.02357 11.3202C2.69237 11.496 2.28078 11.3742 2.10198 11.0508C2.03478 10.9218 2.01138 10.7742 2.03238 10.6314L2.56817 7.66868C2.60657 7.45808 2.53398 7.23969 2.37438 7.08969L0.201211 4.98732C0.075213 4.86312 0.00201413 4.69453 0.00201413 4.51873C0.00201413 4.34293 0.075213 4.17433 0.201211 4.05014C0.30441 3.94694 0.440007 3.87914 0.588205 3.86054L3.58636 3.42435C3.80356 3.39135 3.99075 3.25815 4.08735 3.06135L5.37853 0.372793C5.49073 0.145396 5.72773 0.000198289 5.98812 0.00499822H6.06792C6.29292 0.0331978 6.48972 0.171196 6.58811 0.372793Z" fill="#FCCB40"/>
    <path fill-rule="evenodd" clip-rule="evenodd" d="M6.00456 9.84616C5.88696 9.84616 5.77716 9.88576 5.67156 9.93736L3.0046 11.3275C2.68361 11.4889 2.27802 11.3599 2.10222 11.0509C2.03442 10.9243 2.00862 10.7791 2.03202 10.6357L2.56841 7.68079C2.60381 7.4648 2.53121 7.2494 2.37401 7.097L0.196647 4.99223C-0.065549 4.73484 -0.065549 4.31484 0.196647 4.05505C0.299845 3.95425 0.433643 3.88825 0.576441 3.86725L3.586 3.42446C3.81519 3.39146 3.98199 3.26306 4.08699 3.06146L5.39497 0.342305C5.49337 0.122108 5.82876 -0.0302896 6.00936 0.00510985C6.00456 0.185707 6.00456 9.72676 6.00456 9.84616Z" fill="#FAC025"/>
</svg>
