<svg width="4" height="5" viewBox="0 0 4 5" fill="none" xmlns="http://www.w3.org/2000/svg">
    <path d="M1.7093 5.00005C2.80622 5.00005 3.5532 4.27326 3.5532 3.20999C3.5532 2.24094 2.90043 1.57471 1.91792 1.57471C1.58144 1.57471 1.28534 1.6622 1.04981 1.81698L1.31226 0.794086H3.2571V0H0.693143L0.0874841 2.57742L0.847923 2.73892C1.02289 2.4832 1.3661 2.29477 1.74295 2.29477C2.33515 2.29477 2.67836 2.68509 2.67836 3.2571C2.67836 3.85603 2.30823 4.23288 1.72949 4.23288C1.1844 4.23288 0.854652 3.90314 0.854652 3.34458H0C0 4.34056 0.679684 5.00005 1.7093 5.00005Z" fill="white"/>
</svg>
