<svg width="360" height="180" viewBox="0 0 360 180" fill="none" xmlns="http://www.w3.org/2000/svg">
    <rect width="360" height="180" rx="20" fill="#0961F5"/>
    <path fill-rule="evenodd" clip-rule="evenodd" d="M0 106.5C0 106.5 14 60 27 60C40 60 39 80 58 80C77 80 76 35.5 90.5 34C105 32.5 102.5 46.5 119 46.5C135.5 46.5 135.253 32.5801 161 21C186.747 9.41987 216.5 0 216.5 0H20C8.9543 0 0 8.95431 0 20L0 106.5Z" fill="#2E78F4"/>
    <path fill-rule="evenodd" clip-rule="evenodd" d="M360 32.5C360 32.5 344.42 89.3186 332.5 101C320.58 112.681 295.619 94.982 286.5 105C277.381 115.018 276.5 140.5 268.5 146C260.5 151.5 146 180 146 180H340C351.046 180 360 171.046 360 160V32.5Z" fill="#2E78F4"/>
</svg>
