<svg width="33" height="28" viewBox="0 0 33 28" fill="none" xmlns="http://www.w3.org/2000/svg">
    <path fill-rule="evenodd" clip-rule="evenodd" d="M29.7223 8.75579C29.7223 8.26854 29.3268 7.87309 28.8396 7.87309H4.16046C3.67321 7.87309 3.27776 8.26854 3.27776 8.75579C3.27776 9.24304 3.67321 9.63849 4.16046 9.63849H28.8396C29.0738 9.63849 29.2991 9.54669 29.4651 9.37839C29.6305 9.21303 29.7223 8.98941 29.7223 8.75579ZM19.4359 12.7691C19.4376 12.5349 19.3435 12.3095 19.1781 12.1442C19.0128 11.9782 18.7874 11.8864 18.5532 11.8864H4.16046C3.67321 11.8864 3.27776 12.2819 3.27776 12.7691C3.27776 13.2558 3.67321 13.6518 4.16046 13.6518H18.5532C18.7874 13.6518 19.0128 13.5577 19.1781 13.3923C19.3435 13.2264 19.4376 13.0039 19.4359 12.7691ZM18.2313 16.7754C18.2313 16.5412 18.1371 16.3158 17.9712 16.1505C17.8058 15.9851 17.5828 15.8927 17.3486 15.8927H4.16046C3.67321 15.8927 3.27776 16.2882 3.27776 16.7754C3.27776 17.2632 3.67321 17.6581 4.16046 17.6581H17.3486C17.5828 17.6581 17.8058 17.5663 17.9712 17.4009C18.1371 17.2356 18.2313 17.0102 18.2313 16.7754ZM10.234 4.74657C10.2317 4.98137 10.3258 5.20675 10.4912 5.37211C10.6565 5.53747 10.8819 5.63162 11.1167 5.62927H21.8839C22.3711 5.62927 22.7666 5.23617 22.7666 4.74657C22.7666 4.25932 22.3711 3.86387 21.8839 3.86387H11.1167C10.8819 3.86387 10.6565 3.95802 10.4912 4.12397C10.3258 4.28933 10.2317 4.51471 10.234 4.74657ZM33 0.588466V23.1544C33 23.481 32.7381 23.7428 32.4115 23.7428H29.9523V21.9204C30.9039 20.8811 31.43 19.5247 31.43 18.1183C31.4347 15.5826 29.7587 13.3529 27.3225 12.6567C24.888 11.9576 22.2834 12.9616 20.9482 15.1136C19.6124 17.2674 19.8678 20.0467 21.5732 21.9204V23.7428H0.588466C0.261867 23.7428 0 23.481 0 23.1544V0.588466C0 0.261867 0.261867 0 0.588466 0H32.4115C32.7381 0 33 0.261867 33 0.588466ZM23.3345 23.2303V27.3154C23.3345 27.5243 23.4445 27.7173 23.624 27.8233C23.8052 27.9292 24.0259 27.931 24.2101 27.8303L25.3364 27.2071C25.6006 27.06 25.9249 27.06 26.1915 27.2071L27.3154 27.8303C27.4996 27.931 27.7203 27.9292 27.8992 27.8233C28.0787 27.7173 28.1893 27.5243 28.1893 27.3154V23.2303C26.6558 23.9706 24.8698 23.9706 23.3345 23.2303ZM29.6646 18.1183C29.6646 20.2721 27.918 22.021 25.7619 22.021C23.6075 22.021 21.8586 20.2721 21.8586 18.1183C21.8586 15.9621 23.6075 14.2126 25.7619 14.2126C27.918 14.215 29.6646 15.9621 29.6646 18.1183Z" fill="#167F71"/>
</svg>
