<svg width="23" height="14" viewBox="0 0 23 14" fill="none" xmlns="http://www.w3.org/2000/svg">
    <path fill-rule="evenodd" clip-rule="evenodd" d="M7 8.4H10.9592C10.3628 10.0786 8.778 11.2 7 11.2C4.6872 11.2 2.8 9.3128 2.8 7C2.8 4.6872 4.6872 2.8 7 2.8C8.0066 2.8 8.9684 3.1612 9.7174 3.8122L11.5612 1.701C10.297 0.602 8.673 0 7 0C3.1388 0 0 3.1388 0 7C0 10.8612 3.1388 14 7 14C10.8612 14 14 10.8612 14 7V5.6H7V8.4ZM22.4 5.6H19.6V2.8H18.2V5.6H15.4V7H18.2V9.8H19.6V7H22.4V5.6Z" fill="#DB4A39"/>
</svg>
