<svg width="54" height="54" viewBox="0 0 54 54" fill="none" xmlns="http://www.w3.org/2000/svg">
    <path fill-rule="evenodd" clip-rule="evenodd" d="M13.9565 28.7112V41.1417C15.0683 41.5344 15.8136 42.5839 15.8173 43.7655V45.6264C15.8173 46.1391 15.3996 46.5568 14.8869 46.5568H5.58261C5.06995 46.5568 4.65218 46.1391 4.65218 45.6264V43.7655C4.65591 42.5839 5.40118 41.5344 6.51304 41.1417V28.7112C5.40118 28.3186 4.65591 27.269 4.65218 26.0874V24.2265C4.65218 23.7139 5.06995 23.2961 5.58261 23.2961H14.8869C15.3996 23.2961 15.8173 23.7139 15.8173 24.2265V26.0874C15.8136 27.269 15.0683 28.3186 13.9565 28.7112Z" fill="#96A1C3"/>
    <path fill-rule="evenodd" clip-rule="evenodd" d="M13.9564 28.7112V41.1417C15.0682 41.5344 15.8135 42.5839 15.8172 43.7655V45.6264C15.8172 46.1391 15.3995 46.5568 14.8868 46.5568H8.3738C8.37008 46.5317 8.37008 46.5056 8.3738 46.4842V44.4745C8.37752 43.2529 9.10791 42.1522 10.2347 41.6832V28.2171C9.09302 27.7408 8.35519 26.6177 8.3738 25.3784V23.3687C8.37008 23.3473 8.37008 23.3212 8.3738 23.2961H14.8868C15.3995 23.2961 15.8172 23.7139 15.8172 24.2265V26.0874C15.8135 27.269 15.0682 28.3186 13.9564 28.7112Z" fill="#CCD3EB"/>
    <path fill-rule="evenodd" clip-rule="evenodd" d="M30.7042 28.7112V41.1417C31.816 41.5344 32.5613 42.5839 32.565 43.7655V45.6264C32.565 46.1391 32.1473 46.5568 31.6346 46.5568H22.3303C21.8177 46.5568 21.3999 46.1391 21.3999 45.6264V43.7655C21.4036 42.5839 22.1489 41.5344 23.2608 41.1417V28.7112C22.1489 28.3186 21.4036 27.269 21.3999 26.0874V24.2265C21.3999 23.7139 21.8177 23.2961 22.3303 23.2961H31.6346C32.1473 23.2961 32.565 23.7139 32.565 24.2265V26.0874C32.5613 27.269 31.816 28.3186 30.7042 28.7112Z" fill="#96A1C3"/>
    <path fill-rule="evenodd" clip-rule="evenodd" d="M30.7041 28.7112V41.1417C31.8159 41.5344 32.5612 42.5839 32.5649 43.7655V45.6264C32.5649 46.1391 32.1472 46.5568 31.6345 46.5568H25.1215C25.1178 46.5317 25.1178 46.5056 25.1215 46.4842V44.4745C25.1252 43.2529 25.8556 42.1522 26.9824 41.6832V28.2171C25.8407 27.7408 25.1029 26.6177 25.1215 25.3784V23.3687C25.1178 23.3473 25.1178 23.3212 25.1215 23.2961H31.6345C32.1472 23.2961 32.5649 23.7139 32.5649 24.2265V26.0874C32.5612 27.269 31.8159 28.3186 30.7041 28.7112Z" fill="#CCD3EB"/>
    <path fill-rule="evenodd" clip-rule="evenodd" d="M47.4519 28.7112V41.1417C48.5638 41.5344 49.309 42.5839 49.3128 43.7655V45.6264C49.3128 46.1391 48.895 46.5568 48.3823 46.5568H39.078C38.5654 46.5568 38.1476 46.1391 38.1476 45.6264V43.7655C38.1513 42.5839 38.8966 41.5344 40.0085 41.1417V28.7112C38.8966 28.3186 38.1513 27.269 38.1476 26.0874V24.2265C38.1476 23.7139 38.5654 23.2961 39.078 23.2961H48.3823C48.895 23.2961 49.3128 23.7139 49.3128 24.2265V26.0874C49.309 27.269 48.5638 28.3186 47.4519 28.7112Z" fill="#96A1C3"/>
    <path fill-rule="evenodd" clip-rule="evenodd" d="M50.2431 17.7132C50.2431 18.2258 49.8254 18.6436 49.3127 18.6436H4.65212C4.25948 18.6436 3.91057 18.3961 3.77659 18.0295C3.64539 17.6583 3.7617 17.2442 4.06688 16.9967L4.31809 16.7827L13.2037 9.51702L23.0932 1.4195C23.5007 1.08547 23.9511 0.809135 24.4349 0.595137C24.7475 0.442547 25.0778 0.322521 25.4193 0.238783C26.4446 -0.0338328 27.5202 -0.0338328 28.5455 0.238783C28.7781 0.292748 29.007 0.369043 29.2247 0.463946L29.5299 0.595137C29.9049 0.761684 30.2603 0.969169 30.5915 1.20922L30.8716 1.4195L39.2455 8.27768L42.113 10.6224L42.7997 11.2002L45.6747 13.5551L48.466 15.8337L49.6104 16.7641L49.8616 16.9791C50.098 17.1503 50.2394 17.4229 50.2431 17.7132ZM47.4518 28.7108V41.1423C48.5637 41.5349 49.309 42.5835 49.3127 43.7652V45.626C49.3127 46.1396 48.8949 46.5564 48.3823 46.5564H41.8693C41.8655 46.5323 41.8655 46.5053 41.8693 46.4839V44.4751C41.873 43.2525 42.6034 42.1527 43.7301 41.6838V28.2168C42.5885 27.7404 41.8507 26.6174 41.8693 25.378V23.3683C41.8655 23.3469 41.8655 23.3209 41.8693 23.2957H48.3823C48.8949 23.2957 49.3127 23.7135 49.3127 24.2262V26.087C49.309 27.2696 48.5637 28.3182 47.4518 28.7108Z" fill="#CCD3EB"/>
    <path fill-rule="evenodd" clip-rule="evenodd" d="M48.5022 15.8522H13.0259C12.6332 15.8522 12.2843 15.6048 12.1503 15.2382C12.0191 14.8669 12.1354 14.4529 12.4406 14.2054L12.6918 13.9914L21.5774 6.72568L29.2246 0.463893L29.5298 0.595083C29.9048 0.76163 30.2611 0.969115 30.5914 1.20917L30.8715 1.41944L39.2453 8.27763L42.1129 10.6223L42.7996 11.2001L45.6746 13.555L48.5022 15.8522Z" fill="#F5F7FF"/>
    <path fill-rule="evenodd" clip-rule="evenodd" d="M3.72167 16.7831H50.2431C51.7839 16.7831 53.0344 18.0336 53.0344 19.5744V22.3657C53.0344 23.9065 51.7839 25.157 50.2431 25.157H3.72167C2.18088 25.157 0.930387 23.9065 0.930387 22.3657V19.5744C0.930387 18.0336 2.18088 16.7831 3.72167 16.7831Z" fill="#CCD3EB"/>
    <path fill-rule="evenodd" clip-rule="evenodd" d="M27.3349 8.40938H26.4045C26.1495 8.40938 25.9393 8.20189 25.9393 7.94416C25.9393 7.68643 26.1495 7.47895 26.4045 7.47895H28.8431C29.3558 7.47895 29.7736 7.06118 29.7736 6.54852C29.7736 6.03585 29.3558 5.61809 28.8431 5.61809H27.9127V4.68766C27.9127 4.175 27.4949 3.75723 26.9823 3.75723C26.4696 3.75723 26.0518 4.175 26.0518 4.68766V5.61809C24.7688 5.71578 23.8058 6.83602 23.9035 8.12187C24.0021 9.40493 25.1214 10.3679 26.4045 10.2702H27.3349C27.5926 10.2702 27.8001 10.4777 27.8001 10.7354C27.8001 10.9932 27.5926 11.2007 27.3349 11.2007H25.1214C24.6088 11.2007 24.191 11.6184 24.191 12.1311C24.191 12.6438 24.6088 13.0615 25.1214 13.0615H26.0518V13.9919C26.0518 14.5046 26.4696 14.9224 26.9823 14.9224C27.4949 14.9224 27.9127 14.5046 27.9127 13.9919V12.9778C29.0581 12.7014 29.8136 11.6082 29.6684 10.4377C29.5196 9.26723 28.5166 8.39077 27.3349 8.40938Z" fill="#F5F7FF"/>
    <path fill-rule="evenodd" clip-rule="evenodd" d="M49.3127 44.6956H4.65214C2.0823 44.6956 0 46.7779 0 49.3478V53.0695C0 53.5831 0.417762 53.9999 0.930429 53.9999H53.0344C53.5471 53.9999 53.9649 53.5831 53.9649 53.0695V49.3478C53.9649 46.7779 51.8826 44.6956 49.3127 44.6956Z" fill="#96A1C3"/>
    <path fill-rule="evenodd" clip-rule="evenodd" d="M42.9669 12.5236C42.7929 12.7376 42.5305 12.865 42.2505 12.865C42.0365 12.8687 41.8253 12.7925 41.6662 12.651L40.9386 12.0583C40.6008 11.7169 40.5757 11.1791 40.8771 10.8116C41.1786 10.4413 41.7127 10.3612 42.1128 10.6227L42.7994 11.2005C42.9995 11.3531 43.1306 11.5782 43.1632 11.8257C43.1921 12.0732 43.1232 12.3272 42.9669 12.5236Z" fill="#033C59"/>
    <path fill-rule="evenodd" clip-rule="evenodd" d="M26.4045 7.47845H28.8431C29.3558 7.47845 29.7736 7.06069 29.7736 6.54802C29.7736 6.03536 29.3558 5.61759 28.8431 5.61759H27.9127V4.68717C27.9127 4.1745 27.4949 3.75674 26.9823 3.75674C26.4696 3.75674 26.0518 4.1745 26.0518 4.68717V5.61759C24.7688 5.71529 23.8058 6.83552 23.9035 8.12138C24.0021 9.40444 25.1214 10.3674 26.4045 10.2697H27.3349C27.5926 10.2697 27.8001 10.4772 27.8001 10.735C27.8001 10.9927 27.5926 11.2002 27.3349 11.2002H25.1214C24.6088 11.2002 24.191 11.6179 24.191 12.1306C24.191 12.6433 24.6088 13.061 25.1214 13.061H26.0518V13.9915C26.0518 14.5041 26.4696 14.9219 26.9823 14.9219C27.4949 14.9219 27.9127 14.5041 27.9127 13.9915V12.9782C29.0581 12.7009 29.8136 11.6077 29.6684 10.4372C29.5196 9.26673 28.5166 8.39027 27.3349 8.40888H26.4045C26.1495 8.40888 25.9393 8.20139 25.9393 7.94367C25.9393 7.68594 26.1495 7.47845 26.4045 7.47845Z" fill="#0074FF"/>
    <mask id="mask0_0_989" style="mask-type:luminance" maskUnits="userSpaceOnUse" x="0" y="0" width="54" height="54">
        <path fill-rule="evenodd" clip-rule="evenodd" d="M0 0H53.9649V54H0V0Z" fill="white"/>
    </mask>
    <g mask="url(#mask0_0_989)">
        <path fill-rule="evenodd" clip-rule="evenodd" d="M52.104 52.1392H1.86086V49.3479C1.86086 47.808 3.11135 46.5566 4.65214 46.5566H49.3127C50.8535 46.5566 52.104 47.808 52.104 49.3479V52.1392ZM6.513 43.7653C6.513 43.2527 6.93076 42.8349 7.44343 42.8349H13.026C13.5387 42.8349 13.9564 43.2527 13.9564 43.7653V44.6958H6.513V43.7653ZM3.72171 23.2959C3.20905 23.2959 2.79129 22.8781 2.79129 22.3655V19.5742C2.79129 19.0615 3.20905 18.6438 3.72171 18.6438H50.2431C50.7558 18.6438 51.1736 19.0615 51.1736 19.5742V22.3655C51.1736 22.8781 50.7558 23.2959 50.2431 23.2959H3.72171ZM41.8693 40.974H45.591V28.8785H41.8693V40.974ZM40.0084 43.7653C40.0084 43.2527 40.4262 42.8349 40.9389 42.8349H46.5214C47.0341 42.8349 47.4519 43.2527 47.4519 43.7653V44.6958H40.0084V43.7653ZM29.7737 27.0176H24.1911C23.6785 27.0176 23.2607 26.6008 23.2607 26.0872V25.1568H30.7041V26.0872C30.7041 26.6008 30.2864 27.0176 29.7737 27.0176ZM25.1216 40.974H28.8433V28.8785H25.1216V40.974ZM23.2607 43.7653C23.2607 43.2527 23.6785 42.8349 24.1911 42.8349H29.7737C30.2864 42.8349 30.7041 43.2527 30.7041 43.7653V44.6958H23.2607V43.7653ZM8.37386 40.974H12.0956V28.8785H8.37386V40.974ZM7.44343 27.0176C6.93076 27.0176 6.513 26.6008 6.513 26.0872V25.1568H13.9564V26.0872C13.9564 26.6008 13.5387 27.0176 13.026 27.0176H7.44343ZM13.9564 41.1425V28.711C15.0683 28.3184 15.8136 27.2688 15.8173 26.0872V25.1568H21.3999V26.0872C21.4036 27.2688 22.1489 28.3184 23.2607 28.711V41.1425C22.1489 41.5351 21.4036 42.5837 21.3999 43.7653V44.6958H15.8173V43.7653C15.8136 42.5837 15.0683 41.5351 13.9564 41.1425ZM30.7041 41.1425V28.711C31.816 28.3184 32.5613 27.2688 32.565 26.0872V25.1568H38.1476V26.0872C38.1513 27.2688 38.8966 28.3184 40.0084 28.711V41.1425C38.8966 41.5351 38.1513 42.5837 38.1476 43.7653V44.6958H32.565V43.7653C32.5613 42.5837 31.816 41.5351 30.7041 41.1425ZM47.4519 26.0872C47.4519 26.6008 47.0341 27.0176 46.5214 27.0176H40.9389C40.4262 27.0176 40.0084 26.6008 40.0084 26.0872V25.1568H47.4519V26.0872ZM49.3127 44.6958V43.7653C49.309 42.5837 48.5637 41.5351 47.4519 41.1425V28.711C48.5637 28.3184 49.309 27.2688 49.3127 26.0872V25.1568H50.2431C51.7839 25.1568 53.0344 23.9063 53.0344 22.3655V19.5742C53.0344 18.0334 51.7839 16.7829 50.2431 16.7829H49.6467L45.711 13.5739C45.4598 13.3226 45.0895 13.2361 44.7555 13.3487C44.4168 13.465 44.1767 13.759 44.1302 14.1116C44.0865 14.4643 44.2428 14.8095 44.5405 15.0058L46.7066 16.7829H7.25827L24.2637 2.82648C25.6445 1.7509 27.5314 1.58715 29.0759 2.40872C29.2936 2.52874 29.5048 2.67017 29.7011 2.82648L38.075 9.6735C38.4714 9.93961 39.0054 9.85587 39.3069 9.48928C39.6083 9.11804 39.5832 8.58025 39.2455 8.24157L30.8716 1.39455C30.7804 1.31826 30.6827 1.24568 30.5841 1.17962C30.2575 0.933058 29.9049 0.721851 29.5299 0.555304C27.4002 -0.418854 24.9038 -0.0959957 23.0932 1.39455L13.2037 9.51719L4.31812 16.7829H3.72171C2.18092 16.7829 0.930429 18.0334 0.930429 19.5742V22.3655C0.930429 23.9063 2.18092 25.1568 3.72171 25.1568H4.65214V26.0872C4.65586 27.2688 5.40114 28.3184 6.513 28.711V41.1425C5.40114 41.5351 4.65586 42.5837 4.65214 43.7653V44.6958C2.0823 44.6958 0 46.7781 0 49.3479V53.0696C0 53.5832 0.417762 54 0.930429 54H53.0344C53.5471 54 53.9649 53.5832 53.9649 53.0696V49.3479C53.9649 46.7781 51.8826 44.6958 49.3127 44.6958Z" fill="#033C59"/>
    </g>
</svg>
