<svg width="59" height="117" viewBox="0 0 59 117" fill="none" xmlns="http://www.w3.org/2000/svg">
    <path fill-rule="evenodd" clip-rule="evenodd" d="M48.7953 51.5391C46.9804 51.5391 45.5485 50.1177 45.5485 48.2943V45.0558H13.0022V48.2943C13.0022 50.1177 11.5828 51.5391 9.75949 51.5391H0V80.2419C0 97.4895 11.7022 112.585 28.4913 116.812L29.268 117L30.0384 116.812C46.8338 112.585 58.5339 97.4728 58.5339 80.2419V51.5391H48.7953Z" fill="#F5F5F5"/>
    <path fill-rule="evenodd" clip-rule="evenodd" d="M58.5508 51.5391V80.2418C58.5508 97.4895 46.8486 112.585 30.0615 116.812L29.287 117V45.0306H45.5486V48.2775C45.5486 50.1009 46.9805 51.5244 48.7955 51.5244H58.5508V51.5391Z" fill="#E7E7F2"/>
    <path fill-rule="evenodd" clip-rule="evenodd" d="M48.7954 58.0494C44.5688 58.0494 40.9283 55.3092 39.6283 51.5389H18.9475C17.5826 55.4327 13.9045 58.0494 9.77206 58.0494H6.53565V80.2584C6.53565 94.2508 15.8241 106.558 29.3078 110.343C42.7684 106.573 52.082 94.2508 52.082 80.2584V58.0494H48.7954Z" fill="#26BFA6"/>
    <path fill-rule="evenodd" clip-rule="evenodd" d="M52.0415 58.0494V80.2584C52.0415 94.2508 42.7447 106.558 29.2694 110.343V51.5389H39.6045C40.9066 55.3092 44.5534 58.0494 48.7779 58.0494H52.0415Z" fill="#26BFA6"/>
    <path fill-rule="evenodd" clip-rule="evenodd" d="M50.05 13.5255L36.3779 11.5138L30.2694 0L24.1524 11.5138L10.4908 13.5255L20.3654 23.1594L18.0187 36.6766L30.2443 30.2896L42.4698 36.6766L40.1314 23.1594L50.05 13.5255Z" fill="#FFB62A"/>
    <path fill-rule="evenodd" clip-rule="evenodd" d="M41.3046 76.8093L29.2674 88.9093L26.0226 92.1582L17.2303 83.301L21.7961 78.7395L26.0226 82.8991L29.2674 79.6522L36.7409 72.2436L41.3046 76.8093Z" fill="#F5F5F5"/>
    <path fill-rule="evenodd" clip-rule="evenodd" d="M42.4961 36.6768L30.2706 30.2898V0.000244433L36.3771 11.514L50.0491 13.5258L40.1724 23.1597L42.4961 36.6768Z" fill="#FFB62A"/>
    <path fill-rule="evenodd" clip-rule="evenodd" d="M41.3045 76.8093L29.2674 88.9092V79.6793L36.7409 72.2707L41.3045 76.8093Z" fill="#E7E7F2"/>
</svg>
