<svg width="21" height="21" viewBox="0 0 21 21" fill="none" xmlns="http://www.w3.org/2000/svg">
    <path fill-rule="evenodd" clip-rule="evenodd" d="M15.5597 16.2834C15.4241 16.2824 15.2933 16.2281 15.1968 16.1326L13.723 14.6549C13.5372 14.4518 13.5441 14.1392 13.7382 13.9441C13.9322 13.749 14.2459 13.7421 14.449 13.9271L15.5597 15.0409L17.8326 12.7639C17.9602 12.6231 18.1543 12.565 18.3383 12.6121C18.5223 12.6584 18.6648 12.8022 18.7112 12.9852C18.7575 13.169 18.6991 13.364 18.5583 13.4906L15.9236 16.1326C15.8271 16.2291 15.6963 16.2834 15.5597 16.2834ZM12.0049 16.3418C11.5597 16.5559 11.0934 16.7216 10.6127 16.8362C10.5314 16.8565 10.4469 16.8565 10.3667 16.8362C7.36572 16.1056 5.4809 13.8355 4.59743 9.89781C4.53592 9.62141 4.71092 9.34708 4.98705 9.2866C5.2637 9.22536 5.53829 9.40035 5.59825 9.677C6.72338 14.6901 9.4366 15.5445 10.4879 15.8068C10.8893 15.7113 11.2782 15.5736 11.6503 15.3948C11.7306 15.7234 11.8503 16.0412 12.0049 16.3418ZM19.0781 10.7061C18.3282 10.0852 17.4002 9.71689 16.4282 9.6559C16.5832 8.93069 16.6966 8.19725 16.7669 7.4584C16.7841 7.31738 16.7388 7.17661 16.6434 7.07238C16.5528 6.96352 16.4203 6.89816 16.2785 6.89198C14.0658 6.79959 12.1025 5.87777 10.8901 4.35993C10.7897 4.24233 10.6438 4.1749 10.4892 4.1749C10.3353 4.1749 10.1886 4.24233 10.089 4.35993C8.87687 5.87777 6.91433 6.79959 4.69985 6.89198C4.41548 6.90305 4.19416 7.14238 4.20626 7.42701C4.21733 7.71138 4.45666 7.93244 4.74103 7.92137C7.02705 7.82899 9.08687 6.9383 10.4892 5.46164C11.8755 6.86599 13.7209 7.7245 15.6873 7.8802C15.613 8.49449 15.5074 9.10466 15.3698 9.70788C13.144 10.0898 11.5175 12.0202 11.5165 14.2779C11.5165 14.6539 11.5608 15.0288 11.6503 15.3948C11.7316 15.7234 11.8503 16.0412 12.0049 16.3418C12.4483 17.2353 13.1692 17.9613 14.0599 18.4106C12.9592 19.0699 11.7496 19.5265 10.4892 19.7596C4.14501 18.5141 1.03161 12.9911 1.24264 3.34084C1.24573 3.28731 1.27893 3.23996 1.32731 3.21885C1.37543 3.19672 1.43282 3.2047 1.474 3.2379C2.32041 3.80123 3.31867 4.09255 4.33493 4.07145C6.25192 4.07145 7.81788 3.17562 8.33181 1.79134C8.4314 1.47403 8.7186 1.25143 9.05161 1.23547H11.9336C12.2643 1.25349 12.549 1.47506 12.6475 1.79134C12.926 2.50214 13.4487 3.08915 14.1221 3.44918C14.8942 3.87149 15.7638 4.08534 16.6434 4.07145C17.6607 4.09255 18.6589 3.80123 19.5053 3.2379C19.5295 3.21782 19.5607 3.20676 19.5928 3.20676C19.6693 3.2047 19.7326 3.26415 19.7364 3.34084C19.8281 5.81344 19.607 8.28835 19.0781 10.7061ZM16.4694 17.8607C16.3598 17.8748 16.2504 17.8818 16.1397 17.8807C15.7717 17.8828 15.4058 17.8254 15.0561 17.7109C14.1041 17.4124 13.321 16.7268 12.8987 15.822C12.7409 15.5054 12.6365 15.1644 12.5901 14.8137C12.559 14.6369 12.5428 14.4578 12.5438 14.2779C12.5449 12.7047 13.5652 11.3132 15.0651 10.84H15.0712C15.4158 10.7303 15.7769 10.675 16.1387 10.675H16.1861C17.1712 10.6881 18.1069 11.1073 18.7745 11.8331C19.0861 12.1648 19.3285 12.5549 19.4884 12.9811C19.652 13.3941 19.7357 13.8334 19.7357 14.2779C19.7357 16.1367 18.3203 17.6898 16.4694 17.8607ZM20.764 3.31433C20.7509 2.67894 20.2282 2.1717 19.5918 2.17737C19.3476 2.17839 19.1083 2.25586 18.9093 2.39868C18.2356 2.83618 17.4466 3.06007 16.6444 3.04205C15.5195 3.03691 14.0498 2.61975 13.6136 1.43646C13.3691 0.713055 12.6977 0.220491 11.9336 0.206079H9.05161C8.28677 0.220491 7.61303 0.711768 7.36675 1.43646C6.92952 2.61975 5.46083 3.04205 4.33596 3.04205C3.53381 3.05904 2.74452 2.83489 2.07104 2.39868C1.87211 2.25586 1.63278 2.17839 1.38856 2.17737C0.752135 2.1717 0.229461 2.67894 0.216336 3.31433C-0.00987288 13.5933 3.41723 19.4712 10.3988 20.789C10.4289 20.7929 10.4601 20.7949 10.4912 20.7939C10.5234 20.7949 10.5566 20.7929 10.5887 20.789C12.2875 20.4944 13.9 19.826 15.3093 18.8327C15.5839 18.8849 15.8623 18.9101 16.1418 18.9101C18.6962 18.9042 20.764 16.8323 20.7651 14.2779C20.7669 13.3229 20.4704 12.391 19.9176 11.612C20.5538 9.27451 20.8353 6.5093 20.764 3.31433Z" fill="#202244"/>
    <path d="M15.1968 16.1326L15.051 16.278L15.052 16.2789L15.1968 16.1326ZM13.723 14.6549L13.571 14.794L13.5772 14.8003L13.723 14.6549ZM14.449 13.9271L14.5949 13.7816L14.5876 13.7749L14.449 13.9271ZM15.5597 15.0409L15.4139 15.1863L15.5596 15.3324L15.7054 15.1864L15.5597 15.0409ZM17.8326 12.7639L17.9785 12.9095L17.9851 12.9022L17.8326 12.7639ZM18.3383 12.6121L18.2872 12.8115L18.288 12.8117L18.3383 12.6121ZM18.7112 12.9852L18.9108 12.9349L18.9107 12.9347L18.7112 12.9852ZM18.5583 13.4906L18.4204 13.3373L18.4125 13.3453L18.5583 13.4906ZM15.9236 16.1326L16.0692 16.2782L16.0693 16.278L15.9236 16.1326ZM10.6127 16.8362L10.565 16.6359L10.5627 16.6364L10.6127 16.8362ZM10.3667 16.8362L10.4172 16.6366L10.4154 16.6361L10.3667 16.8362ZM4.59743 9.89781L4.39647 9.94253L4.39654 9.94288L4.59743 9.89781ZM4.98705 9.2866L5.0311 9.48772L5.03156 9.48761L4.98705 9.2866ZM5.59825 9.677L5.39704 9.72061L5.39737 9.72209L5.59825 9.677ZM10.4879 15.8068L10.438 16.0065L10.4867 16.0187L10.5355 16.0071L10.4879 15.8068ZM11.6503 15.3948L11.8503 15.3459L11.79 15.0992L11.5611 15.2092L11.6503 15.3948ZM16.4282 9.6559L16.2269 9.61289L16.177 9.84642L16.4153 9.86137L16.4282 9.6559ZM16.7669 7.4584L16.5625 7.43341L16.5619 7.43891L16.7669 7.4584ZM16.6434 7.07238L16.4849 7.20422L16.4916 7.21145L16.6434 7.07238ZM16.2785 6.89198L16.2874 6.6863L16.287 6.68628L16.2785 6.89198ZM10.8901 4.35993L11.051 4.23138L11.0467 4.22629L10.8901 4.35993ZM10.089 4.35993L9.9318 4.22683L9.9281 4.23146L10.089 4.35993ZM4.69985 6.89198L4.70786 7.0977L4.70843 7.09768L4.69985 6.89198ZM4.20626 7.42701L4.41198 7.419L4.41195 7.41827L4.20626 7.42701ZM4.74103 7.92137L4.74903 8.1271L4.74934 8.12708L4.74103 7.92137ZM10.4892 5.46164L10.6357 5.31701L10.4863 5.16568L10.3399 5.31987L10.4892 5.46164ZM15.6873 7.8802L15.8917 7.90494L15.9175 7.6919L15.7036 7.67496L15.6873 7.8802ZM15.3698 9.70788L15.4046 9.9108L15.5399 9.88757L15.5705 9.7537L15.3698 9.70788ZM11.5165 14.2779L11.3106 14.2778V14.2779H11.5165ZM11.6503 15.3948L11.4503 15.4437L11.4505 15.4442L11.6503 15.3948ZM12.0049 16.3418L12.1894 16.2503L12.188 16.2476L12.0049 16.3418ZM14.0599 18.4106L14.1657 18.5872L14.4863 18.3952L14.1526 18.2268L14.0599 18.4106ZM10.4892 19.7596L10.4495 19.9617L10.488 19.9692L10.5266 19.9621L10.4892 19.7596ZM1.24264 3.34084L1.03697 3.32897L1.03681 3.33633L1.24264 3.34084ZM1.32731 3.21885L1.40963 3.4076L1.41333 3.4059L1.32731 3.21885ZM1.474 3.2379L1.34477 3.39817L1.3521 3.40407L1.35993 3.40929L1.474 3.2379ZM4.33493 4.07145V3.86552L4.33066 3.86561L4.33493 4.07145ZM8.33181 1.79134L8.52507 1.86309L8.52824 1.853L8.33181 1.79134ZM9.05161 1.23547V1.02936L9.04176 1.02983L9.05161 1.23547ZM11.9336 1.23547L11.9449 1.02959H11.9336V1.23547ZM12.6475 1.79134L12.451 1.8526L12.4532 1.8596L12.4558 1.86644L12.6475 1.79134ZM14.1221 3.44918L14.2209 3.26855L14.2192 3.26762L14.1221 3.44918ZM16.6434 4.07145L16.6476 3.86548L16.6401 3.86559L16.6434 4.07145ZM19.5053 3.2379L19.6194 3.40929L19.6285 3.40327L19.6368 3.39633L19.5053 3.2379ZM19.5928 3.20676V3.41271L19.5984 3.41256L19.5928 3.20676ZM19.7364 3.34084L19.9422 3.33321L19.9421 3.33049L19.7364 3.34084ZM16.1397 17.8807L16.1417 17.6748L16.1386 17.6749L16.1397 17.8807ZM15.0561 17.7109L15.1201 17.5152L15.1177 17.5144L15.0561 17.7109ZM12.8987 15.822L13.0853 15.7349L13.083 15.7301L12.8987 15.822ZM12.5901 14.8137L12.7944 14.7867L12.7929 14.778L12.5901 14.8137ZM12.5438 14.2779L12.7497 14.279L12.7497 14.278L12.5438 14.2779ZM15.0651 10.84V10.6341H15.0333L15.0031 10.6436L15.0651 10.84ZM15.0712 10.84V11.0458H15.1032L15.1337 11.0361L15.0712 10.84ZM16.1861 10.675L16.1888 10.4691H16.1861V10.675ZM18.7745 11.8331L18.6229 11.9725L18.6244 11.974L18.7745 11.8331ZM19.4884 12.9811L19.2956 13.0534L19.297 13.0569L19.4884 12.9811ZM19.5918 2.17737L19.5927 2.38324L19.5936 2.38324L19.5918 2.17737ZM18.9093 2.39868L19.0216 2.57154L19.0294 2.56592L18.9093 2.39868ZM16.6444 3.04205L16.649 2.8362L16.6453 2.83618L16.6444 3.04205ZM13.6136 1.43646L13.4185 1.5024L13.4204 1.50767L13.6136 1.43646ZM11.9336 0.206079L11.9375 0.00020105H11.9336V0.206079ZM9.05161 0.206079V0.000164512L9.04773 0.000237588L9.05161 0.206079ZM7.36675 1.43646L7.55993 1.50784L7.56168 1.50271L7.36675 1.43646ZM4.33596 3.04205V2.83613L4.3316 2.83622L4.33596 3.04205ZM2.07104 2.39868L1.95083 2.56611L1.95912 2.57148L2.07104 2.39868ZM1.38856 2.17737L1.38672 2.38324L1.38769 2.38324L1.38856 2.17737ZM0.216336 3.31433L0.422165 3.31886L0.422171 3.31858L0.216336 3.31433ZM10.3988 20.789L10.3606 20.9917L10.3726 20.9932L10.3988 20.789ZM10.4912 20.7939L10.4978 20.5877L10.4844 20.5882L10.4912 20.7939ZM10.5887 20.789L10.6133 20.9937L10.6239 20.9919L10.5887 20.789ZM15.3093 18.8327L15.3478 18.6304L15.262 18.6141L15.1907 18.6644L15.3093 18.8327ZM16.1418 18.9101V19.116L16.1423 19.116L16.1418 18.9101ZM20.7651 14.2779L20.5592 14.2775V14.2778L20.7651 14.2779ZM19.9176 11.612L19.719 11.5579L19.6934 11.6518L19.7497 11.7311L19.9176 11.612ZM15.5612 16.0775C15.4793 16.0769 15.4 16.0439 15.3416 15.9862L15.052 16.2789C15.1867 16.4122 15.3688 16.4878 15.5581 16.4893L15.5612 16.0775ZM15.3426 15.9872L13.8688 14.5095L13.5772 14.8003L15.0511 16.278L15.3426 15.9872ZM13.8749 14.5159C13.7635 14.3942 13.7674 14.2066 13.8841 14.0893L13.5922 13.7989C13.3208 14.0717 13.3109 14.5095 13.5711 14.7939L13.8749 14.5159ZM13.8841 14.0893C14.0001 13.9727 14.1884 13.9682 14.3103 14.0793L14.5876 13.7749C14.3035 13.516 13.8643 13.5254 13.5922 13.7989L13.8841 14.0893ZM14.3032 14.0725L15.4139 15.1863L15.7055 14.8955L14.5947 13.7817L14.3032 14.0725ZM15.7054 15.1864L17.9783 12.9093L17.6869 12.6184L15.414 14.8955L15.7054 15.1864ZM17.9851 12.9022C18.0614 12.818 18.1771 12.7833 18.2872 12.8115L18.3893 12.4126C18.1315 12.3466 17.859 12.4282 17.6801 12.6256L17.9851 12.9022ZM18.288 12.8117C18.3979 12.8394 18.4837 12.9255 18.5116 13.0357L18.9107 12.9347C18.846 12.679 18.6466 12.4774 18.3885 12.4124L18.288 12.8117ZM18.5115 13.0355C18.5394 13.1461 18.504 13.2626 18.4206 13.3376L18.696 13.6437C18.8942 13.4654 18.9756 13.1918 18.9108 12.9349L18.5115 13.0355ZM18.4125 13.3453L15.7778 15.9872L16.0693 16.278L18.7041 13.636L18.4125 13.3453ZM15.778 15.987C15.72 16.045 15.6416 16.0775 15.5597 16.0775V16.4893C15.7511 16.4893 15.9341 16.4132 16.0692 16.2782L15.778 15.987ZM11.9157 16.1563C11.4837 16.364 11.0313 16.5248 10.565 16.6359L10.6604 17.0364C11.1555 16.9185 11.6357 16.7478 12.0942 16.5273L11.9157 16.1563ZM10.5627 16.6364C10.514 16.6486 10.4641 16.6485 10.4172 16.6366L10.3161 17.0357C10.4298 17.0645 10.5487 17.0644 10.6626 17.0359L10.5627 16.6364ZM10.4154 16.6361C8.95606 16.2808 7.77369 15.5537 6.84632 14.438C5.91651 13.3194 5.23535 11.8006 4.79831 9.85273L4.39654 9.94288C4.84298 11.9327 5.54597 13.5178 6.52967 14.7012C7.51581 15.8876 8.77631 16.6609 10.318 17.0362L10.4154 16.6361ZM4.79839 9.85309C4.7616 9.68776 4.86649 9.52377 5.0311 9.48772L4.94301 9.08549C4.55535 9.17039 4.31024 9.55507 4.39647 9.94253L4.79839 9.85309ZM5.03156 9.48761C5.19746 9.45088 5.36138 9.55606 5.39705 9.72061L5.79946 9.63339C5.7152 9.24465 5.32994 8.99983 4.94255 9.08559L5.03156 9.48761ZM5.39737 9.72209C5.9674 12.2619 6.94487 13.7688 7.93148 14.6751C8.91792 15.5813 9.89687 15.8715 10.438 16.0065L10.5377 15.607C10.0276 15.4798 9.12431 15.2117 8.21004 14.3719C7.29594 13.5321 6.35424 12.1052 5.79914 9.63192L5.39737 9.72209ZM10.5355 16.0071C10.9512 15.9082 11.354 15.7656 11.7395 15.5803L11.5611 15.2092C11.2023 15.3816 10.8274 15.5144 10.4402 15.6065L10.5355 16.0071ZM11.4503 15.4436C11.5345 15.7883 11.66 16.1213 11.8219 16.436L12.188 16.2476C12.0406 15.9611 11.9267 15.6585 11.8503 15.3459L11.4503 15.4436ZM19.2095 10.5476C18.4261 9.89888 17.4567 9.51415 16.4411 9.45042L16.4153 9.86137C17.3438 9.91963 18.2304 10.2714 18.9468 10.8647L19.2095 10.5476ZM16.6296 9.69891C16.7861 8.96605 16.9008 8.22476 16.9719 7.47789L16.5619 7.43891C16.4925 8.16974 16.3802 8.89533 16.2269 9.61289L16.6296 9.69891ZM16.9713 7.48339C16.9958 7.28258 16.9313 7.08188 16.7952 6.93332L16.4916 7.21145C16.5464 7.27133 16.5725 7.35217 16.5625 7.43342L16.9713 7.48339ZM16.8016 6.94069C16.6737 6.78694 16.4868 6.69498 16.2874 6.6863L16.2695 7.09766C16.3537 7.10133 16.4319 7.14011 16.4851 7.20407L16.8016 6.94069ZM16.287 6.68628C14.1245 6.59599 12.2207 5.69587 11.051 4.23145L10.7292 4.48842C11.9843 6.05968 14.007 7.0032 16.2699 7.09768L16.287 6.68628ZM11.0467 4.22629C10.9073 4.06292 10.7042 3.96902 10.4892 3.96902V4.38078C10.5835 4.38078 10.6722 4.42173 10.7335 4.49358L11.0467 4.22629ZM10.4892 3.96902C10.2752 3.96902 10.0709 4.06272 9.93187 4.22689L10.2461 4.49298C10.3063 4.42193 10.3953 4.38078 10.4892 4.38078V3.96902ZM9.9281 4.23146C8.75866 5.69587 6.85557 6.59599 4.69127 6.68628L4.70843 7.09768C6.97309 7.0032 8.99507 6.05968 10.2499 4.48841L9.9281 4.23146ZM4.69185 6.68626C4.29388 6.70174 3.98362 7.03693 4.00057 7.43575L4.41195 7.41827C4.40471 7.24783 4.53709 7.10435 4.70786 7.0977L4.69185 6.68626ZM4.00054 7.43501C4.01603 7.83319 4.35123 8.14258 4.74903 8.1271L4.73302 7.71565C4.56209 7.7223 4.41862 7.58957 4.41198 7.419L4.00054 7.43501ZM4.74934 8.12708C7.08267 8.03278 9.1952 7.1232 10.6384 5.60341L10.3399 5.31987C8.97853 6.75341 6.97143 7.62519 4.73272 7.71566L4.74934 8.12708ZM10.3426 5.60628C11.7637 7.0458 13.6554 7.92583 15.6711 8.08543L15.7036 7.67496C13.7865 7.52317 11.9873 6.68617 10.6357 5.31701L10.3426 5.60628ZM15.4829 7.85545C15.4094 8.46283 15.3051 9.06596 15.169 9.66207L15.5705 9.7537C15.7098 9.14336 15.8165 8.52615 15.8917 7.90494L15.4829 7.85545ZM15.3349 9.50497C13.0103 9.90384 11.3117 11.9199 11.3106 14.2778L11.7224 14.278C11.7233 12.1204 13.2777 10.2757 15.4046 9.9108L15.3349 9.50497ZM11.3106 14.2779C11.3106 14.67 11.3568 15.0614 11.4503 15.4437L11.8503 15.3458C11.7647 14.9962 11.7224 14.6377 11.7224 14.2779H11.3106ZM11.4505 15.4442C11.5356 15.7881 11.6598 16.121 11.8219 16.436L12.188 16.2476C12.0408 15.9614 11.9277 15.6587 11.8502 15.3453L11.4505 15.4442ZM11.8205 16.4333C12.2837 17.3667 13.0367 18.125 13.9671 18.5944L14.1526 18.2268C13.3017 17.7975 12.613 17.104 12.1894 16.2503L11.8205 16.4333ZM13.9541 18.234C12.8745 18.8807 11.6881 19.3285 10.4517 19.5572L10.5266 19.9621C11.8112 19.7245 13.0439 19.2592 14.1657 18.5872L13.9541 18.234ZM10.5288 19.5576C7.41424 18.9461 5.10172 17.2898 3.58709 14.601C2.06736 11.9031 1.34337 8.15149 1.44847 3.34534L1.03681 3.33633C0.930883 8.18047 1.65808 12.0155 3.22833 14.8031C4.80368 17.5997 7.21993 19.3276 10.4495 19.9617L10.5288 19.5576ZM1.44818 3.35269C1.44681 3.37647 1.4325 3.39758 1.40962 3.40756L1.245 3.03014C1.12535 3.08233 1.04465 3.19815 1.0371 3.32898L1.44818 3.35269ZM1.41333 3.4059C1.38814 3.41748 1.36245 3.41242 1.34477 3.39817L1.60322 3.07762C1.50319 2.99698 1.36273 2.97596 1.24129 3.03181L1.41333 3.4059ZM1.35993 3.40929C2.24126 3.99586 3.28079 4.29926 4.33921 4.27728L4.33066 3.86561C3.35654 3.88584 2.39957 3.60661 1.58806 3.06651L1.35993 3.40929ZM4.33493 4.27733C6.3064 4.27733 7.97126 3.35401 8.52481 1.863L8.1388 1.71969C7.6645 2.99723 6.19743 3.86557 4.33493 3.86557V4.27733ZM8.52824 1.853C8.60206 1.61779 8.81496 1.45292 9.06146 1.44111L9.04176 1.02983C8.62224 1.04993 8.26074 1.33028 8.13538 1.72969L8.52824 1.853ZM9.05161 1.44135H11.9336V1.02959H9.05161V1.44135ZM11.9224 1.44105C12.1673 1.45438 12.378 1.61841 12.451 1.8526L12.8441 1.73009C12.7199 1.33171 12.3614 1.05259 11.9448 1.0299L11.9224 1.44105ZM12.4558 1.86644C12.7522 2.62299 13.3085 3.24768 14.0251 3.63074L14.2192 3.26762C13.5888 2.93062 13.0998 2.38129 12.8392 1.71625L12.4558 1.86644ZM14.0233 3.6298C14.8268 4.06929 15.7316 4.29176 16.6466 4.2773L16.6401 3.86559C15.796 3.87893 14.9616 3.67368 14.2209 3.26856L14.0233 3.6298ZM16.6391 4.27728C17.6985 4.29926 18.7381 3.99587 19.6194 3.40929L19.3913 3.06651C18.5798 3.60659 17.6228 3.88584 16.6476 3.86561L16.6391 4.27728ZM19.6368 3.39633C19.623 3.40776 19.6074 3.41264 19.5928 3.41264V3.00088C19.514 3.00088 19.436 3.02789 19.3739 3.07946L19.6368 3.39633ZM19.5984 3.41256C19.561 3.41357 19.5325 3.38419 19.5308 3.35119L19.9421 3.33049C19.9327 3.1441 19.7775 2.99583 19.5873 3.00095L19.5984 3.41256ZM19.5307 3.34846C19.6217 5.80373 19.4022 8.26131 18.877 10.6621L19.2793 10.7501C19.8118 8.31539 20.0344 5.82314 19.9422 3.33321L19.5307 3.34846ZM16.443 17.6565C16.3423 17.6695 16.2423 17.6758 16.1417 17.6749L16.1378 18.0866C16.2585 18.0877 16.3773 18.0801 16.4958 18.0649L16.443 17.6565ZM16.1386 17.6749C15.7928 17.6768 15.4488 17.6229 15.1201 17.5152L14.992 17.9065C15.3628 18.028 15.7507 18.0888 16.1409 18.0866L16.1386 17.6749ZM15.1177 17.5144C14.2209 17.2332 13.4831 16.5874 13.0853 15.7349L12.7121 15.909C13.1589 16.8662 13.9873 17.5915 14.9944 17.9073L15.1177 17.5144ZM13.083 15.7301C12.9353 15.4339 12.8376 15.1148 12.7942 14.7867L12.386 14.8406C12.4353 15.214 12.5466 15.5769 12.7144 15.9138L13.083 15.7301ZM12.7929 14.778C12.7638 14.6125 12.7487 14.4458 12.7497 14.279L12.3379 14.2767C12.3368 14.4697 12.3542 14.6612 12.3874 14.8494L12.7929 14.778ZM12.7497 14.278C12.7507 12.7946 13.7129 11.4825 15.127 11.0363L15.0031 10.6436C13.4176 11.1439 12.339 12.6148 12.3379 14.2777L12.7497 14.278ZM15.0651 11.0458H15.0712V10.6341H15.0651V11.0458ZM15.1337 11.0361C15.4578 10.933 15.7978 10.8809 16.1387 10.8809V10.4691C15.756 10.4691 15.3739 10.5276 15.0088 10.6438L15.1337 11.0361ZM16.1387 10.8809H16.1861V10.4691H16.1387V10.8809ZM16.1833 10.8809C17.1116 10.8932 17.9936 11.2883 18.623 11.9724L18.926 11.6937C18.2202 10.9264 17.2307 10.483 16.1888 10.4691L16.1833 10.8809ZM18.6244 11.974C18.9174 12.2859 19.1453 12.6526 19.2956 13.0534L19.6811 12.9088C19.5118 12.4572 19.2549 12.0437 18.9245 11.6921L18.6244 11.974ZM19.297 13.0569C19.451 13.4458 19.5298 13.8593 19.5298 14.2779H19.9415C19.9415 13.8075 19.853 13.3425 19.6798 12.9052L19.297 13.0569ZM19.5298 14.2779C19.5298 16.0304 18.1953 17.4946 16.4505 17.6557L16.4883 18.0657C18.4452 17.885 19.9415 16.243 19.9415 14.2779H19.5298ZM20.9699 3.31008C20.9544 2.56179 20.339 1.96483 19.59 1.97149L19.5936 2.38324C20.1175 2.37858 20.5474 2.79608 20.5582 3.31858L20.9699 3.31008ZM19.5909 1.97149C19.3039 1.9727 19.0229 2.06366 18.7892 2.23145L19.0294 2.56592C19.1936 2.44805 19.3912 2.38409 19.5927 2.38324L19.5909 1.97149ZM18.7972 2.22602C18.1582 2.64097 17.4098 2.85331 16.649 2.83623L16.6398 3.24788C17.4833 3.26682 18.313 3.03138 19.0214 2.57135L18.7972 2.22602ZM16.6453 2.83618C16.1048 2.83371 15.4859 2.7318 14.9552 2.49328C14.4253 2.25513 13.9999 1.88923 13.8068 1.36525L13.4204 1.50767C13.6635 2.16698 14.1911 2.6013 14.7864 2.86884C15.3808 3.13601 16.0591 3.24526 16.6435 3.24793L16.6453 2.83618ZM13.8087 1.37054C13.5364 0.564991 12.7886 0.0162905 11.9375 0.000237665L11.9298 0.411921C12.6068 0.424691 13.2019 0.861119 13.4186 1.50238L13.8087 1.37054ZM11.9336 0.00020105H9.05161V0.411958H11.9336V0.00020105ZM9.04773 0.000237588C8.19632 0.0162804 7.44607 0.563237 7.17182 1.37021L7.56168 1.50271C7.78 0.8603 8.37722 0.424702 9.05549 0.411921L9.04773 0.000237588ZM7.17363 1.3651C6.9799 1.8894 6.55425 2.25659 6.02463 2.49529C5.49416 2.73437 4.87577 2.83618 4.33596 2.83618V3.24793C4.92103 3.24793 5.59941 3.13858 6.19381 2.87069C6.78905 2.60241 7.31637 2.1668 7.55987 1.50782L7.17363 1.3651ZM4.3316 2.83622C3.57063 2.85234 2.82185 2.63969 2.18296 2.22588L1.95912 2.57148C2.66719 3.03009 3.49699 3.26574 4.34032 3.24789L4.3316 2.83622ZM2.19112 2.23145C1.95743 2.06366 1.67643 1.9727 1.38942 1.97149L1.38769 2.38324C1.58913 2.38409 1.7868 2.44805 1.95097 2.56592L2.19112 2.23145ZM1.39039 1.97149C0.641368 1.96483 0.0259582 2.56179 0.0105015 3.31008L0.422171 3.31858C0.432963 2.79608 0.862901 2.37858 1.38672 2.38324L1.39039 1.97149ZM0.0105074 3.3098C-0.103033 8.4691 0.699025 12.5511 2.42678 15.5158C4.15964 18.4892 6.81439 20.3219 10.3606 20.9913L10.437 20.5867C7.00166 19.9383 4.45206 18.1732 2.78253 15.3084C1.10788 12.4349 0.309496 8.43855 0.422165 3.31886L0.0105074 3.3098ZM10.3726 20.9932C10.4111 20.9982 10.4535 21.0012 10.498 20.9997L10.4844 20.5882C10.4666 20.5887 10.4468 20.5876 10.425 20.5848L10.3726 20.9932ZM10.4846 20.9997C10.5296 21.0011 10.5735 20.9982 10.6133 20.9934L10.5642 20.5846C10.5397 20.5876 10.5172 20.5888 10.4978 20.5881L10.4846 20.9997ZM10.6239 20.9919C12.3527 20.692 13.9938 20.0119 15.4279 19.0009L15.1907 18.6644C13.8063 19.6402 12.2223 20.2967 10.5536 20.5862L10.6239 20.9919ZM15.2708 19.0349C15.5586 19.0897 15.8499 19.116 16.1418 19.116V18.7043C15.8747 18.7043 15.6092 18.6802 15.3478 18.6304L15.2708 19.0349ZM16.1423 19.116C18.8102 19.1098 20.9699 16.9459 20.9709 14.278L20.5592 14.2778C20.5582 16.7187 18.5823 18.6986 16.1413 18.7043L16.1423 19.116ZM20.9709 14.2783C20.9728 13.2804 20.663 12.3067 20.0855 11.4929L19.7497 11.7311C20.2777 12.4753 20.5609 13.3653 20.5592 14.2775L20.9709 14.2783ZM20.1163 11.6661C20.759 9.30446 21.0415 6.51855 20.9699 3.30974L20.5582 3.31892C20.6292 6.50006 20.3486 9.24456 19.719 11.5579L20.1163 11.6661Z" fill="#202244"/>
</svg>
