<svg width="135" height="150" viewBox="0 0 135 150" fill="none" xmlns="http://www.w3.org/2000/svg">
    <path fill-rule="evenodd" clip-rule="evenodd" d="M89.3579 150C89.0655 150 88.6829 149.91 88.3904 149.85C76.4654 146.542 68.6429 142.117 60.4754 134.092C50.0129 123.78 44.1554 109.658 44.2154 94.95C44.2154 82.7925 54.5579 72.8925 67.3004 72.8925C80.0729 72.8925 90.4154 82.7925 90.4154 94.95C90.4154 102.975 97.3829 109.515 106 109.515C114.64 109.515 121.615 102.975 121.615 94.95C121.615 66.6825 97.2404 43.71 67.2404 43.71C45.9404 43.71 26.4329 55.575 17.6729 73.9425C14.7404 80.04 13.2479 87.1575 13.2479 94.95C13.2479 100.808 13.7429 110.04 18.2579 122.025C19.0154 123.982 18.0179 126.15 16.0904 126.825C14.1254 127.59 11.9579 126.533 11.2829 124.658C7.68295 115.162 5.80795 105.09 5.80795 94.95C5.80795 85.9575 7.53295 77.7825 10.9004 70.665C20.8904 49.7175 43.0079 36.15 67.2404 36.15C101.373 36.15 129.115 62.46 129.115 94.86C129.115 107.025 118.743 116.925 106 116.925C93.2579 116.925 82.9154 107.025 82.9154 94.86C82.9154 86.835 75.9404 80.3325 67.3004 80.3325C58.6829 80.3325 51.7154 86.835 51.7154 94.86C51.7154 107.693 56.6654 119.708 65.7479 128.7C72.8654 135.765 79.6904 139.658 90.2654 142.59C92.2904 143.085 93.4004 145.193 92.8754 147.158C92.4929 148.89 90.9405 150 89.3579 150ZM104.448 134.557C95.5079 134.557 87.6329 132.307 81.1829 127.882C69.993 120.292 63.3404 107.985 63.3404 94.95C63.3404 92.8425 64.9829 91.2 67.0904 91.2C69.1754 91.2 70.8404 92.8425 70.8404 94.95C70.8404 105.525 76.2329 115.485 85.3754 121.642C90.7079 125.242 96.9479 126.975 104.448 126.975C106.233 126.975 109.218 126.735 112.24 126.21C114.258 125.857 116.193 127.207 116.575 129.285C116.958 131.34 115.608 133.275 113.5 133.65C109.218 134.475 105.468 134.557 104.448 134.557ZM50.6579 148.418C49.6604 148.448 48.7229 148.035 48.0179 147.307C41.5154 140.775 37.9754 136.583 32.9654 127.5C27.7754 118.275 25.0829 107.025 25.0829 94.95C25.0829 72.6825 44.1255 54.525 67.5329 54.525C90.9404 54.525 109.983 72.6825 109.983 94.95C109.983 97.0575 108.34 98.7 106.233 98.7C104.125 98.7 102.483 97.0575 102.483 94.95C102.483 76.785 86.8079 62.025 67.5329 62.025C48.2579 62.025 32.5829 76.785 32.5829 94.95C32.5829 105.765 34.9829 115.725 39.5579 123.84C44.3579 132.45 47.6729 136.11 53.4404 141.975C54.8504 143.467 54.8504 145.807 53.4404 147.307C52.6229 148.035 51.6254 148.418 50.6579 148.418ZM3.78295 57.8925C2.37295 57.9225 1.09045 57.1275 0.415446 55.8675C-0.229554 54.6375 -0.117054 53.115 0.707946 51.975C8.11795 41.4825 17.5829 33.225 28.8329 27.45C52.3829 15.2925 82.5329 15.2325 106.143 27.36C117.393 33.165 126.858 41.34 134.268 51.735C134.853 52.56 135.093 53.5875 134.913 54.5475C134.77 55.545 134.208 56.4225 133.39 57.015C131.665 58.215 129.318 57.8325 128.118 56.1C121.555 46.815 112.855 39.225 102.715 34.0425C81.1829 23.025 53.6429 23.025 32.2004 34.1325C22.0079 39.375 13.4504 46.875 6.71545 56.34C6.10045 57.36 4.98295 57.8925 3.78295 57.8925ZM111.093 18.5175C110.508 18.5175 109.893 18.3675 109.368 18.075C94.9829 10.665 82.5329 7.5 67.6229 7.5C52.7654 7.5 38.6429 11.0175 25.8404 18.075C24.0254 19.0425 21.7679 18.3675 20.7479 16.5825C19.7504 14.7375 20.4254 12.48 22.2404 11.4825C36.1829 3.9 51.4754 0 67.6229 0C83.5829 0 97.5329 3.5175 112.825 11.4C114.7 12.36 115.375 14.6175 114.408 16.4325C113.793 17.6925 112.533 18.5175 111.093 18.5175Z" fill="#0961F5"/>
</svg>
