<svg width="18" height="20" viewBox="0 0 18 20" fill="none" xmlns="http://www.w3.org/2000/svg">
    <path fill-rule="evenodd" clip-rule="evenodd" d="M8.133 5.043C8.5 5.082 8.777 5.398 8.777 5.77C8.777 6.145 8.5 6.457 8.133 6.5H5.391C5.023 6.457 4.746 6.145 4.746 5.77C4.746 5.398 5.023 5.082 5.391 5.043H8.133ZM12.594 9.273C12.867 9.242 13.137 9.371 13.285 9.609C13.43 9.848 13.43 10.152 13.285 10.391C13.137 10.629 12.867 10.758 12.594 10.727H5.383C5.016 10.688 4.738 10.375 4.738 10C4.738 9.625 5.016 9.312 5.383 9.273H12.594ZM12.594 13.512C12.988 13.512 13.305 13.836 13.305 14.234C13.305 14.633 12.988 14.957 12.594 14.957H5.383C4.988 14.957 4.668 14.633 4.668 14.234C4.668 13.836 4.988 13.512 5.383 13.512H12.594ZM12.852 0C16.067 0 17.992 1.953 18 5.211V14.789C18 18.047 16.086 20 12.863 20H10.004C9.641 19.961 9.363 19.645 9.363 19.273C9.363 18.898 9.641 18.586 10.004 18.543H12.852C15.309 18.543 16.547 17.281 16.547 14.789V5.211C16.547 2.719 15.309 1.457 12.852 1.457H5.137C2.684 1.457 1.438 2.719 1.438 5.211V14.789C1.438 17.281 2.684 18.543 5.137 18.543C5.504 18.586 5.781 18.898 5.781 19.273C5.781 19.645 5.504 19.961 5.137 20C1.926 20 0 18.047 0 14.789V5.211C0 1.941 1.926 0 5.137 0H12.852Z" fill="#202244"/>
</svg>
