<svg width="22" height="22" viewBox="0 0 22 22" fill="none" xmlns="http://www.w3.org/2000/svg">
<path d="M11 3.4375C9.50428 3.4375 8.04215 3.88103 6.7985 4.71201C5.55486 5.54299 4.58555 6.72409 4.01316 8.10596C3.44078 9.48782 3.29101 11.0084 3.58281 12.4754C3.87462 13.9424 4.59487 15.2899 5.65251 16.3475C6.71014 17.4051 8.05765 18.1254 9.52463 18.4172C10.9916 18.709 12.5122 18.5592 13.894 17.9868C15.2759 17.4145 16.457 16.4451 17.288 15.2015C18.119 13.9579 18.5625 12.4957 18.5625 11C18.5625 8.9943 17.7657 7.07075 16.3475 5.65251C14.9293 4.23426 13.0057 3.4375 11 3.4375Z" stroke="#9CA3AF" stroke-width="1.5" stroke-miterlimit="10"/>
<path d="M8.59375 8.69199C8.59375 8.69199 8.62984 7.94003 9.43465 7.29249C9.91203 6.90792 10.4844 6.79663 11 6.7889C11.4696 6.78288 11.889 6.86066 12.14 6.98011C12.5696 7.18464 13.4062 7.68394 13.4062 8.7457C13.4062 9.86288 12.6758 10.3703 11.8435 10.9285C11.0112 11.4867 10.7852 12.0925 10.7852 12.7186" stroke="#9CA3AF" stroke-width="1.3125" stroke-miterlimit="10" stroke-linecap="round"/>
<path d="M10.7422 15.8125C11.2168 15.8125 11.6016 15.4277 11.6016 14.9531C11.6016 14.4785 11.2168 14.0938 10.7422 14.0938C10.2676 14.0938 9.88281 14.4785 9.88281 14.9531C9.88281 15.4277 10.2676 15.8125 10.7422 15.8125Z" fill="#9CA3AF"/>
</svg>
