<svg width="24" height="13" viewBox="0 0 24 13" fill="none" xmlns="http://www.w3.org/2000/svg">
    <mask id="mask0_0_1789" style="mask-type:luminance" maskUnits="userSpaceOnUse" x="0" y="0" width="24" height="13">
        <path fill-rule="evenodd" clip-rule="evenodd" d="M0 0H23.9999V12.9996H0V0Z" fill="white"/>
    </mask>
    <g mask="url(#mask0_0_1789)">
        <path fill-rule="evenodd" clip-rule="evenodd" d="M9.5 13C9.223 13 9 12.772 9 12.5V1.5C9 1.223 9.223 1 9.5 1C9.777 1 10 1.223 10 1.5V12.5C10 12.772 9.777 13 9.5 13ZM6.5 13C6.223 13 6 12.772 6 12.5V5.5C6 5.223 6.223 5 6.5 5C6.777 5 7 5.223 7 5.5V12.5C7 12.772 6.777 13 6.5 13ZM3.5 13C3.223 13 3 12.772 3 12.5V4.5C3 4.223 3.223 4 3.5 4C3.777 4 4 4.223 4 4.5V12.5C4 12.772 3.777 13 3.5 13ZM0.5 12C0.223 12 0 11.772 0 11.5V7.5C0 7.223 0.223 7 0.5 7C0.777 7 1 7.223 1 7.5V11.5C1 11.772 0.777 12 0.5 12ZM13 12H20.5C21.879 12 23 10.875 23 9.5C23 8.121 21.879 7 20.5 7C19.859 7 19.242 7.246 18.781 7.69C18.625 7.84 18.395 7.871 18.207 7.772C18.02 7.68 17.91 7.473 17.941 7.262C17.978 7.012 18 6.758 18 6.5C18 3.637 15.802 1.272 13 1.019V12ZM20.5 13H12.5C12.223 13 12 12.772 12 12.5V0.5C12 0.223 12.223 0 12.5 0C16.027 0.003 18.906 2.815 18.996 6.34C19.465 6.113 19.98 5.996 20.5 6C22.431 6 24 7.565 24 9.5C24 11.43 22.431 13 20.5 13Z" fill="#1D1D1B"/>
    </g>
</svg>
