<svg width="20" height="19" viewBox="0 0 20 19" fill="none" xmlns="http://www.w3.org/2000/svg">
    <path fill-rule="evenodd" clip-rule="evenodd" d="M15.7626 8.63461C16.1255 8.63461 16.4193 8.93626 16.4193 9.3111C16.4193 9.68198 16.1255 9.98264 15.7626 9.98264H15.4609C15.0979 9.98264 14.8003 9.68198 14.8003 9.3111C14.8003 8.93626 15.0979 8.63461 15.4609 8.63461H15.7626ZM14.1633 0.10437C17.3193 0.10437 19.8848 2.73119 19.8848 5.95735V13.0426C19.8848 16.2688 17.3193 18.8956 14.1633 18.8956C13.8004 18.8956 13.5027 18.594 13.5027 18.2191C13.5027 17.8483 13.8004 17.5476 14.1633 17.5476C16.5894 17.5476 18.5674 15.527 18.5674 13.0426V7.38648H15.3185C14.2523 7.39043 13.383 8.27956 13.383 9.36846C13.383 10.4623 14.2523 11.3504 15.3185 11.3504H16.6665C17.0334 11.3504 17.3272 11.6561 17.3272 12.0269C17.3272 12.3978 17.0334 12.7024 16.6665 12.7024H15.3185C13.5254 12.6985 12.0656 11.208 12.0617 9.36846C12.0656 7.53384 13.5254 6.03845 15.3185 6.03845H18.5674V5.95735C18.5674 3.47295 16.5894 1.4524 14.1633 1.4524H5.82594C3.86769 1.4524 2.22593 2.77372 1.65329 4.58164H10.3457C10.7097 4.58164 11.0034 4.88328 11.0034 5.25812C11.0034 5.629 10.7097 5.93065 10.3457 5.93065H1.42582L1.42186 5.95735V13.0426C1.42186 15.527 3.39594 17.5476 5.82594 17.5476H10.0213C10.3853 17.5476 10.678 17.8483 10.678 18.2191C10.678 18.594 10.3853 18.8956 10.0213 18.8956H5.82594C2.67 18.8956 0.104498 16.2688 0.104498 13.0426V5.95735C0.104498 2.73119 2.67 0.10437 5.82594 0.10437H14.1633Z" fill="white"/>
    <path d="M18.5674 7.38648H18.6718V7.28208H18.5674V7.38648ZM15.3185 7.38648V7.28208L15.3181 7.28208L15.3185 7.38648ZM15.3185 12.7024L15.3183 12.8068H15.3185V12.7024ZM12.0617 9.36846L11.9573 9.36824L11.9573 9.36868L12.0617 9.36846ZM18.5674 6.03845V6.14285H18.6718V6.03845H18.5674ZM1.65329 4.58164L1.55377 4.55011L1.51072 4.68603H1.65329V4.58164ZM1.42582 5.93065V5.82625H1.33575L1.32255 5.91535L1.42582 5.93065ZM1.42186 5.95735L1.3186 5.94205L1.31747 5.94966V5.95735H1.42186ZM15.7626 8.73901C16.0651 8.73901 16.3149 8.99107 16.3149 9.3111H16.5237C16.5237 8.88145 16.186 8.53022 15.7626 8.53022V8.73901ZM16.3149 9.3111C16.3149 9.62656 16.0657 9.87824 15.7626 9.87824V10.087C16.1854 10.087 16.5237 9.7374 16.5237 9.3111H16.3149ZM15.7626 9.87824H15.4609V10.087H15.7626V9.87824ZM15.4609 9.87824C15.157 9.87824 14.9046 9.62574 14.9046 9.3111H14.6959C14.6959 9.73822 15.0389 10.087 15.4609 10.087V9.87824ZM14.9046 9.3111C14.9046 8.9919 15.1576 8.73901 15.4609 8.73901V8.53022C15.0383 8.53022 14.6959 8.88063 14.6959 9.3111H14.9046ZM15.4609 8.73901H15.7626V8.53022H15.4609V8.73901ZM14.1633 0.208766C17.2594 0.208766 19.7804 2.78657 19.7804 5.95735H19.9892C19.9892 2.67581 17.3792 -2.54888e-05 14.1633 -2.54888e-05V0.208766ZM19.7804 5.95735V13.0426H19.9892V5.95735H19.7804ZM19.7804 13.0426C19.7804 16.2134 17.2594 18.7912 14.1633 18.7912V19C17.3792 19 19.9892 16.3242 19.9892 13.0426H19.7804ZM14.1633 18.7912C13.86 18.7912 13.6071 18.5383 13.6071 18.2191H13.3983C13.3983 18.6496 13.7407 19 14.1633 19V18.7912ZM13.6071 18.2191C13.6071 17.9045 13.8594 17.652 14.1633 17.652V17.4432C13.7413 17.4432 13.3983 17.792 13.3983 18.2191H13.6071ZM14.1633 17.652C16.6492 17.652 18.6718 15.5825 18.6718 13.0426H18.463C18.463 15.4716 16.5295 17.4432 14.1633 17.4432V17.652ZM18.6718 13.0426V7.38648H18.463V13.0426H18.6718ZM18.5674 7.28208H15.3185V7.49087H18.5674V7.28208ZM15.3181 7.28208C14.1925 7.28626 13.2786 8.22399 13.2786 9.36846H13.4874C13.4874 8.33512 14.3121 7.49461 15.3189 7.49087L15.3181 7.28208ZM13.2786 9.36846C13.2786 10.5177 14.1924 11.4548 15.3185 11.4548V11.246C14.3122 11.246 13.4874 10.4069 13.4874 9.36846H13.2786ZM15.3185 11.4548H16.6665V11.246H15.3185V11.4548ZM16.6665 11.4548C16.973 11.4548 17.2228 11.7109 17.2228 12.0269H17.4316C17.4316 11.6012 17.0939 11.246 16.6665 11.246V11.4548ZM17.2228 12.0269C17.2228 12.3428 16.9732 12.598 16.6665 12.598V12.8068C17.0937 12.8068 17.4316 12.4528 17.4316 12.0269H17.2228ZM16.6665 12.598H15.3185V12.8068H16.6665V12.598ZM15.3187 12.598C13.5853 12.5942 12.1699 11.1525 12.1661 9.36824L11.9573 9.36868C11.9614 11.2635 13.4655 12.8027 15.3183 12.8068L15.3187 12.598ZM12.1661 9.36869C12.1699 7.58916 13.5854 6.14285 15.3185 6.14285V5.93406C13.4654 5.93406 11.9614 7.47852 11.9573 9.36824L12.1661 9.36869ZM15.3185 6.14285H18.5674V5.93406H15.3185V6.14285ZM18.6718 6.03845V5.95735H18.463V6.03845H18.6718ZM18.6718 5.95735C18.6718 3.41749 16.6492 1.348 14.1633 1.348V1.55679C16.5295 1.55679 18.463 3.52841 18.463 5.95735H18.6718ZM14.1633 1.348H5.82594V1.55679H14.1633V1.348ZM5.82594 1.348C3.81856 1.348 2.13903 2.70236 1.55377 4.55011L1.75282 4.61316C2.31284 2.84508 3.91683 1.55679 5.82594 1.55679V1.348ZM1.65329 4.68603H10.3457V4.47724H1.65329V4.68603ZM10.3457 4.68603C10.6493 4.68603 10.899 4.9382 10.899 5.25812H11.1078C11.1078 4.82837 10.7701 4.47724 10.3457 4.47724V4.68603ZM10.899 5.25812C10.899 5.57368 10.6497 5.82625 10.3457 5.82625V6.03505C10.7697 6.03505 11.1078 5.68432 11.1078 5.25812H10.899ZM10.3457 5.82625H1.42582V6.03505H10.3457V5.82625ZM1.32255 5.91535L1.3186 5.94205L1.52513 5.97265L1.52909 5.94595L1.32255 5.91535ZM1.31747 5.95735V13.0426H1.52626V5.95735H1.31747ZM1.31747 13.0426C1.31747 15.5824 3.33604 17.652 5.82594 17.652V17.4432C3.45583 17.4432 1.52626 15.4717 1.52626 13.0426H1.31747ZM5.82594 17.652H10.0213V17.4432H5.82594V17.652ZM10.0213 17.652C10.3253 17.652 10.5736 17.9036 10.5736 18.2191H10.7824C10.7824 17.793 10.4453 17.4432 10.0213 17.4432V17.652ZM10.5736 18.2191C10.5736 18.5393 10.3247 18.7912 10.0213 18.7912V19C10.4459 19 10.7824 18.6487 10.7824 18.2191H10.5736ZM10.0213 18.7912H5.82594V19H10.0213V18.7912ZM5.82594 18.7912C2.72991 18.7912 0.208894 16.2134 0.208894 13.0426H0.000101948C0.000101948 16.3242 2.61009 19 5.82594 19V18.7912ZM0.208894 13.0426V5.95735H0.000101948V13.0426H0.208894ZM0.208894 5.95735C0.208894 2.78657 2.72991 0.208766 5.82594 0.208766V-2.54888e-05C2.61009 -2.54888e-05 0.000101948 2.67581 0.000101948 5.95735H0.208894ZM5.82594 0.208766H14.1633V-2.54888e-05H5.82594V0.208766Z" fill="white"/>
</svg>
