<svg width="30" height="36" viewBox="0 0 30 36" fill="none" xmlns="http://www.w3.org/2000/svg">
    <path d="M3.40909 0C1.52545 0 0 1.44 0 3.21429V32.7857C0 34.56 1.52727 36 3.40909 36H26.5909C28.4727 36 30 34.56 30 32.7857V19.2857C30 17.5808 29.2817 15.9456 28.003 14.74C26.7243 13.5344 24.9901 12.8571 23.1818 12.8571H19.7727C18.8686 12.8571 18.0015 12.5185 17.3621 11.9157C16.7228 11.3129 16.3636 10.4953 16.3636 9.64286V6.42857C16.3636 4.72361 15.6453 3.08848 14.3666 1.88288C13.088 0.677294 11.3537 0 9.54545 0H3.40909Z" fill="#F3F4F6"/>
    <path d="M17 1C18.4244 2.50547 19.2072 4.43214 19.2042 6.42496V9.38705C19.2042 9.71406 19.4938 9.97946 19.8505 9.97946H23.0819C25.2558 9.9767 27.3577 10.6943 29 12C28.2418 9.35657 26.7312 6.94518 24.6228 5.01246C22.5144 3.07974 19.8837 1.69505 17 1Z" fill="#F3F4F6"/>
</svg>
