<svg width="16" height="16" viewBox="0 0 16 16" fill="none" xmlns="http://www.w3.org/2000/svg">
    <path opacity="0.4" d="M11.9985 4.77325C11.9585 4.76659 11.9118 4.76659 11.8718 4.77325C10.9518 4.73992 10.2185 3.98659 10.2185 3.05325C10.2185 2.09992 10.9852 1.33325 11.9385 1.33325C12.8918 1.33325 13.6585 2.10659 13.6585 3.05325C13.6518 3.98659 12.9185 4.73992 11.9985 4.77325Z" stroke="#6B7280" stroke-width="1.5" stroke-linecap="round" stroke-linejoin="round"/>
    <path opacity="0.4" d="M11.3117 9.62669C12.2251 9.78003 13.2318 9.62003 13.9384 9.14669C14.8784 8.52003 14.8784 7.49336 13.9384 6.86669C13.2251 6.39336 12.2051 6.23336 11.2917 6.39336" stroke="#6B7280" stroke-width="1.5" stroke-linecap="round" stroke-linejoin="round"/>
    <path opacity="0.4" d="M3.97836 4.77325C4.01836 4.76659 4.06503 4.76659 4.10503 4.77325C5.02503 4.73992 5.75836 3.98659 5.75836 3.05325C5.75836 2.09992 4.99169 1.33325 4.03836 1.33325C3.08503 1.33325 2.31836 2.10659 2.31836 3.05325C2.32503 3.98659 3.05836 4.73992 3.97836 4.77325Z" stroke="#6B7280" stroke-width="1.5" stroke-linecap="round" stroke-linejoin="round"/>
    <path opacity="0.4" d="M4.66492 9.62669C3.75158 9.78003 2.74492 9.62003 2.03825 9.14669C1.09825 8.52003 1.09825 7.49336 2.03825 6.86669C2.75159 6.39336 3.77158 6.23336 4.68492 6.39336" stroke="#6B7280" stroke-width="1.5" stroke-linecap="round" stroke-linejoin="round"/>
    <path d="M7.99997 9.75324C7.95997 9.74657 7.9133 9.74657 7.8733 9.75324C6.9533 9.7199 6.21997 8.96657 6.21997 8.03323C6.21997 7.0799 6.98664 6.31323 7.93997 6.31323C8.8933 6.31323 9.65997 7.08657 9.65997 8.03323C9.6533 8.96657 8.91997 9.72657 7.99997 9.75324Z" stroke="#6B7280" stroke-width="1.5" stroke-linecap="round" stroke-linejoin="round"/>
    <path d="M6.05998 11.8532C5.11998 12.4799 5.11998 13.5066 6.05998 14.1332C7.12665 14.8466 8.87331 14.8466 9.93998 14.1332C10.88 13.5066 10.88 12.4799 9.93998 11.8532C8.87998 11.1466 7.12665 11.1466 6.05998 11.8532Z" stroke="#6B7280" stroke-width="1.5" stroke-linecap="round" stroke-linejoin="round"/>
</svg>
