<svg width="13" height="16" viewBox="0 0 13 16" fill="none" xmlns="http://www.w3.org/2000/svg">
    <path fill-rule="evenodd" clip-rule="evenodd" d="M9.2216 0H3.7032C1.428 0 0 1.5872 0 4.1376V14.6592C0 15.4 0.5872 16 1.3096 16C1.528 16 1.744 15.944 1.9376 15.8376L6.428 13.344L11.656 15.8528C11.7968 15.9128 11.956 15.9128 12.1 15.8528C12.24 15.7936 12.3528 15.6784 12.412 15.5344C12.5 15.2656 12.3936 14.972 12.1592 14.828L6.9656 12.344C6.624 12.1504 6.216 12.1504 5.8752 12.344L1.3784 14.828C1.328 14.856 1.2656 14.856 1.2128 14.828C1.1656 14.7968 1.1376 14.7408 1.1376 14.6784V4.1376C1.144 2.2528 2.0688 1.1784 3.724 1.1784H9.24C11.3656 1.1784 11.6744 2.944 11.6744 4.0032V4.484H5.7032C5.5528 4.4904 5.4096 4.556 5.3032 4.6688C5.2 4.784 5.1472 4.9344 5.1528 5.0904C5.1584 5.4 5.4032 5.6472 5.7032 5.656H11.656V11.8344C11.656 12.156 11.912 12.4184 12.228 12.4184C12.54 12.4184 12.7968 12.1624 12.8 11.8408V4.0032C12.8 1.5312 11.4344 0 9.2216 0Z" fill="#200E32"/>
</svg>
