<svg width="22" height="22" viewBox="0 0 22 22" fill="none" xmlns="http://www.w3.org/2000/svg">
<path d="M16.5 4.5835H5.50002C4.4875 4.5835 3.66669 5.40431 3.66669 6.41683V17.4168C3.66669 18.4294 4.4875 19.2502 5.50002 19.2502H16.5C17.5125 19.2502 18.3334 18.4294 18.3334 17.4168V6.41683C18.3334 5.40431 17.5125 4.5835 16.5 4.5835Z" stroke="#9CA3AF" stroke-width="1.5" stroke-linecap="round" stroke-linejoin="round"/>
<path d="M14.6667 2.75V6.41667V2.75ZM7.33335 2.75V6.41667V2.75ZM3.66669 10.0833H18.3334H3.66669ZM7.33335 13.75H9.16669V15.5833H7.33335V13.75Z" fill="#9CA3AF"/>
<path d="M14.6667 2.75V6.41667M7.33335 2.75V6.41667M3.66669 10.0833H18.3334M7.33335 13.75H9.16669V15.5833H7.33335V13.75Z" stroke="#9CA3AF" stroke-width="1.5" stroke-linecap="round" stroke-linejoin="round"/>
</svg>
