<svg width="20" height="18" viewBox="0 0 20 18" fill="none" xmlns="http://www.w3.org/2000/svg">
    <path fill-rule="evenodd" clip-rule="evenodd" d="M12.9436 6.88525C12.2756 6.88525 11.7328 6.2459 11.7328 5.45902C11.7328 4.67213 12.2756 4.03279 12.9436 4.03279C13.6117 4.03279 14.1545 4.67213 14.1545 5.45902C14.1545 6.2459 13.6117 6.88525 12.9436 6.88525ZM12.9436 2.80328C11.691 2.80328 10.6472 4.03279 10.6472 5.5082C10.6472 6.98361 11.6493 8.21311 12.9436 8.21311C14.1962 8.21311 15.2401 6.98361 15.2401 5.5082C15.2401 4.03279 14.1962 2.80328 12.9436 2.80328ZM18.7891 12.3049L15.8664 9.4918L12.8351 12.4033L6.43006 5.31148L1.12735 11.1V2.01639C1.12735 1.62295 1.37787 1.32787 1.7119 1.32787H18.2046C18.5386 1.32787 18.7891 1.62295 18.7891 2.01639V12.3049ZM18.7891 15.8852C18.7891 16.2787 18.5386 16.5738 18.2046 16.5738H16.6054L13.6618 13.3131L15.8664 11.1639L18.7891 13.9377V15.8852ZM1.7119 16.5738C1.37787 16.5738 1.12735 16.2787 1.12735 15.8852V12.8557L6.43006 7.08197L15.0104 16.5738H1.7119ZM18.2463 0H1.75365C0.793319 0 0 0.934426 0 2.06557V15.9344C0 17.0656 0.793319 18 1.75365 18H18.2463C19.2067 18 20 17.0656 20 15.9344V2.06557C20 0.934426 19.2067 0 18.2463 0Z" fill="#167F71"/>
</svg>
