<svg width="19" height="19" viewBox="0 0 19 19" fill="none" xmlns="http://www.w3.org/2000/svg">
    <path fill-rule="evenodd" clip-rule="evenodd" d="M14.3105 12.7702C14.091 13.3143 13.0986 13.8108 12.6606 13.8337C12.2232 13.8569 12.2108 14.1726 9.82588 13.1365C7.44143 12.1003 6.00676 9.58067 5.8936 9.41849C5.78045 9.25682 4.97003 8.10176 5.01375 6.93928C5.05765 5.77681 5.69432 5.22822 5.92143 5.00014C6.14841 4.77171 6.40847 4.73079 6.56738 4.72812C6.75522 4.72515 6.87681 4.72252 7.01583 4.72765C7.15464 4.73295 7.36322 4.69864 7.54381 5.17886C7.72439 5.6592 8.15643 6.83941 8.21161 6.95968C8.26695 7.08009 8.30105 7.21945 8.21593 7.37399C8.1306 7.529 8.08704 7.62583 7.96312 7.75934C7.83869 7.89285 7.70136 8.05787 7.59037 8.16008C7.46645 8.27302 7.33705 8.39635 7.46725 8.638C7.5975 8.8794 8.04629 9.67096 8.73033 10.3232C9.60917 11.1616 10.3673 11.4398 10.6005 11.5665C10.8345 11.6939 10.9739 11.6798 11.1191 11.5271C11.2634 11.3745 11.7398 10.8593 11.9077 10.6294C12.0755 10.3987 12.2325 10.4439 12.4481 10.5306C12.6634 10.6176 13.8118 11.2327 14.0457 11.3598C14.2795 11.4865 14.4357 11.5518 14.4916 11.6523C14.5474 11.7534 14.5298 12.2262 14.3105 12.7702ZM9.67231 0C4.52119 0 0.344926 4.14348 0.344926 9.25529C0.344926 11.0039 0.833964 12.6394 1.68332 14.0345L0 19L5.16418 17.3594C6.50042 18.0925 8.03717 18.5107 9.67231 18.5107C14.824 18.5107 19 14.3666 19 9.25529C19 4.14348 14.824 0 9.67231 0Z" fill="#128C7E"/>
</svg>
