<svg width="16" height="16" viewBox="0 0 16 16" fill="none" xmlns="http://www.w3.org/2000/svg">
    <path d="M14.6666 11.16V3.1133C14.6666 2.3133 14.0133 1.71996 13.2199 1.78663H13.1799C11.7799 1.90663 9.65325 2.61996 8.46659 3.36663L8.35325 3.43996C8.15992 3.55996 7.83992 3.55996 7.64659 3.43996L7.47992 3.33996C6.29325 2.59996 4.17325 1.8933 2.77325 1.77996C1.97992 1.7133 1.33325 2.3133 1.33325 3.10663V11.16C1.33325 11.8 1.85325 12.4 2.49325 12.48L2.68659 12.5066C4.13325 12.7 6.36659 13.4333 7.64659 14.1333L7.67325 14.1466C7.85325 14.2466 8.13992 14.2466 8.31325 14.1466C9.59325 13.44 11.8333 12.7 13.2866 12.5066L13.5066 12.48C14.1466 12.4 14.6666 11.8 14.6666 11.16Z" stroke="#6B7280" stroke-width="1.5" stroke-linecap="round" stroke-linejoin="round"/>
    <path opacity="0.4" d="M8 3.65991V13.6599" stroke="#6B7280" stroke-width="1.5" stroke-linecap="round" stroke-linejoin="round"/>
    <path opacity="0.4" d="M5.16675 5.65991H3.66675" stroke="#6B7280" stroke-width="1.5" stroke-linecap="round" stroke-linejoin="round"/>
    <path opacity="0.4" d="M5.66675 7.65991H3.66675" stroke="#6B7280" stroke-width="1.5" stroke-linecap="round" stroke-linejoin="round"/>
</svg>
