<svg width="13" height="3" viewBox="0 0 13 3" fill="none" xmlns="http://www.w3.org/2000/svg">
    <path fill-rule="evenodd" clip-rule="evenodd" d="M3 1.49864C3 0.670604 2.3294 0 1.50136 0C0.67333 0 0 0.670604 0 1.49864C0 2.32667 0.67333 3 1.50136 3C2.3294 3 3 2.32667 3 1.49864ZM9.54384 1.49864C9.54384 2.32667 10.2144 2.99659 11.0425 2.99659C11.8705 2.99659 12.5411 2.32667 12.5411 1.49864C12.5411 0.670604 11.8705 0 11.0425 0C10.2144 0 9.54384 0.670604 9.54384 1.49864ZM7.77056 1.49864C7.77056 0.670604 7.09995 0 6.27192 0C5.44389 0 4.77056 0.670604 4.77056 1.49864C4.77056 2.32667 5.44389 3 6.27192 3C7.09995 3 7.77056 2.32667 7.77056 1.49864Z" fill="#1D1D1B"/>
</svg>
