<svg width="232" height="236" viewBox="0 0 232 236" fill="none" xmlns="http://www.w3.org/2000/svg">
    <path d="M22.9885 0H14.9963C6.71349 0 9.34616e-05 6.7134 9.34616e-05 14.9962V23.0004C9.34616e-05 24.6575 1.34179 25.9964 2.99614 25.9964C4.6505 25.9964 5.99219 24.6575 5.99219 23.0004V14.9962C5.99219 10.0348 10.0271 6.0041 14.9963 6.0041H22.9885C24.6488 6.0041 25.9965 4.65918 25.9965 3.00805C25.9965 1.34631 24.6502 0 22.9885 0Z" fill="#202244"/>
    <path d="M209.008 0H217C225.283 0 231.996 6.7134 231.996 14.9962V23.0004C231.996 24.6575 230.654 25.9964 229 25.9964C227.345 25.9964 226.004 24.6575 226.004 23.0004V14.9962C226.004 10.0348 221.969 6.0041 217 6.0041H209.008C207.347 6.0041 205.999 4.65918 205.999 3.00805C205.999 1.34631 207.346 0 209.008 0Z" fill="#202244"/>
    <path d="M22.9885 236H14.9963C6.71349 236 9.34616e-05 229.287 9.34616e-05 221.004V213C9.34616e-05 211.342 1.34179 210.004 2.99614 210.004C4.6505 210.004 5.99219 211.342 5.99219 213V221.004C5.99219 225.965 10.0271 229.996 14.9963 229.996H22.9885C24.6488 229.996 25.9965 231.341 25.9965 232.992C25.9965 234.654 24.6502 236 22.9885 236Z" fill="#202244"/>
    <path d="M209.008 236H217C225.283 236 231.996 229.287 231.996 221.004V213C231.996 211.342 230.654 210.004 229 210.004C227.345 210.004 226.004 211.342 226.004 213V221.004C226.004 225.965 221.969 229.996 217 229.996H209.008C207.347 229.996 205.999 231.341 205.999 232.992C205.999 234.654 207.346 236 209.008 236Z" fill="#202244"/>
</svg>
