<svg width="20" height="20" viewBox="0 0 20 20" fill="none" xmlns="http://www.w3.org/2000/svg">
    <path d="M18.3334 6.29183C18.3334 6.84183 17.8834 7.29183 17.3334 7.29183H2.66675C2.11675 7.29183 1.66675 6.84183 1.66675 6.29183V6.2835C1.66675 4.37516 3.20841 2.8335 5.11675 2.8335H14.8751C16.7834 2.8335 18.3334 4.3835 18.3334 6.29183Z" fill="#1E2857"/>
    <path d="M1.66675 9.5415V13.7165C1.66675 15.6248 3.20841 17.1665 5.11675 17.1665H14.8751C16.7834 17.1665 18.3334 15.6165 18.3334 13.7082V9.5415C18.3334 8.9915 17.8834 8.5415 17.3334 8.5415H2.66675C2.11675 8.5415 1.66675 8.9915 1.66675 9.5415ZM6.66675 14.3748H5.00008C4.65841 14.3748 4.37508 14.0915 4.37508 13.7498C4.37508 13.4082 4.65841 13.1248 5.00008 13.1248H6.66675C7.00841 13.1248 7.29175 13.4082 7.29175 13.7498C7.29175 14.0915 7.00841 14.3748 6.66675 14.3748ZM12.0834 14.3748H8.75008C8.40841 14.3748 8.12508 14.0915 8.12508 13.7498C8.12508 13.4082 8.40841 13.1248 8.75008 13.1248H12.0834C12.4251 13.1248 12.7084 13.4082 12.7084 13.7498C12.7084 14.0915 12.4251 14.3748 12.0834 14.3748Z" fill="#1E2857"/>
</svg>
