<svg width="13" height="16" viewBox="0 0 13 16" fill="none" xmlns="http://www.w3.org/2000/svg">
    <path fill-rule="evenodd" clip-rule="evenodd" d="M9.39971 4.83105H3.3751C3.03111 4.83105 2.75272 5.11264 2.75272 5.46543C2.75272 5.81582 3.03111 6.09661 3.3751 6.09661H9.39971C9.7437 6.09661 10.0245 5.81582 10.0245 5.46543C10.0245 5.11264 9.7437 4.83105 9.39971 4.83105ZM8.85573 0C11.0245 0 12.7748 0.855974 12.7996 3.03111V15.1747C12.7996 15.3123 12.7684 15.4467 12.7028 15.5683C12.5996 15.7587 12.4244 15.9027 12.2092 15.9683C11.9996 16.0307 11.7684 15.9995 11.5748 15.8867L6.3902 13.2964L1.19996 15.8867C1.08157 15.9491 0.943971 15.9899 0.809575 15.9899C0.359189 15.9899 0 15.6243 0 15.1747V3.03111C0 0.855974 1.75915 0 3.91828 0H8.85573Z" fill="#167F71"/>
</svg>
