<svg width="16" height="20" viewBox="0 0 16 20" fill="none" xmlns="http://www.w3.org/2000/svg">
    <path fill-rule="evenodd" clip-rule="evenodd" d="M14.8677 18.4615C14.8677 18.7469 14.6362 18.9785 14.3508 18.9785H5.12V4.09846H14.8677V18.4615ZM1.02154 17.9446V3.84615L1.22923 3.95462L1.43615 4.02308H1.50538L1.68231 4.06231H4.09846V18.9785H2.04308C1.47846 18.9723 1.02154 18.5123 1.02154 17.9446ZM2.04308 1.02154H13.5815C13.41 1.33692 13.32 1.69462 13.3292 2.05538C13.3292 2.41308 13.4254 2.76769 13.6054 3.07692H2.06692C1.53538 3.03154 1.12692 2.58385 1.12692 2.04923C1.12692 1.51462 1.53538 1.07 2.06692 1.02154H2.04308ZM15.3846 3.07692C14.9938 3.11 14.6215 2.92385 14.4169 2.59C14.2123 2.26 14.2123 1.84231 14.4169 1.50846C14.6215 1.17769 14.9938 0.988462 15.3846 1.02154C15.6431 0.991539 15.8354 0.772308 15.8354 0.510769C15.8354 0.252308 15.6431 0.0330769 15.3846 0H2.04308C0.913077 0.00307692 0 0.922308 0 2.05538V17.9446C0 19.0777 0.913077 19.9969 2.04308 20H14.3508C15.2015 20 15.8892 19.3115 15.8892 18.4615V3.59385C15.8892 3.31154 15.6638 3.08 15.3846 3.07692Z" fill="black"/>
    <path fill-rule="evenodd" clip-rule="evenodd" d="M6.65838 17.9448H9.23069C9.48915 17.9148 9.68145 17.6955 9.68145 17.434C9.68145 17.1755 9.48915 16.9563 9.23069 16.9232H6.65838C6.39992 16.9563 6.20761 17.1755 6.20761 17.434C6.20761 17.6955 6.39992 17.9148 6.65838 17.9448ZM6.65838 15.9017H10.2522C10.5376 15.9017 10.7691 15.6702 10.7691 15.3848C10.7691 15.0994 10.5376 14.8678 10.2522 14.8678H6.65838C6.37607 14.8678 6.14453 15.0994 6.14453 15.3848C6.14453 15.6702 6.37607 15.9017 6.65838 15.9017ZM6.65838 13.8463H9.23069C9.48915 13.8132 9.68145 13.594 9.68145 13.3355C9.68145 13.074 9.48915 12.8548 9.23069 12.8248H6.65838C6.39992 12.8548 6.20761 13.074 6.20761 13.3355C6.20761 13.594 6.39992 13.8132 6.65838 13.8463ZM7.1753 7.94477H12.8122V6.4063H7.1753V7.94477ZM6.65838 8.97861H13.3291C13.6145 8.97861 13.8461 8.74707 13.8461 8.46169V5.90169C13.8461 5.6163 13.6145 5.38477 13.3291 5.38477H6.65838C6.37915 5.38784 6.15376 5.61938 6.15376 5.90169V8.46169C6.15376 8.744 6.37915 8.97246 6.65838 8.97861Z" fill="black"/>
</svg>
