<svg width="22" height="22" viewBox="0 0 22 22" fill="none" xmlns="http://www.w3.org/2000/svg">
    <path d="M19.9884 9.20475H19.25V9.16671H11V12.8334H16.1806C15.4248 14.9678 13.3939 16.5 11 16.5C7.96267 16.5 5.50004 14.0374 5.50004 11C5.50004 7.96267 7.96267 5.50004 11 5.50004C12.4021 5.50004 13.6776 6.02896 14.6488 6.89292L17.2416 4.30012C15.6045 2.77433 13.4145 1.83337 11 1.83337C5.93775 1.83337 1.83337 5.93775 1.83337 11C1.83337 16.0623 5.93775 20.1667 11 20.1667C16.0623 20.1667 20.1667 16.0623 20.1667 11C20.1667 10.3854 20.1035 9.78546 19.9884 9.20475Z"
          fill="#FFC107"/>
    <path d="M2.89026 6.73342L5.90197 8.94212C6.71688 6.92454 8.69047 5.50004 11 5.50004C12.4021 5.50004 13.6776 6.02896 14.6488 6.89292L17.2416 4.30012C15.6044 2.77433 13.4145 1.83337 11 1.83337C7.47909 1.83337 4.42568 3.82117 2.89026 6.73342Z"
          fill="#FF3D00"/>
    <path d="M11 20.1666C13.3677 20.1666 15.5191 19.2605 17.1458 17.7869L14.3087 15.3862C13.3574 16.1096 12.1951 16.5009 11 16.4999C8.61573 16.4999 6.59127 14.9797 5.82861 12.858L2.83936 15.1612C4.35644 18.1298 7.43736 20.1666 11 20.1666Z"
          fill="#4CAF50"/>
    <path d="M19.9884 9.20467H19.25V9.16663H11V12.8333H16.1805C15.819 13.8491 15.1678 14.7368 14.3073 15.3867L14.3087 15.3858L17.1458 17.7865C16.945 17.9689 20.1667 15.5833 20.1667 11C20.1667 10.3853 20.1034 9.78538 19.9884 9.20467Z"
          fill="#1976D2"/>
</svg>