<svg width="23" height="21" viewBox="0 0 23 21" fill="none" xmlns="http://www.w3.org/2000/svg">
    <path fill-rule="evenodd" clip-rule="evenodd" d="M3.85941 15.8244L3.33198 17.7775C3.20395 18.251 3.9156 18.4409 4.0429 17.9697L4.57051 16.0165C4.69781 15.5466 3.98616 15.3537 3.85941 15.8244Z" fill="#1D1D1B"/>
    <path fill-rule="evenodd" clip-rule="evenodd" d="M6.62847 9.47658C7.71871 8.17707 10.0921 3.9053 11.1687 3.9053C11.4457 3.9053 12.2626 4.01694 12.926 4.22769C8.55213 8.59083 10.9815 6.17438 4.95185 12.1557C4.85901 12.2473 4.84021 12.3768 4.80724 12.5012C4.62946 12.2473 4.46532 11.8564 4.64807 11.401C4.96696 10.6064 6.05222 10.1647 6.62847 9.47658ZM17.3228 0.882192L18.701 2.20049C14.8402 6.03031 16.2075 4.67609 12.3446 8.50738C11.8998 8.52967 10.5296 8.60078 9.49849 8.68368C10.5469 7.64301 8.876 9.30746 17.3228 0.882192ZM14.2868 14.1032C14.3436 13.7318 14.2551 13.2611 14.1306 12.9072C14.371 12.9028 15.6029 13.4468 15.8455 13.5525C15.4216 13.8578 14.7761 14.0809 14.2868 14.1032ZM10.898 14.2664C11.34 13.9341 11.6371 13.4448 11.7285 12.8993L13.334 12.9151C13.5153 13.3361 13.6758 13.8318 13.4672 14.2399C12.8943 15.2863 11.4809 15.2704 10.898 14.2664ZM7.17267 11.0023C7.25686 11.6147 7.67781 12.3156 8.16066 12.6574L7.62162 13.1914L6.28453 11.8709C7.31876 10.8454 7.04887 11.1073 7.17267 11.0023ZM6.88325 13.9239L5.06405 14.3874L5.54118 12.6084L5.76133 12.3897L7.09843 13.7102L6.88325 13.9239ZM10.2346 13.8174L10.2339 13.8182H10.2332C9.63002 14.1297 8.89184 13.9808 8.45634 13.4591L9.06519 12.8552C9.30413 12.8676 9.81572 12.879 10.9772 12.8913C10.8743 13.2928 10.6038 13.6303 10.2346 13.8174ZM21.7385 20.263H0.850674L3.41322 10.8677H4.09043C3.57368 11.7759 3.89331 12.7589 4.58046 13.3467L4.18972 14.804C4.11916 15.0711 4.36105 15.3264 4.63665 15.2566L7.1279 14.6219C7.20362 14.6105 7.27325 14.5744 7.32723 14.5212L7.90661 13.9469C8.43552 14.5658 9.31776 14.9106 10.2439 14.6068C10.7002 15.392 11.4105 15.7582 12.1826 15.7582C12.8792 15.7582 13.5593 15.4207 13.9716 14.827C14.9871 14.9421 16.2385 14.2995 16.5874 13.8808C17.5877 14.3218 18.4088 14.8329 21.7342 14.8717H21.7377C22.2228 14.8717 22.2263 14.1406 21.7422 14.1349C16.8536 14.0779 16.5939 12.6321 14.2363 12.1572L14.2336 12.1565C13.3563 11.9839 10.3203 12.2523 8.99979 12.1141C8.28648 11.942 7.80732 11.2571 7.90017 10.5504V10.5475C7.99449 9.96809 8.3622 9.57459 8.5665 9.52337C8.5665 9.52337 11.992 9.29162 17.0811 8.74116C17.5654 8.68866 17.4855 7.95821 17.0012 8.00869L13.5125 8.38635C15.2619 6.65059 16.1449 5.77351 16.3311 5.58855C18.1065 6.04339 21.7377 7.31067 21.7377 7.31067C22.1508 7.31067 22.2501 6.7276 21.8566 6.59312C20.469 6.11966 18.855 5.50362 16.9385 4.9854L19.4874 2.45749C19.6566 2.28763 19.6164 2.05293 19.4832 1.92932L17.5719 0.101454C17.428 -0.0374508 17.1955 -0.0317399 17.0574 0.106428L13.5024 3.65199C12.6749 3.31891 11.5148 3.1684 11.1687 3.1684C9.53146 3.1684 7.34676 7.47315 6.06364 9.00313C5.75636 9.36936 5.20295 9.68899 4.70868 10.1308H3.13191C2.96574 10.1308 2.82039 10.2424 2.77636 10.4029L0.0130099 20.5351C-0.0172028 20.6459 0.00582517 20.7639 0.0756458 20.8553C0.145466 20.9467 0.253421 20.9999 0.368561 20.9999H21.7385C22.225 20.9999 22.2257 20.263 21.7385 20.263Z" fill="#1D1D1B"/>
</svg>
