<svg width="18" height="16" viewBox="0 0 18 16" fill="none" xmlns="http://www.w3.org/2000/svg">
    <path fill-rule="evenodd" clip-rule="evenodd" d="M9.2015 13.7191L9.02571 13.8804L8.66667 14.2043L8.30762 13.8805L8.13217 13.7192C6.03142 11.7909 4.21712 10.1253 3.01775 8.63625C1.85287 7.18979 1.33333 6.00537 1.33333 4.79558C1.33333 3.84292 1.68425 2.96517 2.32146 2.32404C2.95654 1.68521 3.82487 1.33333 4.76658 1.33333C5.85563 1.33333 6.93213 1.84033 7.64633 2.68946L8.66667 3.9025L9.687 2.68946C10.4012 1.84033 11.4777 1.33333 12.5667 1.33333C13.5085 1.33333 14.3768 1.68521 15.0119 2.32404C15.6491 2.96517 16 3.84292 16 4.79558C16 6.00537 15.4805 7.18979 14.3158 8.63608C13.1164 10.1253 11.3022 11.7907 9.2015 13.7191ZM12.5667 0C11.05 0 9.62012 0.697583 8.66667 1.83104C7.71321 0.697583 6.28338 0 4.76658 0C2.07992 0 0 2.09262 0 4.79558C0 8.10875 2.94663 10.7684 7.40983 14.8662L8.66667 16L9.9235 14.8662C14.3867 10.7684 17.3333 8.10875 17.3333 4.79558C17.3333 2.09262 15.2534 0 12.5667 0Z" fill="#1D1D1B"/>
</svg>
