<svg width="28" height="23" viewBox="0 0 28 23" fill="none" xmlns="http://www.w3.org/2000/svg">
    <path fill-rule="evenodd" clip-rule="evenodd" d="M1.64198 12.9684H22.3943L15.3453 19.9391C14.723 20.574 14.7361 21.5888 15.365 22.2156C15.9988 22.8375 17.0251 22.8505 17.6671 22.2351L27.5189 12.4927C27.8276 12.189 28 11.7766 28 11.3512V11.3447C28 11.1352 27.9557 10.9193 27.872 10.7228C27.7882 10.5263 27.6667 10.3493 27.5189 10.1967L17.6671 0.454319C17.0185 -0.161076 15.9988 -0.148086 15.365 0.473804C14.7296 1.10056 14.723 2.1154 15.3453 2.75028L22.3943 9.72096H1.64198C0.737248 9.72096 0 10.45 0 11.3447C0 12.2394 0.737248 12.9684 1.64198 12.9684Z" fill="white"/>
</svg>
