<svg width="22" height="22" viewBox="0 0 22 22" fill="none" xmlns="http://www.w3.org/2000/svg">
<path d="M13.75 4.5835V6.41683M13.75 10.0835V11.9168M13.75 15.5835V17.4168M4.58333 4.5835H17.4167C17.9029 4.5835 18.3692 4.77665 18.713 5.12047C19.0568 5.46428 19.25 5.9306 19.25 6.41683V9.16683C18.7638 9.16683 18.2975 9.35998 17.9536 9.7038C17.6098 10.0476 17.4167 10.5139 17.4167 11.0002C17.4167 11.4864 17.6098 11.9527 17.9536 12.2965C18.2975 12.6403 18.7638 12.8335 19.25 12.8335V15.5835C19.25 16.0697 19.0568 16.536 18.713 16.8799C18.3692 17.2237 17.9029 17.4168 17.4167 17.4168H4.58333C4.0971 17.4168 3.63079 17.2237 3.28697 16.8799C2.94315 16.536 2.75 16.0697 2.75 15.5835V12.8335C3.23623 12.8335 3.70255 12.6403 4.04636 12.2965C4.39018 11.9527 4.58333 11.4864 4.58333 11.0002C4.58333 10.5139 4.39018 10.0476 4.04636 9.7038C3.70255 9.35998 3.23623 9.16683 2.75 9.16683V6.41683C2.75 5.9306 2.94315 5.46428 3.28697 5.12047C3.63079 4.77665 4.0971 4.5835 4.58333 4.5835" stroke="#9CA3AF" stroke-width="1.5" stroke-linecap="round" stroke-linejoin="round"/>
</svg>
