<svg width="22" height="22" viewBox="0 0 22 22" fill="none" xmlns="http://www.w3.org/2000/svg">
<path d="M7.33335 13.7498C7.33335 12.7373 6.51254 11.9165 5.50002 11.9165C4.4875 11.9165 3.66669 12.7373 3.66669 13.7498V15.5832C3.66669 16.5957 4.4875 17.4165 5.50002 17.4165C6.51254 17.4165 7.33335 16.5957 7.33335 15.5832V13.7498Z" stroke="#9CA3AF" stroke-width="1.5" stroke-linecap="round" stroke-linejoin="round"/>
<path d="M18.3334 13.7498C18.3334 12.7373 17.5125 11.9165 16.5 11.9165C15.4875 11.9165 14.6667 12.7373 14.6667 13.7498V15.5832C14.6667 16.5957 15.4875 17.4165 16.5 17.4165C17.5125 17.4165 18.3334 16.5957 18.3334 15.5832V13.7498Z" stroke="#9CA3AF" stroke-width="1.5" stroke-linecap="round" stroke-linejoin="round"/>
<path d="M3.66669 13.7498V10.9998C3.66669 9.05492 4.4393 7.18965 5.81457 5.81439C7.18984 4.43912 9.0551 3.6665 11 3.6665C12.9449 3.6665 14.8102 4.43912 16.1855 5.81439C17.5607 7.18965 18.3334 9.05492 18.3334 10.9998V13.7498M16.5 17.4165C16.5 18.1458 15.9206 18.8453 14.8891 19.361C13.8577 19.8768 12.4587 20.1665 11 20.1665" stroke="#9CA3AF" stroke-width="1.5" stroke-linecap="round" stroke-linejoin="round"/>
</svg>
