<svg width="20" height="20" viewBox="0 0 20 20" fill="none" xmlns="http://www.w3.org/2000/svg">
    <path d="M16.2501 10.4168C16.2501 9.26683 17.1834 8.3335 18.3334 8.3335V7.50016C18.3334 4.16683 17.5001 3.3335 14.1667 3.3335H5.83341C2.50008 3.3335 1.66675 4.16683 1.66675 7.50016V7.91683C2.81675 7.91683 3.75008 8.85016 3.75008 10.0002C3.75008 11.1502 2.81675 12.0835 1.66675 12.0835V12.5002C1.66675 15.8335 2.50008 16.6668 5.83341 16.6668H14.1667C17.5001 16.6668 18.3334 15.8335 18.3334 12.5002C17.1834 12.5002 16.2501 11.5668 16.2501 10.4168Z" stroke="#111827" stroke-width="1.5" stroke-linecap="round" stroke-linejoin="round"/>
    <path d="M7.5 12.2915L12.5 7.2915" stroke="#111827" stroke-width="1.5" stroke-linecap="round" stroke-linejoin="round"/>
    <path d="M12.4953 12.2917H12.5028" stroke="#111827" stroke-width="2" stroke-linecap="round" stroke-linejoin="round"/>
    <path d="M7.49534 7.70817H7.50283" stroke="#111827" stroke-width="2" stroke-linecap="round" stroke-linejoin="round"/>
</svg>
