<svg width="15" height="23" viewBox="0 0 15 23" fill="none" xmlns="http://www.w3.org/2000/svg">
    <path fill-rule="evenodd" clip-rule="evenodd" d="M2.66132 1.45163C1.9926 1.45163 1.45163 1.9926 1.45163 2.66132V20.0809C1.45163 20.7496 1.9926 21.2906 2.66132 21.2906H12.3388C13.0076 21.2906 13.5485 20.7496 13.5485 20.0809V2.66132C13.5485 1.9926 13.0076 1.45163 12.3388 1.45163H2.66132ZM0 2.66132C0 1.19034 1.19034 0 2.66132 0H12.3388C13.8098 0 15.0002 1.19034 15.0002 2.66132V20.0809C15.0002 21.5518 13.8098 22.7422 12.3388 22.7422H2.66132C1.19034 22.7422 0 21.5518 0 20.0809V2.66132Z" fill="#1D1D1B"/>
    <path fill-rule="evenodd" clip-rule="evenodd" d="M4.8386 19.1131C4.8386 18.7125 5.16376 18.3873 5.56441 18.3873H9.43542C9.83607 18.3873 10.1612 18.7125 10.1612 19.1131C10.1612 19.5138 9.83607 19.8389 9.43542 19.8389H5.56441C5.16376 19.8389 4.8386 19.5138 4.8386 19.1131ZM4.80472 1.45163L4.97892 1.80292C5.02053 1.88228 5.10279 1.93551 5.19376 1.93551H9.80607C9.89704 1.93551 9.9793 1.88228 10.0209 1.80292L10.1951 1.45163H4.80472ZM3.01245 0.343552C3.14503 0.132582 3.37535 0 3.62891 0H11.3709C11.6206 0 11.8548 0.132582 11.9874 0.343552C12.119 0.559361 12.1306 0.824525 12.0213 1.05098L11.3177 2.44938C11.0341 3.02423 10.4448 3.38713 9.80607 3.38713H5.19376C4.55504 3.38713 3.96568 3.02423 3.68213 2.44938L2.97858 1.05098C2.86535 0.824525 2.88083 0.55549 3.01245 0.343552Z" fill="#1D1D1B"/>
</svg>
