<svg width="116" height="116" viewBox="0 0 116 116" fill="none" xmlns="http://www.w3.org/2000/svg">
    <path fill-rule="evenodd" clip-rule="evenodd" d="M110.2 88.9333H5.8C2.5984 88.9333 0 86.3349 0 83.1333V5.8C0 2.5984 2.5984 0 5.8 0H110.2C113.402 0 116 2.5984 116 5.8V83.1333C116 86.3349 113.402 88.9333 110.2 88.9333Z" fill="#0455BF"/>
    <path fill-rule="evenodd" clip-rule="evenodd" d="M98.6 81.2H11.6C9.4656 81.2 7.73334 79.4677 7.73334 77.3333V11.6C7.73334 9.4656 9.4656 7.73334 11.6 7.73334H96.6667C98.8011 7.73334 100.533 9.4656 100.533 11.6V79.2667C100.533 80.3339 99.6672 81.2 98.6 81.2Z" fill="#FDFEFF"/>
    <path fill-rule="evenodd" clip-rule="evenodd" d="M11.6 77.3333V11.6C11.6 9.4656 13.3323 7.73334 15.4667 7.73334H11.6C9.4656 7.73334 7.73334 9.4656 7.73334 11.6V77.3333C7.73334 79.4677 9.4656 81.2 11.6 81.2H15.4667C13.3323 81.2 11.6 79.4677 11.6 77.3333Z" fill="#DFEAEF"/>
    <path fill-rule="evenodd" clip-rule="evenodd" d="M75.4 44.4667C75.4 54.0741 67.6074 61.8667 58 61.8667C48.3926 61.8667 40.6 54.0741 40.6 44.4667C40.6 34.8593 48.3926 27.0667 58 27.0667C67.6074 27.0667 75.4 34.8593 75.4 44.4667Z" fill="#0455BF"/>
    <path fill-rule="evenodd" clip-rule="evenodd" d="M65.7333 52.2C65.7333 50.8209 66.4783 49.5526 67.6667 48.8669C65.0992 47.346 61.8461 49.2098 61.8667 52.2V58C63.1659 58 64.4651 57.8479 65.7333 57.5566V52.2Z" fill="#004787"/>
    <path fill-rule="evenodd" clip-rule="evenodd" d="M61.8667 58C55.3217 58.0103 49.3309 54.3447 46.3588 48.5138C43.3892 42.6854 43.9434 35.6868 47.7894 30.3894C43.6624 33.3797 41.0537 38.0222 40.6516 43.0979C40.2469 48.1735 42.09 53.1667 45.6963 56.7704C49.2897 60.3664 54.2854 62.2095 59.3585 61.8074C64.4341 61.4027 69.087 58.7965 72.0669 54.6669C69.1077 56.8323 65.5323 58 61.8667 58Z" fill="#004787"/>
    <path fill-rule="evenodd" clip-rule="evenodd" d="M54.1333 52.2C53.0661 52.2 52.2 51.3339 52.2 50.2667V38.6667C52.2 37.2257 53.7106 36.2899 54.9995 36.9344L66.5995 42.7344C67.7775 43.3299 68.0301 44.8997 67.1021 45.8251C66.8005 46.1293 66.8005 46.1293 54.9995 51.9886C54.7262 52.1304 54.4349 52.2 54.1333 52.2Z" fill="#FEBC00"/>
    <path fill-rule="evenodd" clip-rule="evenodd" d="M66.5992 42.7347L66.2203 42.5439L58.8659 46.1992C57.577 46.8436 56.0664 45.9079 56.0664 44.4669V37.4683L54.9992 36.9347C53.7103 36.2902 52.1998 37.226 52.1998 38.6669V50.2669C52.1894 51.7079 53.7 52.6436 54.9889 52.0095C66.7797 46.1476 66.7797 46.1476 67.0916 45.846C68.0196 44.9103 67.767 43.3379 66.5889 42.7553L66.5992 42.7347Z" fill="#EDAA03"/>
    <path fill-rule="evenodd" clip-rule="evenodd" d="M36.7333 65.7333H19.3333V69.6H73.4666V65.7333H36.7333Z" fill="#0455BF"/>
    <path fill-rule="evenodd" clip-rule="evenodd" d="M108.267 40.6C110.401 40.6 112.133 42.7344 112.133 44.4667C112.133 46.6011 110.401 48.3333 108.267 48.3333C106.132 48.3333 104.4 46.1989 104.4 44.4667C104.4 42.3323 106.132 40.6 108.267 40.6Z" fill="#FEBC00"/>
    <path fill-rule="evenodd" clip-rule="evenodd" d="M110.2 46.4C107.39 46.4103 105.519 43.5 106.686 40.9532C104.209 42.0487 103.603 45.3019 105.519 47.2146C107.442 49.1376 110.685 48.5344 111.79 46.0572C111.288 46.2788 110.744 46.4 110.2 46.4Z" fill="#EDAA03"/>
    <path fill-rule="evenodd" clip-rule="evenodd" d="M92.8 77.3333C90.6656 77.3333 88.9334 79.0656 88.9334 81.2V75.4C88.9334 70.2445 81.2 70.2445 81.2 75.4V67.6667C81.2 62.5111 73.4667 62.5111 73.4667 67.6667V52.2C73.4667 47.0445 65.7334 47.0445 65.7334 52.2V91.1992C65.7334 93.3439 63.1453 94.4111 61.6347 92.9005L54.1334 85.3992C52.6331 83.8474 50.1455 83.8293 48.6246 85.358C47.096 86.8789 47.1141 89.3664 48.6659 90.8667L56.8632 99.0743L60.3149 102.518C63.8902 106.091 65.9035 110.945 65.9035 116H91.6632V115.276C91.6632 112.497 92.5371 109.788 94.1585 107.522C95.7902 105.266 96.6667 102.557 96.6667 99.7781V81.2C96.6667 79.0656 94.9344 77.3333 92.8 77.3333Z" fill="#ECC19C"/>
    <path fill-rule="evenodd" clip-rule="evenodd" d="M30.9333 71.5333C27.4894 71.5333 25.7675 67.3651 28.1957 64.9291C30.6317 62.5008 34.8 64.2228 34.8 67.6667C34.8 69.8011 33.0677 71.5333 30.9333 71.5333Z" fill="#FEBC00"/>
    <path fill-rule="evenodd" clip-rule="evenodd" d="M32.8667 69.6C30.0569 69.6103 28.1854 66.7 29.3531 64.1531C26.8759 65.2487 26.2701 68.5018 28.1854 70.4146C30.1084 72.3376 33.3513 71.7344 34.4571 69.2571C33.9545 69.4788 33.4106 69.6 32.8667 69.6Z" fill="#EDAA03"/>
    <path fill-rule="evenodd" clip-rule="evenodd" d="M48.6656 85.3989C48.9079 85.1669 49.1786 84.9659 49.4622 84.7957C46.5699 83.1021 43.0461 85.6619 43.7524 88.9331H47.6191C47.3458 87.6545 47.7402 86.3244 48.6656 85.3989ZM61.8664 88.9331H65.7331V81.1997H61.8664V88.9331Z" fill="#004787"/>
    <mask id="mask0_0_30" style="mask-type:luminance" maskUnits="userSpaceOnUse" x="0" y="0" width="116" height="116">
        <path fill-rule="evenodd" clip-rule="evenodd" d="M0 116H116V0H0V116Z" fill="white"/>
    </mask>
    <g mask="url(#mask0_0_30)">
        <path fill-rule="evenodd" clip-rule="evenodd" d="M61.8666 81.2H65.7333V69.6H61.8666V81.2ZM65.7333 60.0339C65.2796 60.2556 64.8182 60.4669 64.3542 60.6474C64.1918 60.7093 64.032 60.7685 63.8593 60.8304C63.4262 60.9902 62.9854 61.1217 62.5317 61.2429C62.3409 61.2918 62.1296 61.3537 61.9259 61.4027L61.8563 61.4233V65.7333H65.723L65.7333 60.0339Z" fill="#DFEAEF"/>
        <path fill-rule="evenodd" clip-rule="evenodd" d="M65.7333 57.5569C64.465 57.8482 63.1658 58.0003 61.8666 58.0003V61.4132L61.9362 61.4029C62.7637 61.2019 63.568 60.9492 64.3542 60.6476C64.8259 60.4569 65.2899 60.2661 65.7333 60.0238V57.5569ZM61.8666 69.6003H65.7333V65.7336H61.8666V69.6003Z" fill="#004787"/>
    </g>
</svg>
