<svg width="24" height="24" viewBox="0 0 24 24" fill="none" xmlns="http://www.w3.org/2000/svg">
    <path fill-rule="evenodd" clip-rule="evenodd"
          d="M19.6913 8.8419C18.7015 7.60854 17.3129 6.89502 16.002 6.89502C14.2678 6.89502 13.535 7.71894 12.3319 7.71894C11.0918 7.71894 10.1489 6.89622 8.64888 6.89622C7.17552 6.89622 5.60904 7.79118 4.61592 9.3207C3.2184 11.4716 3.45504 15.5185 5.72112 18.967C6.5316 20.2001 7.614 21.5869 9.02928 21.6001C10.2871 21.6116 10.643 20.7977 12.3497 20.7881C14.0566 20.7788 14.3794 21.6089 15.637 21.5972C17.0522 21.5837 18.1942 20.0482 19.0042 18.8149C19.5847 17.9314 19.801 17.485 20.2519 16.4864C16.9757 15.2485 16.4489 10.6191 19.6913 8.8419Z"
          fill="#111827"/>
    <path fill-rule="evenodd" clip-rule="evenodd"
          d="M14.6865 5.51714C15.3165 4.70882 15.7951 3.5669 15.6213 2.40002C14.5922 2.47106 13.3884 3.12554 12.6857 3.97922C12.0477 4.75394 11.5209 5.90282 11.7259 7.01954C12.8493 7.05434 14.0119 6.38306 14.6865 5.51714Z"
          fill="#111827"/>
</svg>