<svg width="20" height="20" viewBox="0 0 20 20" fill="none" xmlns="http://www.w3.org/2000/svg">
    <path fill-rule="evenodd" clip-rule="evenodd" d="M18.0173 16.6612L17.5035 17.1782C15.3921 19.2863 10.7335 18.9032 5.91342 14.0798C1.09412 9.26054 0.706923 4.59952 2.81907 2.48738L3.33047 1.97354C3.80939 1.49868 4.58298 1.49868 5.06191 1.97354L6.84611 3.76262C7.3153 4.2318 7.32261 4.99241 6.86154 5.47458C5.73403 6.61264 5.55301 8.38548 6.43132 9.72647C7.44274 11.2387 8.74315 12.5392 10.2579 13.5473C11.5964 14.4256 13.366 14.2511 14.5041 13.126C14.9862 12.6625 15.7501 12.6658 16.2225 13.1382L18.0108 14.9232C18.2421 15.1521 18.372 15.4655 18.3753 15.7926C18.3753 16.1157 18.2486 16.4298 18.0173 16.6612ZM19.1651 13.7787L17.3801 11.9937C16.2704 10.8938 14.4878 10.8873 13.3717 11.9774C12.7791 12.5708 11.8497 12.6625 11.1556 12.1934C9.82764 11.3053 8.68227 10.1672 7.79504 8.83843C7.33397 8.13465 7.43057 7.20927 8.02557 6.61589C9.10438 5.4965 9.09058 3.72447 8.00122 2.61725L6.21296 0.832237C5.09844 -0.277412 3.29881 -0.277412 2.18591 0.832237L1.67127 1.34932C-1.00504 4.02562 -0.804538 9.65666 4.76562 15.2276C8.12704 18.5891 11.5104 19.9966 14.2532 19.9966C15.8832 20.051 17.4685 19.4487 18.6513 18.3228L19.1651 17.809C20.278 16.6961 20.278 14.8916 19.1651 13.7787Z" fill="#1D1D1B"/>
</svg>
