<svg width="22" height="22" viewBox="0 0 22 22" fill="none" xmlns="http://www.w3.org/2000/svg">
    <path fill-rule="evenodd" clip-rule="evenodd" d="M19.8466 15.004L16.7368 14.6452C15.9945 14.5594 15.2535 14.8179 14.7268 15.3433L12.4732 17.597C8.9959 15.832 6.1678 13.0039 4.40284 9.52543L6.6663 7.26197C7.19052 6.73652 7.44896 5.99918 7.36445 5.25449L7.01047 2.16672C6.86594 0.928432 5.8175 -0.00488007 4.57553 1.9199e-05H2.45415C1.06643 1.9199e-05 -0.0812248 1.14767 0.00451253 2.53049C0.652441 12.9941 9.0204 21.3486 19.4681 21.9941C20.8509 22.0798 21.9998 20.9322 21.9998 19.5444V17.4255C22.0145 16.1909 21.0812 15.1473 19.8466 15.004Z" fill="white"/>
</svg>
