<svg width="24" height="16" viewBox="0 0 24 16" fill="none" xmlns="http://www.w3.org/2000/svg">
    <path fill-rule="evenodd" clip-rule="evenodd" d="M0 16H23.9998V0H0V16Z" fill="#F3F3F3"/>
    <path fill-rule="evenodd" clip-rule="evenodd" d="M0 3.99953H23.9998V1.99967H0V3.99953ZM0 7.99963H23.9998V5.99995H0V7.99963ZM0 11.9993H23.9998V9.99948H0V11.9993ZM0 15.9994H23.9998V13.9995H0V15.9994Z" fill="#D80027"/>
    <path fill-rule="evenodd" clip-rule="evenodd" d="M0 8.61537H11.9999V0H0V8.61537Z" fill="#2E52B2"/>
    <path fill-rule="evenodd" clip-rule="evenodd" d="M9.963 1.38373L9.76964 1.97824H9.14471L9.65044 2.34555L9.45708 2.94011L9.963 2.5728L10.4685 2.94011L10.2752 2.34555L10.7811 1.97824H10.156L9.963 1.38373ZM7.321 1.38373L7.12779 1.97824H6.50271L7.00844 2.34555L6.81527 2.94011L7.321 2.5728L7.82655 2.94011L7.63338 2.34555L8.13911 1.97824H7.51399L7.321 1.38373ZM9.963 3.52932L9.76964 4.12388H9.14471L9.65044 4.49119L9.45708 5.08551L9.963 4.71839L10.4685 5.08551L10.2752 4.49119L10.7811 4.12388H10.156L9.963 3.52932ZM10.156 6.26929L9.963 5.67491L9.76964 6.26929H9.14471L9.65044 6.63659L9.45708 7.23115L9.963 6.86384L10.4685 7.23115L10.2752 6.63659L10.7811 6.26929H10.156ZM7.51399 6.26929L7.321 5.67491L7.12779 6.26929H6.50271L7.00844 6.63659L6.81527 7.23115L7.321 6.86384L7.82655 7.23115L7.63338 6.63659L8.13911 6.26929H7.51399ZM7.321 3.52932L7.12779 4.12388H6.50271L7.00844 4.49119L6.81527 5.08551L7.321 4.71839L7.82655 5.08551L7.63338 4.49119L8.13911 4.12388H7.51399L7.321 3.52932ZM2.03715 1.38373L1.8438 1.97824H1.21867L1.72459 2.34555L1.53123 2.94011L2.03715 2.5728L2.5427 2.94011L2.34934 2.34555L2.85507 1.97824H2.23014L2.03715 1.38373ZM4.67896 1.38373L4.48579 1.97824H3.86067L4.3664 2.34555L4.17323 2.94011L4.67896 2.5728L5.1845 2.94011L4.99133 2.34555L5.49706 1.97824H4.87199L4.67896 1.38373ZM2.03715 3.52932L1.8438 4.12388H1.21867L1.72459 4.49119L1.53123 5.08551L2.03715 4.71839L2.5427 5.08551L2.34934 4.49119L2.85507 4.12388H2.23014L2.03715 3.52932ZM2.23014 6.26929L2.03715 5.67491L1.8438 6.26929H1.21867L1.72459 6.63659L1.53123 7.23115L2.03715 6.86384L2.5427 7.23115L2.34934 6.63659L2.85507 6.26929H2.23014ZM4.87199 6.26929L4.67896 5.67491L4.48579 6.26929H3.86067L4.3664 6.63659L4.17323 7.23115L4.67896 6.86384L5.1845 7.23115L4.99133 6.63659L5.49706 6.26929H4.87199ZM4.67896 3.52932L4.48579 4.12388H3.86067L4.3664 4.49119L4.17323 5.08551L4.67896 4.71839L5.1845 5.08551L4.99133 4.49119L5.49706 4.12388H4.87199L4.67896 3.52932Z" fill="#F3F3F3"/>
</svg>
