<svg width="18" height="18" viewBox="0 0 18 18" fill="none" xmlns="http://www.w3.org/2000/svg">
    <path d="M12 9.00018V9.00768M2.25 15.0002L3.225 12.0752C2.38233 10.8289 2.0775 9.35299 2.36716 7.92191C2.65683 6.49082 3.5213 5.20194 4.79983 4.29489C6.07835 3.38784 7.68394 2.92435 9.31807 2.99061C10.9522 3.05687 12.5036 3.64836 13.684 4.6551C14.8643 5.66185 15.5932 7.01534 15.735 8.46392C15.8769 9.9125 15.4222 11.3576 14.4554 12.5305C13.4886 13.7035 12.0755 14.5244 10.4788 14.8407C8.8822 15.157 7.21065 14.9472 5.775 14.2502L2.25 15.0002ZM9 9.00018V9.00768V9.00018ZM6 9.00018V9.00768V9.00018Z" stroke="#9CA3AF" stroke-width="1.5" stroke-linecap="round" stroke-linejoin="round"/>
</svg>
