<svg width="102" height="100" viewBox="0 0 102 100" fill="none" xmlns="http://www.w3.org/2000/svg">
    <path fill-rule="evenodd" clip-rule="evenodd" d="M93.2855 0L87.2493 14.0845V93.9638C87.2501 97.2978 84.5471 100 81.2131 100H15.0159L21.0521 89.0767V6.03622C21.0521 2.70221 23.7549 0 27.0883 0H93.2855Z" fill="#F0F0F2"/>
    <path fill-rule="evenodd" clip-rule="evenodd" d="M74.372 85.9155H8.37598V93.9638C8.37598 97.2978 11.0782 100 14.4122 100H81.4142" fill="#DADADC"/>
    <path fill-rule="evenodd" clip-rule="evenodd" d="M74.5732 85.9155V93.662C74.5732 97.1626 77.4107 100 80.9113 100C84.4113 100 87.2493 97.1626 87.2493 93.662V85.9155" fill="#F0F0F2"/>
    <path fill-rule="evenodd" clip-rule="evenodd" d="M66.9014 69.9195H45.1332C44.3002 69.9195 43.6241 69.2437 43.6241 68.4105C43.6241 67.5773 44.3002 66.9014 45.1332 66.9014H66.9014C67.7346 66.9014 68.4104 67.5773 68.4104 68.4105C68.4104 69.2437 67.7346 69.9195 66.9014 69.9195ZM64.7887 60.8652H45.1332C44.3002 60.8652 43.6241 60.1893 43.6241 59.3561C43.6241 58.5229 44.3002 57.8471 45.1332 57.8471H64.7887C65.6219 57.8471 66.2978 58.5229 66.2978 59.3561C66.2978 60.1893 65.6219 60.8652 64.7887 60.8652ZM66.9014 51.8109H45.1332C44.3002 51.8109 43.6241 51.135 43.6241 50.3018C43.6241 49.4686 44.3002 48.7928 45.1332 48.7928H66.9014C67.7346 48.7928 68.4104 49.4686 68.4104 50.3018C68.4104 51.135 67.7346 51.8109 66.9014 51.8109ZM73.843 42.7565H45.1332C44.3002 42.7565 43.6241 42.0807 43.6241 41.2475C43.6241 40.4143 44.3002 39.7384 45.1332 39.7384H73.843C74.6762 39.7384 75.3521 40.4143 75.3521 41.2475C75.3521 42.0807 74.6762 42.7565 73.843 42.7565ZM73.843 33.7022H30.0426C29.2096 33.7022 28.5336 33.0264 28.5336 32.1932C28.5336 31.36 29.2096 30.6841 30.0426 30.6841H73.843C74.6762 30.6841 75.3521 31.36 75.3521 32.1932C75.3521 33.0264 74.6762 33.7022 73.843 33.7022ZM93.6241 0C97.1452 0 100 2.85473 100 6.37585V14.0845H87.2493V6.37585C87.2493 2.85473 90.1032 0 93.6241 0Z" fill="#DADADC"/>
    <path fill-rule="evenodd" clip-rule="evenodd" d="M57.9476 56.338V99.9999H21.1267V56.338C21.1267 53.004 23.8289 50.3018 27.1629 50.3018H51.9114C55.2454 50.3018 57.9476 53.004 57.9476 56.338Z" fill="#E1E1E3"/>
    <path fill-rule="evenodd" clip-rule="evenodd" d="M44.165 56.3379H50.1006C50.9895 56.3379 51.7102 57.0586 51.7102 57.9475V64.185C51.7102 65.0739 50.9895 65.7946 50.1006 65.7946H44.165C43.276 65.7946 42.5553 65.0739 42.5553 64.185V57.9475C42.5553 57.0586 43.276 56.3379 44.165 56.3379Z" fill="#52BBE9"/>
    <path fill-rule="evenodd" clip-rule="evenodd" d="M44.165 71.8311H50.1006C50.9895 71.8311 51.7102 72.5518 51.7102 73.4407V79.6781C51.7102 80.5671 50.9895 81.2878 50.1006 81.2878H44.165C43.276 81.2878 42.5553 80.5671 42.5553 79.6781V73.4407C42.5553 72.5518 43.276 71.8311 44.165 71.8311Z" fill="#52BBE9"/>
    <path fill-rule="evenodd" clip-rule="evenodd" d="M39.839 50.3018V99.9999H21.1267V56.338C21.1267 53.004 23.8289 50.3018 27.1629 50.3018H39.839Z" fill="#C8C5CC"/>
    <path fill-rule="evenodd" clip-rule="evenodd" d="M6.03622 41.2476H30.7847C34.1187 41.2476 36.8209 43.9498 36.8209 47.2838V100H0V47.2838C0 43.9498 2.70221 41.2476 6.03622 41.2476Z" fill="#E1E1E3"/>
    <path fill-rule="evenodd" clip-rule="evenodd" d="M14.2638 78.2695H22.5572C24.2244 78.2695 25.5753 79.6206 25.5753 81.2876V99.9999H11.2457V81.2876C11.2457 79.6206 12.5966 78.2695 14.2638 78.2695Z" fill="#AEADB3"/>
    <path fill-rule="evenodd" clip-rule="evenodd" d="M22.5572 78.2695H19.5391C21.2063 78.2695 22.5572 79.6206 22.5572 81.2876V99.9999H25.5753V81.2876C25.5753 79.6206 24.2244 78.2695 22.5572 78.2695Z" fill="#8B8893"/>
    <path fill-rule="evenodd" clip-rule="evenodd" d="M7.64591 47.2837H13.7827C14.6717 47.2837 15.3924 48.0044 15.3924 48.8933V55.1308C15.3924 56.0197 14.6717 56.7404 13.7827 56.7404H7.64591C6.75698 56.7404 6.03625 56.0197 6.03625 55.1308V48.8933C6.03625 48.0044 6.75698 47.2837 7.64591 47.2837Z" fill="#52BBE9"/>
    <path fill-rule="evenodd" clip-rule="evenodd" d="M13.7828 47.2837H10.7646C11.6536 47.2837 12.3743 48.0044 12.3743 48.8933V55.1308C12.3743 56.0197 11.6536 56.7404 10.7646 56.7404H13.7828C14.6717 56.7404 15.3924 56.0197 15.3924 55.1308V48.8933C15.3924 48.0044 14.6717 47.2837 13.7828 47.2837Z" fill="#1CABE1"/>
    <path fill-rule="evenodd" clip-rule="evenodd" d="M23.0382 47.2837H28.9739C29.8628 47.2837 30.5835 48.0044 30.5835 48.8933V55.1308C30.5835 56.0197 29.8628 56.7404 28.9739 56.7404H23.0382C22.1493 56.7404 21.4286 56.0197 21.4286 55.1308V48.8933C21.4286 48.0044 22.1493 47.2837 23.0382 47.2837Z" fill="#52BBE9"/>
    <path fill-rule="evenodd" clip-rule="evenodd" d="M7.64591 62.7769H13.7827C14.6717 62.7769 15.3924 63.4976 15.3924 64.3865V70.6239C15.3924 71.5129 14.6717 72.2336 13.7827 72.2336H7.64591C6.75698 72.2336 6.03625 71.5129 6.03625 70.6239V64.3865C6.03625 63.4976 6.75698 62.7769 7.64591 62.7769Z" fill="#52BBE9"/>
    <path fill-rule="evenodd" clip-rule="evenodd" d="M13.7828 62.7769H10.7646C11.6536 62.7769 12.3743 63.4976 12.3743 64.3865V70.6239C12.3743 71.5129 11.6536 72.2336 10.7646 72.2336H13.7828C14.6717 72.2336 15.3924 71.5129 15.3924 70.6239V64.3865C15.3924 63.4976 14.6717 62.7769 13.7828 62.7769Z" fill="#1CABE1"/>
    <path fill-rule="evenodd" clip-rule="evenodd" d="M23.0382 62.7769H28.9739C29.8628 62.7769 30.5835 63.4976 30.5835 64.3865V70.6239C30.5835 71.5129 29.8628 72.2336 28.9739 72.2336H23.0382C22.1493 72.2336 21.4286 71.5129 21.4286 70.6239V64.3865C21.4286 63.4976 22.1493 62.7769 23.0382 62.7769Z" fill="#52BBE9"/>
    <path fill-rule="evenodd" clip-rule="evenodd" d="M29.2166 62.7766H25.9557C26.9161 62.7766 27.6948 63.4974 27.6948 64.3863V70.6237C27.6948 71.5127 26.9161 72.2334 25.9557 72.2334H29.2166C30.177 72.2334 30.9557 71.5127 30.9557 70.6237V64.3863C30.9557 63.4974 30.177 62.7766 29.2166 62.7766ZM29.2166 47.2837H25.9557C26.9161 47.2837 27.6948 48.0044 27.6948 48.8933V55.1308C27.6948 56.0197 26.9161 56.7404 25.9557 56.7404H29.2166C30.177 56.7404 30.9557 56.0197 30.9557 55.1308V48.8933C30.9557 48.0044 30.177 47.2837 29.2166 47.2837Z" fill="#1CABE1"/>
    <path fill-rule="evenodd" clip-rule="evenodd" d="M87.2493 41.0605V79.0605C87.0064 79.0699 86.7628 79.0746 86.5191 79.0746C76.0179 79.0746 67.505 70.5619 67.505 60.0605C67.505 49.5593 76.0179 41.0464 86.5191 41.0464C86.7628 41.0464 87.0064 41.0504 87.2493 41.0605Z" fill="#E1E1E3"/>
    <path fill-rule="evenodd" clip-rule="evenodd" d="M86.5191 46.7522C86.7643 46.7522 87.008 46.7586 87.2493 46.7727V43.4165C87.008 43.4041 86.7643 43.3984 86.5191 43.3984C77.3171 43.3984 69.8573 50.8582 69.8573 60.0602C69.8573 69.2622 77.3171 76.722 86.5191 76.722C86.7643 76.722 87.008 76.7163 87.2493 76.7039V73.3477C87.008 73.3618 86.7643 73.3683 86.5191 73.3683C79.1696 73.3683 73.211 67.4097 73.211 60.0602C73.211 52.7107 79.1696 46.7522 86.5191 46.7522Z" fill="#E1E1E3"/>
    <path fill-rule="evenodd" clip-rule="evenodd" d="M86.5191 75.0502C78.2404 75.0502 71.5292 68.3389 71.5292 60.0603C71.5292 51.7816 78.2404 45.0703 86.5191 45.0703C94.798 45.0703 101.509 51.7816 101.509 60.0603C101.5 68.3349 94.7938 75.0407 86.5191 75.0502Z" fill="#24B378"/>
    <mask id="mask0_0_3884" style="mask-type:luminance" maskUnits="userSpaceOnUse" x="83" y="45" width="19" height="31">
        <path fill-rule="evenodd" clip-rule="evenodd" d="M83.501 45.0703H101.509V75.0523H83.501V45.0703Z" fill="white"/>
    </mask>
    <g mask="url(#mask0_0_3884)">
        <path fill-rule="evenodd" clip-rule="evenodd" d="M86.5191 45.0703C85.5052 45.0695 84.4945 45.1717 83.501 45.3753C90.471 46.8089 95.4736 52.9442 95.4736 60.0603C95.4736 67.1764 90.471 73.3116 83.501 74.7452C89.1034 75.8959 94.8724 73.7597 98.373 69.2371C101.874 64.7148 102.496 58.5945 99.9772 53.4597C97.4589 48.325 92.2386 45.0703 86.5191 45.0703Z" fill="#19AC66"/>
    </g>
    <path fill-rule="evenodd" clip-rule="evenodd" d="M84.2296 65.3326C83.8296 65.3326 83.4459 65.1738 83.163 64.8909L80.2149 61.9426C79.8306 61.5615 79.6797 61.005 79.8188 60.4825C79.958 59.9597 80.3666 59.5519 80.8886 59.4126C81.4111 59.2736 81.9685 59.4245 82.3487 59.808L84.2304 61.6897L90.6894 55.2298C91.2789 54.6402 92.2338 54.6402 92.8234 55.2298C93.4129 55.8193 93.4129 56.775 92.8234 57.3644L85.297 64.8909C85.0141 65.1738 84.6304 65.3326 84.2296 65.3326Z" fill="white"/>
    <path fill-rule="evenodd" clip-rule="evenodd" d="M78.3324 15.7486H68.8262C67.993 15.7486 67.3171 15.0734 67.3171 14.2396C67.3171 13.4064 67.993 12.7305 68.8262 12.7305H78.3324C79.1664 12.7305 79.8415 13.4064 79.8415 14.2396C79.8415 15.0734 79.1664 15.7486 78.3324 15.7486ZM78.3324 10.5635H68.8262C67.993 10.5635 67.3171 9.88766 67.3171 9.05446C67.3171 8.22127 67.993 7.54541 68.8262 7.54541H78.3324C79.1664 7.54541 79.8415 8.22127 79.8415 9.05446C79.8415 9.88766 79.1664 10.5635 78.3324 10.5635Z" fill="#24B378"/>
    <path fill-rule="evenodd" clip-rule="evenodd" d="M75.7404 28.1732C75.3277 28.1738 74.9332 28.005 74.6486 27.7062L67.7354 20.4675C67.3181 20.0305 67.2016 19.3875 67.439 18.8319C67.6764 18.2762 68.2219 17.9162 68.8263 17.9162H70.5547C72.5855 17.9162 74.2313 16.2704 74.2313 14.2402C74.2313 12.2094 72.5855 10.5635 70.5547 10.5635H68.8263C67.9931 10.5635 67.3173 9.88766 67.3173 9.05446C67.3173 8.22127 67.9931 7.54541 68.8263 7.54541H70.5547C73.9382 7.54541 76.7889 10.07 77.2 13.4283C77.6102 16.7869 75.4505 19.9229 72.1674 20.7378L76.8313 25.6219C77.2486 26.0581 77.3658 26.7017 77.1277 27.2575C76.8903 27.813 76.3448 28.1732 75.7404 28.1732Z" fill="#24B378"/>
    <path fill-rule="evenodd" clip-rule="evenodd" d="M31.3883 9.0542H60.7778C61.8893 9.0542 62.7899 9.955 62.7899 11.0663V22.1327C62.7899 23.2439 61.8893 24.1447 60.7778 24.1447H31.3883C30.277 24.1447 29.3762 23.2439 29.3762 22.1327V11.0663C29.3762 9.955 30.277 9.0542 31.3883 9.0542Z" fill="#DADADC"/>
</svg>
