<svg width="22" height="22" viewBox="0 0 22 22" fill="none" xmlns="http://www.w3.org/2000/svg">
<path d="M11 4.46875V6.875H13.4063C13.8822 6.875 14.3474 6.73388 14.7431 6.46947C15.1388 6.20507 15.4472 5.82927 15.6293 5.38958C15.8115 4.9499 15.8591 4.46608 15.7663 3.99932C15.6734 3.53255 15.4442 3.1038 15.1077 2.76728C14.7712 2.43076 14.3425 2.20158 13.8757 2.10874C13.4089 2.01589 12.9251 2.06354 12.4854 2.24567C12.0457 2.42779 11.6699 2.7362 11.4055 3.13191C11.1411 3.52762 11 3.99284 11 4.46875V4.46875ZM11 4.46875V6.875H8.59375C8.11784 6.875 7.65262 6.73388 7.25691 6.46947C6.8612 6.20507 6.55279 5.82927 6.37067 5.38958C6.18854 4.9499 6.14089 4.46608 6.23374 3.99932C6.32658 3.53255 6.55576 3.1038 6.89228 2.76728C7.2288 2.43076 7.65755 2.20158 8.12431 2.10874C8.59108 2.01589 9.0749 2.06354 9.51458 2.24567C9.95427 2.42779 10.3301 2.7362 10.5945 3.13191C10.8589 3.52762 11 3.99284 11 4.46875V4.46875Z" stroke="#9CA3AF" stroke-width="1.5" stroke-miterlimit="10" stroke-linecap="round"/>
<path d="M17.875 6.875H4.125C3.36561 6.875 2.75 7.49061 2.75 8.25V10.3125C2.75 11.0719 3.36561 11.6875 4.125 11.6875H17.875C18.6344 11.6875 19.25 11.0719 19.25 10.3125V8.25C19.25 7.49061 18.6344 6.875 17.875 6.875Z" stroke="#9CA3AF" stroke-width="1.5" stroke-linecap="round" stroke-linejoin="round"/>
<path d="M17.875 11.6875V17.875C17.875 18.422 17.6577 18.9466 17.2709 19.3334C16.8841 19.7202 16.3595 19.9375 15.8125 19.9375H6.1875C5.64049 19.9375 5.11589 19.7202 4.72909 19.3334C4.3423 18.9466 4.125 18.422 4.125 17.875V11.6875M11 6.875V19.9375" stroke="#9CA3AF" stroke-width="1.5" stroke-linecap="round" stroke-linejoin="round"/>
</svg>
