<svg width="140" height="142" viewBox="0 0 140 142" fill="none" xmlns="http://www.w3.org/2000/svg">
    <mask id="mask0_0_673" style="mask-type:luminance" maskUnits="userSpaceOnUse" x="0" y="0" width="140" height="142">
        <path fill-rule="evenodd" clip-rule="evenodd" d="M0 0H139.669V142H0V0Z" fill="white"/>
    </mask>
    <g mask="url(#mask0_0_673)">
        <path fill-rule="evenodd" clip-rule="evenodd" d="M69.8318 123.069C41.0767 123.069 17.7634 99.7532 17.7634 71.0003C17.7634 42.2429 41.0767 18.9319 69.8318 18.9319C98.587 18.9319 121.9 42.2429 121.9 71.0003C121.9 99.7532 98.587 123.069 69.8318 123.069ZM138.031 83.2032L134.758 82.1382C133.668 81.7809 132.986 80.6885 133.148 79.5524C133.925 73.8724 133.925 68.1191 133.148 62.4482C132.986 61.3122 133.668 60.2197 134.758 59.8624L138.031 58.7974C139.275 58.3943 139.957 57.0614 139.552 55.8177L135.159 42.3093C134.758 41.0657 133.425 40.3832 132.191 40.7886L128.9 41.8513C127.814 42.2017 126.625 41.7161 126.096 40.7061C123.378 35.6582 119.986 31.0088 116.032 26.8656C115.226 26.0434 115.128 24.7722 115.799 23.8424L117.84 21.0436C118.6 19.9877 118.366 18.5013 117.31 17.7318L105.822 9.39495C104.759 8.6254 103.282 8.85672 102.515 9.91256L100.493 12.7022C99.81 13.6344 98.5595 13.9298 97.5403 13.4191C92.3779 10.9318 86.9131 9.15217 81.2766 8.13297C80.1383 7.94517 79.3161 6.96032 79.3069 5.81516V2.37966C79.3069 1.74523 79.055 1.14517 78.6176 0.698552C78.1709 0.249646 77.5617 0 76.9365 0H62.7272C61.4217 0 60.3659 1.05584 60.3659 2.35904V5.79454C60.3567 6.95116 59.5253 7.92684 58.3985 8.11465C52.762 9.14301 47.295 10.9249 42.1325 13.4099C41.1042 13.9206 39.8605 13.6137 39.1803 12.6862L37.1488 9.91256C36.3815 8.85672 34.9043 8.6254 33.8392 9.39495L22.3532 17.7318C21.2974 18.5013 21.0638 19.9786 21.8333 21.0436L23.8648 23.8309C24.5359 24.7722 24.4374 26.0434 23.6312 26.8656C19.6781 31.0088 16.2953 35.6582 13.5767 40.7061C13.0384 41.7161 11.8589 42.2017 10.7664 41.8513L7.48209 40.7886C6.23844 40.3832 4.90546 41.0657 4.50465 42.3002L0.111794 55.8177C-0.282144 57.0614 0.398086 58.3852 1.63258 58.7974L4.91462 59.8624C6.00711 60.2197 6.67818 61.3122 6.51557 62.4482C5.73914 68.1191 5.73914 73.8724 6.51557 79.5433C6.67818 80.6885 6.00711 81.7809 4.91462 82.1382L1.63258 83.2032C0.398086 83.6063 -0.282144 84.9393 0.111794 86.183L4.50465 99.6914C4.90546 100.935 6.23844 101.615 7.48209 101.212L10.7664 100.147C11.8589 99.799 13.0384 100.282 13.5767 101.292C16.2953 106.329 19.6781 110.992 23.6312 115.133C24.4374 115.948 24.5359 117.226 23.8648 118.156L21.8333 120.957C21.0638 122.013 21.2974 123.49 22.3532 124.26L33.8392 132.606C34.9043 133.375 36.3815 133.142 37.1488 132.088L39.1711 129.296C39.8514 128.366 41.1042 128.071 42.1234 128.579C47.2858 131.067 52.7528 132.849 58.3893 133.868C59.5253 134.056 60.3476 135.04 60.3567 136.186V139.621C60.3567 140.255 60.6087 140.856 61.0461 141.302C61.4927 141.749 62.102 142.001 62.7272 142.001H76.9365C78.2419 142.001 79.2978 140.945 79.2978 139.637V136.202C79.307 135.047 80.1383 134.074 81.2675 133.886C86.904 132.855 92.3664 131.076 97.5311 128.588C98.5595 128.08 99.8009 128.382 100.483 129.315L102.506 132.095C103.275 133.16 104.759 133.394 105.813 132.624L117.304 124.276C118.359 123.506 118.593 122.031 117.823 120.966L115.79 118.174C115.119 117.244 115.217 115.964 116.023 115.142C119.979 110.999 123.368 106.347 126.087 101.301C126.616 100.291 127.805 99.8082 128.89 100.156L132.182 101.221C133.416 101.624 134.749 100.944 135.152 99.7097L139.545 86.1898C139.74 85.6012 139.687 84.9462 139.41 84.3828C139.124 83.8285 138.633 83.4002 138.031 83.2032Z" fill="#6B8199"/>
    </g>
    <path fill-rule="evenodd" clip-rule="evenodd" d="M101.629 53.5537C101.629 48.499 97.8891 44.2389 92.8779 43.5862C87.8781 42.9335 83.1623 46.1101 81.8843 50.9863C80.604 55.8716 83.144 60.9423 87.8231 62.841V70.4266L83.8082 74.4347L87.8163 78.452L83.8082 82.4692L87.8163 86.4773V91.1748L91.5907 96.1929L95.3583 91.1748V62.841C99.142 61.3111 101.62 57.6328 101.629 53.5537Z" fill="#5AB3A0"/>
    <path fill-rule="evenodd" clip-rule="evenodd" d="M49.2182 57.2577C49.2182 52.1937 53.3156 48.0963 58.3795 48.0963C63.4434 48.0963 67.5408 52.1937 67.5408 57.2577V66.419H49.2182V57.2577ZM74.4118 66.419H72.1215V57.2577C72.1215 49.6721 65.9651 43.5157 58.3795 43.5157C50.7939 43.5157 44.6375 49.6721 44.6375 57.2577V66.419H42.3472C41.0852 66.419 40.0568 67.4473 40.0568 68.7093V93.903C40.0568 95.165 41.0852 96.1933 42.3472 96.1933H74.4118C75.6738 96.1933 76.7022 95.165 76.7022 93.903V68.7093C76.7022 67.4473 75.6738 66.419 74.4118 66.419Z" fill="#D9777D"/>
    <mask id="mask1_0_673" style="mask-type:luminance" maskUnits="userSpaceOnUse" x="0" y="-1" width="140" height="143">
        <path fill-rule="evenodd" clip-rule="evenodd" d="M0 142H139.669V-0.000686649H0V142Z" fill="white"/>
    </mask>
    <g mask="url(#mask1_0_673)">
        <path fill-rule="evenodd" clip-rule="evenodd" d="M56.0901 84.7417H60.6708V77.8707H56.0901V84.7417Z" fill="#F5F5F5"/>
        <path fill-rule="evenodd" clip-rule="evenodd" d="M94.4538 50.9592C94.4538 52.5419 93.1712 53.8222 91.5909 53.8222C90.0083 53.8222 88.728 52.5419 88.728 50.9592C88.728 49.3766 90.0083 48.0963 91.5909 48.0963C93.1712 48.0963 94.4538 49.3766 94.4538 50.9592Z" fill="#F5F5F5"/>
    </g>
</svg>
