<svg width="20" height="20" viewBox="0 0 20 20" fill="none" xmlns="http://www.w3.org/2000/svg">
    <path d="M10.8333 10.0002C10.8333 9.53993 10.4602 9.16683 10 9.16683C9.53976 9.16683 9.16666 9.53993 9.16666 10.0002C9.16666 10.4604 9.53976 10.8335 10 10.8335C10.4602 10.8335 10.8333 10.4604 10.8333 10.0002Z" stroke="#9CA3AF" stroke-width="2" stroke-linecap="round" stroke-linejoin="round"/>
    <path d="M16.6667 10.0002C16.6667 9.53993 16.2936 9.16683 15.8333 9.16683C15.3731 9.16683 15 9.53993 15 10.0002C15 10.4604 15.3731 10.8335 15.8333 10.8335C16.2936 10.8335 16.6667 10.4604 16.6667 10.0002Z" stroke="#9CA3AF" stroke-width="2" stroke-linecap="round" stroke-linejoin="round"/>
    <path d="M5 10.0002C5 9.53993 4.6269 9.16683 4.16667 9.16683C3.70643 9.16683 3.33333 9.53993 3.33333 10.0002C3.33333 10.4604 3.70643 10.8335 4.16667 10.8335C4.6269 10.8335 5 10.4604 5 10.0002Z" stroke="#9CA3AF" stroke-width="2" stroke-linecap="round" stroke-linejoin="round"/>
</svg>
