<svg width="19" height="18" viewBox="0 0 19 18" fill="none" xmlns="http://www.w3.org/2000/svg">
    <path fill-rule="evenodd" clip-rule="evenodd" d="M4.03483 1.0862C5.29618 1.0862 6.32074 2.11211 6.32074 3.37211C6.32074 4.63237 5.29618 5.65801 4.03483 5.65801C2.77484 5.65801 1.75001 4.63237 1.75001 3.37211C1.75001 2.11211 2.77484 1.0862 4.03483 1.0862ZM4.03483 6.74421C5.8944 6.74421 7.40694 5.23168 7.40694 3.37211C7.40694 1.5128 5.8944 0 4.03483 0C2.17661 0 0.663811 1.5128 0.663811 3.37211C0.663811 5.23168 2.17553 6.74421 4.03483 6.74421Z" fill="#1D1D1B"/>
    <path fill-rule="evenodd" clip-rule="evenodd" d="M2.8118 3.37209L2.81099 3.30013C2.8099 3.26945 2.8099 3.26945 2.81615 3.23333C2.84384 3.08588 2.74717 2.94359 2.60081 2.91616C2.45336 2.88846 2.31134 2.98405 2.28255 3.1315C2.2687 3.19287 2.26463 3.2556 2.26789 3.31806L2.2687 3.37209C2.27305 3.51846 2.3928 3.63523 2.54025 3.63523C2.68689 3.63523 2.80664 3.51955 2.8118 3.37209Z" fill="#1D1D1B"/>
    <path fill-rule="evenodd" clip-rule="evenodd" d="M2.79179 2.81215C2.88303 2.81215 2.96803 2.76762 3.01772 2.69131C3.24473 2.35188 3.62653 2.14821 4.03494 2.14821C4.18565 2.14821 4.30649 2.0271 4.30649 1.87666C4.30649 1.72704 4.18565 1.60511 4.03494 1.60511C3.44541 1.60511 2.89471 1.89893 2.56695 2.38881C2.51182 2.47272 2.50639 2.57971 2.5531 2.66796C2.5998 2.75703 2.69213 2.81215 2.79179 2.81215Z" fill="#1D1D1B"/>
    <path fill-rule="evenodd" clip-rule="evenodd" d="M11.6384 1.0862C12.8997 1.0862 13.9243 2.11211 13.9243 3.37211C13.9243 4.63237 12.8997 5.65801 11.6384 5.65801C10.3781 5.65801 9.35249 4.63237 9.35249 3.37211C9.35331 2.11211 10.3781 1.0862 11.6384 1.0862ZM11.6384 6.74421C13.498 6.74421 15.0105 5.23168 15.0105 3.37211C15.0105 1.5128 13.498 0 11.6384 0C9.77882 0 8.26629 1.5128 8.26629 3.37211C8.26711 5.23168 9.77991 6.74421 11.6384 6.74421Z" fill="#1D1D1B"/>
    <path fill-rule="evenodd" clip-rule="evenodd" d="M10.3951 2.81215C10.4863 2.81215 10.571 2.76762 10.621 2.69131C10.848 2.35188 11.2298 2.14821 11.6382 2.14821C11.7889 2.14821 11.9098 2.0271 11.9098 1.87666C11.9098 1.72704 11.7889 1.60511 11.6382 1.60511C11.0484 1.60511 10.498 1.89893 10.1702 2.38881C10.114 2.47272 10.1086 2.57971 10.1564 2.66796C10.2031 2.75703 10.2954 2.81215 10.3951 2.81215Z" fill="#1D1D1B"/>
    <path fill-rule="evenodd" clip-rule="evenodd" d="M17.411 16.3397C17.3357 16.3229 17.2551 16.2973 17.1989 16.2794C13.5457 14.3563 13.4184 14.353 13.2571 14.353C13.1074 14.353 12.9643 14.4082 12.8614 14.5173C12.7585 14.6257 12.7055 14.7582 12.715 14.9078L12.7946 16.221C12.7873 16.6422 12.4402 16.9138 11.999 16.9138H1.9147C1.45333 16.9138 1.0862 16.7185 1.0862 16.2973V9.19875C1.0862 8.73956 1.49027 8.22525 1.9147 8.22525V8.22416H11.999C12.4256 8.22416 12.7862 8.65049 12.7946 9.09285L12.715 10.2649C12.7045 10.4156 12.7574 10.5638 12.8592 10.6744C12.9622 10.7846 13.1064 10.8473 13.2571 10.8473C13.4341 10.8473 13.4819 10.8473 17.2317 8.84031C17.3059 8.80528 17.3621 8.7841 17.4036 8.77242C17.4099 8.8213 17.4142 8.89245 17.412 8.99944L17.411 16.3397ZM18.1545 7.94718C17.9763 7.76578 17.7547 7.6683 17.4843 7.6683C17.2646 7.6683 17.0281 7.72668 16.7405 7.86544C15.7849 8.37569 14.8269 8.87968 13.867 9.38015L13.8797 9.17649C13.8808 9.16399 13.8819 9.12353 13.8819 9.10968C13.8819 8.05336 13.0376 7.13905 11.999 7.13905H1.9147C0.894214 7.13905 0 8.14242 0 9.19875V16.2973C0 17.3135 0.859184 18 1.9147 18H11.999C13.0461 18 13.867 17.2543 13.8808 16.2294C13.8797 16.2316 13.8797 16.2324 13.8797 16.2305L13.8523 15.7787C14.5735 16.1404 15.6948 16.7218 16.7332 17.2689C16.7628 17.2847 16.7905 17.2988 16.8222 17.3083C17.1055 17.3952 17.3303 17.4558 17.5478 17.4569C17.9351 17.4536 18.1694 17.2649 18.2829 17.1068C18.4187 16.92 18.4654 16.678 18.4654 16.3514V9.01654C18.4654 8.80012 18.4928 8.29096 18.1545 7.94718Z" fill="#1D1D1B"/>
    <path fill-rule="evenodd" clip-rule="evenodd" d="M13.8798 16.2304L13.8809 16.2135C13.8809 16.2198 13.8798 16.2249 13.8798 16.2304Z" fill="#1D1D1B"/>
    <path fill-rule="evenodd" clip-rule="evenodd" d="M17.5554 17.4579L17.548 17.4569L17.5393 17.4579H17.5554Z" fill="#1D1D1B"/>
    <path fill-rule="evenodd" clip-rule="evenodd" d="M4.91954 8.76723H2.61354C2.06827 8.76723 1.62917 9.43959 1.62917 9.9425V11.3225C1.62917 11.4721 1.75001 11.5927 1.90072 11.5927C2.05035 11.5927 2.17227 11.4721 2.17227 11.3212V9.94114C2.17227 9.68887 2.41531 9.31142 2.61354 9.31142H4.91954C5.07025 9.31142 5.19109 9.18922 5.19109 9.03878C5.19109 8.88916 5.07025 8.76723 4.91954 8.76723Z" fill="#1D1D1B"/>
    <path fill-rule="evenodd" clip-rule="evenodd" d="M6.27753 8.76834H6.00598C5.85636 8.76834 5.73443 8.88918 5.73443 9.03989C5.73443 9.18925 5.85636 9.31144 6.00598 9.31144H6.27753C6.42824 9.31144 6.54908 9.18925 6.54908 9.03989C6.54908 8.88918 6.42824 8.76834 6.27753 8.76834Z" fill="#1D1D1B"/>
</svg>
