<svg width="14" height="14" viewBox="0 0 14 14" fill="none" xmlns="http://www.w3.org/2000/svg">
    <path d="M5.24996 6.41667C6.53862 6.41667 7.58329 5.372 7.58329 4.08333C7.58329 2.79467 6.53862 1.75 5.24996 1.75C3.96129 1.75 2.91663 2.79467 2.91663 4.08333C2.91663 5.372 3.96129 6.41667 5.24996 6.41667Z" stroke="#6B7280" stroke-width="1.2" stroke-linecap="round" stroke-linejoin="round"/>
    <path d="M1.75 12.2501V11.0834C1.75 10.4646 1.99583 9.8711 2.43342 9.43351C2.871 8.99593 3.46449 8.75009 4.08333 8.75009H6.41667C7.0355 8.75009 7.629 8.99593 8.06658 9.43351C8.50417 9.8711 8.75 10.4646 8.75 11.0834V12.2501M9.33333 1.82593C9.83524 1.95444 10.2801 2.24634 10.5978 2.65561C10.9155 3.06488 11.0879 3.56824 11.0879 4.08634C11.0879 4.60444 10.9155 5.10781 10.5978 5.51708C10.2801 5.92635 9.83524 6.21825 9.33333 6.34676M12.25 12.2501V11.0834C12.247 10.5684 12.0738 10.0689 11.7572 9.66266C11.4407 9.25643 10.9986 8.96634 10.5 8.83759" stroke="#6B7280" stroke-width="1.2" stroke-linecap="round" stroke-linejoin="round"/>
</svg>
