<svg width="24" height="24" viewBox="0 0 24 24" fill="none" xmlns="http://www.w3.org/2000/svg">
    <path fill-rule="evenodd" clip-rule="evenodd" d="M9.61767 23.7562C9.20151 23.6745 8.93531 23.2703 9.01705 22.8571C9.09878 22.441 9.50294 22.1748 9.91535 22.2565C15.285 23.3048 20.5601 20.0542 22.0395 14.7874C23.516 9.51748 20.6981 3.9994 15.5632 2.10455C10.432 0.211952 4.70546 2.5762 2.40645 7.5409C0.103688 12.5056 2.00453 18.4046 6.76752 21.0935C7.12745 21.302 7.25117 21.7616 7.04571 22.1216C6.83801 22.4822 6.37761 22.6052 6.01768 22.3997C0.598583 19.2804 -1.51972 12.5236 1.15272 6.86979C3.82665 1.21974 10.3908 -1.43395 16.2403 0.777332C22.089 2.98561 25.2616 9.31952 23.5272 15.3265C21.7936 21.3342 15.7364 25.0009 9.60867 23.7562H9.61767Z" fill="#202244"/>
    <path fill-rule="evenodd" clip-rule="evenodd" d="M12.016 4.50057C7.87468 4.50057 4.51764 7.85761 4.51764 11.999C4.51764 16.1404 7.87468 19.4974 12.016 19.4974C16.1574 19.4974 19.5145 16.1404 19.5145 11.999C19.5145 7.85761 16.1574 4.50057 12.016 4.50057ZM12.016 20.9971C7.04535 20.9971 3.01796 16.9697 3.01796 11.999C3.01796 7.02829 7.04535 3.00089 12.016 3.00089C16.9867 3.00089 21.0141 7.02829 21.0141 11.999C21.0141 16.9697 16.9867 20.9971 12.016 20.9971Z" fill="#202244"/>
    <path fill-rule="evenodd" clip-rule="evenodd" d="M12.0161 17.9978C11.603 17.9978 11.2663 17.6611 11.2663 17.2479C11.2663 16.8348 11.603 16.4981 12.0161 16.4981C12.4293 16.4981 12.766 16.8348 12.766 17.2479C12.766 17.6611 12.4293 17.9978 12.0161 17.9978ZM12.0161 14.9984C11.603 14.9984 11.2663 14.6617 11.2663 14.2486C11.2663 13.1913 11.9022 12.236 12.877 11.8266C14.0017 11.3812 14.5731 10.1244 14.1689 8.98468C13.7648 7.84267 12.5313 7.22781 11.3773 7.58773C10.2233 7.9514 9.56191 9.16089 9.87759 10.3269C9.98332 10.7281 9.74037 11.1382 9.3392 11.2402C8.93804 11.3459 8.52788 11.103 8.42515 10.7018C7.92426 8.76273 9.03702 6.7734 10.9499 6.18478C12.8627 5.59315 14.9015 6.60919 15.5809 8.49279C16.2602 10.3764 15.3409 12.4617 13.4926 13.2295C13.0644 13.3877 12.775 13.7919 12.766 14.2486C12.766 14.6617 12.4293 14.9984 12.0161 14.9984Z" fill="#202244"/>
</svg>
