<svg width="14" height="14" viewBox="0 0 14 14" fill="none" xmlns="http://www.w3.org/2000/svg">
    <path fill-rule="evenodd" clip-rule="evenodd" d="M9.25034 4.74966C9.00184 4.5018 8.59839 4.5018 8.34989 4.74966L7 6.10018L5.65043 4.7503C5.3997 4.51166 5.00516 4.51675 4.76111 4.76095C4.51691 5.00516 4.51166 5.3997 4.7503 5.65027L6.10034 7L4.7503 8.34973C4.51166 8.6003 4.51691 8.99484 4.76111 9.23905C5.00516 9.48325 5.3997 9.48834 5.65043 9.2497L7 7.89982L8.34989 9.2497C8.6003 9.48834 8.995 9.48325 9.2392 9.23905C9.48341 8.99484 9.48834 8.6003 9.2497 8.34973L7.89998 7L9.2497 5.65027C9.49836 5.40161 9.49836 4.99895 9.25034 4.74966ZM12.7273 12.0909C12.7273 12.4427 12.4427 12.7273 12.0909 12.7273H1.90909C1.5575 12.7273 1.27273 12.4427 1.27273 12.0909V1.90909C1.27273 1.55734 1.5575 1.27273 1.90909 1.27273H12.0909C12.4427 1.27273 12.7273 1.55734 12.7273 1.90909V12.0909ZM12.0909 0H1.90909C0.854636 0 0 0.854477 0 1.90909V12.0909C0 13.1455 0.854636 14 1.90909 14H12.0909C13.1455 14 14 13.1455 14 12.0909V1.90909C14 0.854477 13.1455 0 12.0909 0Z" fill="#FF001E"/>
</svg>
