<svg width="15" height="19" viewBox="0 0 15 19" fill="none" xmlns="http://www.w3.org/2000/svg">
    <path fill-rule="evenodd" clip-rule="evenodd" d="M10.6743 0.300049H4.46609C1.90649 0.300049 0.299988 2.08565 0.299988 4.95485V16.7916C0.299988 17.625 0.960588 18.3 1.77329 18.3C2.01899 18.3 2.26199 18.237 2.47979 18.1173L7.53149 15.312L13.413 18.1344C13.5714 18.2019 13.7505 18.2019 13.9125 18.1344C14.07 18.0678 14.1969 17.9382 14.2635 17.7762C14.3625 17.4738 14.2428 17.1435 13.9791 16.9815L8.13629 14.187C7.75199 13.9692 7.29299 13.9692 6.90959 14.187L1.85069 16.9815C1.79399 17.013 1.72379 17.013 1.66439 16.9815C1.61129 16.9464 1.57979 16.8834 1.57979 16.8132V4.95485C1.58699 2.83445 2.62739 1.62575 4.48949 1.62575H10.695C13.0863 1.62575 13.4337 3.61205 13.4337 4.80365V5.34455H6.71609C6.54689 5.35175 6.38579 5.42555 6.26609 5.55245C6.14999 5.68205 6.09059 5.85125 6.09689 6.02675C6.10319 6.37505 6.37859 6.65315 6.71609 6.66305H13.413V13.6137C13.413 13.9755 13.701 14.2707 14.0565 14.2707C14.4075 14.2707 14.6964 13.9827 14.7 13.6209V4.80365C14.7 2.02265 13.1637 0.300049 10.6743 0.300049Z" fill="#167F71"/>
    <path d="M10.6743 0.300049H4.46609C1.90649 0.300049 0.299988 2.08565 0.299988 4.95485V16.7916C0.299988 17.625 0.960588 18.3 1.77329 18.3C2.01899 18.3 2.26199 18.237 2.47979 18.1173L7.53149 15.312L13.413 18.1344C13.5714 18.2019 13.7505 18.2019 13.9125 18.1344C14.07 18.0678 14.1969 17.9382 14.2635 17.7762C14.3625 17.4738 14.2428 17.1435 13.9791 16.9815L8.13629 14.187C7.75199 13.9692 7.29299 13.9692 6.90959 14.187L1.85069 16.9815C1.79399 17.013 1.72379 17.013 1.66439 16.9815C1.61129 16.9464 1.57979 16.8834 1.57979 16.8132V4.95485C1.58699 2.83445 2.62739 1.62575 4.48949 1.62575H10.695C13.0863 1.62575 13.4337 3.61205 13.4337 4.80365V5.34455H6.71609C6.54689 5.35175 6.38579 5.42555 6.26609 5.55245C6.14999 5.68205 6.09059 5.85125 6.09689 6.02675C6.10319 6.37505 6.37859 6.65315 6.71609 6.66305H13.413V13.6137C13.413 13.9755 13.701 14.2707 14.0565 14.2707C14.4075 14.2707 14.6964 13.9827 14.7 13.6209V4.80365C14.7 2.02265 13.1637 0.300049 10.6743 0.300049" stroke="#167F71" stroke-width="0.6" stroke-linecap="round" stroke-linejoin="round"/>
</svg>
