<svg width="14" height="16" viewBox="0 0 14 16" fill="none" xmlns="http://www.w3.org/2000/svg">
    <path fill-rule="evenodd" clip-rule="evenodd" d="M11.7657 12.5714L10.2857 14.0583V13.1429C10.2857 12.828 10.5423 12.5714 10.8571 12.5714H11.7657ZM4 2.28571C3.05371 2.28571 2.28571 3.05371 2.28571 4V12.5714H1.71429C1.39943 12.5714 1.14286 12.3149 1.14286 12V1.71429C1.14286 1.39943 1.39943 1.14286 1.71429 1.14286H9.71429C10.0291 1.14286 10.2857 1.39943 10.2857 1.71429V2.28571H4ZM9.71429 0H1.71429C0.768 0 0 0.768 0 1.71429V12C0 12.9463 0.768 13.7143 1.71429 13.7143H2.28571V14.2857C2.28571 15.232 3.05371 16 4 16H9.71429C9.86629 16 10.0114 15.9417 10.1206 15.8349L13.5491 12.4063C13.6566 12.2971 13.7143 12.152 13.7143 12V4C13.7143 3.05371 12.9463 2.28571 12 2.28571H11.4286V1.71429C11.4286 0.768 10.6606 0 9.71429 0Z" fill="#202244"/>
</svg>
