<svg width="24" height="24" viewBox="0 0 24 24" fill="none" xmlns="http://www.w3.org/2000/svg">
    <path d="M1.70711 0.292893C1.31658 -0.0976311 0.683417 -0.0976311 0.292893 0.292893C-0.0976311 0.683417 -0.0976311 1.31658 0.292893 1.70711L1.70711 0.292893ZM22.2929 23.7071C22.6834 24.0976 23.3166 24.0976 23.7071 23.7071C24.0976 23.3166 24.0976 22.6834 23.7071 22.2929L22.2929 23.7071ZM10.66 4C10.1077 4 9.66 4.44772 9.66 5C9.66 5.55228 10.1077 6 10.66 6V4ZM16 10.34H15C15 10.6052 15.1054 10.8596 15.2929 11.0471L16 10.34ZM17 11.34L16.2929 12.0471C16.6402 12.3944 17.1882 12.4381 17.5861 12.1503L17 11.34ZM23 7H24C24 6.62434 23.7895 6.28037 23.4549 6.10947C23.1204 5.93857 22.7183 5.96958 22.4139 6.18975L23 7ZM22 17C22 17.5523 22.4477 18 23 18C23.5523 18 24 17.5523 24 17H22ZM17 16C17 15.4477 16.5523 15 16 15C15.4477 15 15 15.4477 15 16H17ZM5 6C5.55228 6 6 5.55228 6 5C6 4.44772 5.55228 4 5 4V6ZM0.292893 1.70711L22.2929 23.7071L23.7071 22.2929L1.70711 0.292893L0.292893 1.70711ZM10.66 6H14V4H10.66V6ZM14 6C14.5527 6 15 6.44728 15 7H17C17 5.34272 15.6573 4 14 4V6ZM15 7V10.34H17V7H15ZM15.2929 11.0471L16.2929 12.0471L17.7071 10.6329L16.7071 9.63289L15.2929 11.0471ZM17.5861 12.1503L23.5861 7.81025L22.4139 6.18975L16.4139 10.5297L17.5861 12.1503ZM22 7V17H24V7H22ZM15 16V17H17V16H15ZM15 17C15 17.5527 14.5527 18 14 18V20C15.6573 20 17 18.6573 17 17H15ZM14 18H3V20H14V18ZM3 18C2.44728 18 2 17.5527 2 17H0C0 18.6573 1.34272 20 3 20V18ZM2 17V7H0V17H2ZM2 7C2 6.44728 2.44728 6 3 6V4C1.34272 4 0 5.34272 0 7H2ZM3 6H5V4H3V6Z" fill="white"/>
</svg>
