<svg width="53" height="50" viewBox="0 0 53 50" fill="none" xmlns="http://www.w3.org/2000/svg">
    <path fill-rule="evenodd" clip-rule="evenodd" d="M0.502447 19.3298V35.561L14.5597 43.6776L28.6189 35.561V19.3298L14.5597 11.2142L0.502447 19.3298Z" fill="#B386BC"/>
    <path fill-rule="evenodd" clip-rule="evenodd" d="M14.5603 43.6771L28.6185 35.5615L28.5984 19.3303L14.5402 27.4459L14.5603 43.6771Z" fill="#CBAAD0"/>
    <path fill-rule="evenodd" clip-rule="evenodd" d="M0.544981 19.3072L14.56 27.3947L28.575 19.3072L14.56 11.2137L0.544981 19.3072Z" fill="#EADDED"/>
    <path fill-rule="evenodd" clip-rule="evenodd" d="M35.6476 39.9584C35.6476 45.2262 31.3759 49.4979 26.1081 49.4979C20.8403 49.4979 16.5686 45.2262 16.5686 39.9584C16.5686 34.6906 20.8403 30.4189 26.1081 30.4189C31.3759 30.4189 35.6476 34.6906 35.6476 39.9584Z" fill="#EADDED"/>
    <path fill-rule="evenodd" clip-rule="evenodd" d="M37.6559 1.37692L28.6185 24.4525V30.7716C32.6663 31.8742 35.6476 35.5615 35.6476 39.9587C35.6476 41.2721 35.3765 42.5675 34.8513 43.7715L37.6559 45.3912L51.7141 37.2715L37.6559 1.37692Z" fill="#CBAAD0"/>
    <path fill-rule="evenodd" clip-rule="evenodd" d="M37.6559 1.37692L28.6185 24.4525V30.7716C32.6663 31.8742 35.6476 35.5615 35.6476 39.9587C35.6476 41.2721 35.3765 42.5675 34.8513 43.7715L37.6559 45.3912V1.37692Z" fill="#B386BC"/>
    <mask id="mask0_0_882" style="mask-type:luminance" maskUnits="userSpaceOnUse" x="0" y="0" width="53" height="50">
        <path fill-rule="evenodd" clip-rule="evenodd" d="M0 0H52.3374V50H0V0Z" fill="white"/>
    </mask>
    <g mask="url(#mask0_0_882)">
        <path fill-rule="evenodd" clip-rule="evenodd" d="M35.5771 43.2651C35.6323 43.1125 35.6865 42.9549 35.7337 42.7982C35.7809 42.6375 35.8201 42.4769 35.8592 42.3122C35.8944 42.1666 35.9305 42.026 35.9617 41.8804C36.0008 41.6846 36.0239 41.4808 36.052 41.2799C36.0671 41.1624 36.0872 41.053 36.0992 40.9355C36.1304 40.6091 36.1494 40.2838 36.1494 39.9585C36.1494 39.6452 36.1304 39.3389 36.1022 39.0326C36.0912 38.9192 36.0751 38.8097 36.0591 38.6992C36.0199 38.3739 35.9657 38.0526 35.8904 37.7302C35.8552 37.5856 35.8201 37.44 35.7769 37.2914C35.7377 37.1418 35.6946 36.9892 35.6474 36.8405C35.6162 36.7421 35.5771 36.6477 35.5419 36.5534C35.4044 36.1738 35.2437 35.8043 35.0629 35.4438C35.0479 35.4086 35.0318 35.3775 35.0157 35.3413C34.9143 35.1536 34.8119 34.9688 34.6984 34.789L34.593 34.6123C34.4785 34.4316 34.361 34.2589 34.2355 34.0861L34.1261 33.9415C32.8709 32.2626 31.1216 31.0194 29.1203 30.3838V24.5507L37.1536 4.03671V44.5244L35.4827 43.5594C35.5178 43.461 35.5459 43.3636 35.5771 43.2651ZM26.1079 48.9959C21.8131 48.9959 18.2132 45.9794 17.3014 41.9547C17.1488 41.3 17.0745 40.6292 17.0704 39.9585C17.0704 34.9728 21.1222 30.921 26.1079 30.921C26.4804 30.921 26.857 30.9481 27.2375 30.9994L27.3711 31.0194C27.7005 31.0666 28.0338 31.1369 28.3672 31.2233L28.4857 31.2584C30.1446 31.7093 31.6388 32.6271 32.7955 33.9024L32.8387 33.9536C32.9883 34.1183 33.1289 34.287 33.2665 34.4627L33.3177 34.534C33.8509 35.2399 34.2747 36.0201 34.585 36.8556C34.6161 36.9379 34.6472 37.0203 34.6753 37.1026C34.7255 37.2522 34.7647 37.3968 34.8079 37.5465C34.8792 37.8015 34.9374 38.0566 34.9886 38.3106C35.0157 38.4753 35.0439 38.641 35.0629 38.8057C35.079 38.9071 35.0951 39.0135 35.1021 39.119C35.1302 39.3941 35.1453 39.6763 35.1453 39.9585C35.1453 40.2687 35.1302 40.578 35.0981 40.8843C35.0951 40.9154 35.087 40.9465 35.083 40.9787C35.0549 41.2528 35.0127 41.528 34.9575 41.7981C34.9535 41.8222 34.9414 41.8493 34.9374 41.8764C34.8792 42.1515 34.8079 42.4217 34.7215 42.6888C34.7145 42.7199 34.6984 42.751 34.6864 42.7862C34.604 43.0412 34.5066 43.2923 34.4002 43.5393C33.0114 46.7486 29.8192 48.9959 26.1079 48.9959ZM15.0621 42.512V27.775L28.1162 20.2358V30.1207C27.4574 29.9832 26.7827 29.9169 26.1079 29.9169C20.5689 29.9169 16.0663 34.4195 16.0663 39.9585C16.0663 40.2687 16.0823 40.5861 16.1135 40.9034C16.1446 41.2177 16.1878 41.5239 16.247 41.8292L15.0621 42.512ZM1.00391 20.2358L14.058 27.775V42.512L1.00391 34.9768V20.2358ZM27.4695 19.4515L14.56 26.9044L1.65159 19.4515L14.56 11.9987L27.4695 19.4515ZM38.1578 44.5203V4.03671L51.0903 37.0554L38.1578 44.5203ZM52.3375 37.4953L37.6557 0L29.1203 21.7932V19.2437L14.56 10.8379L-0.000245156 19.2437V35.5572L14.56 43.959L16.4951 42.8454C17.7372 46.9795 21.5731 50 26.1079 50C30.0191 50 33.4081 47.7487 35.0629 44.4731L37.6557 45.9673L52.3375 37.4953Z" fill="#8E5AA4"/>
    </g>
</svg>
