<svg width="20" height="27" viewBox="0 0 20 27" fill="none" xmlns="http://www.w3.org/2000/svg">
    <path fill-rule="evenodd" clip-rule="evenodd" d="M10.0002 26.207C9.24192 26.207 8.62088 25.586 8.62088 24.8277L8.62088 4.69001L2.34522 10.9305C1.7928 11.4829 0.93071 11.4829 0.380009 10.9305C0.137245 10.6895 0 10.3446 0 9.96461C0 9.61978 0.137245 9.24149 0.413458 9.00045L9.03433 0.413026C9.58676 -0.137675 10.4488 -0.137675 10.9661 0.413026L19.587 9.00045C20.1377 9.55115 20.1377 10.4132 19.587 10.9657C19.0345 11.5164 18.1725 11.5164 17.6218 10.9657L11.3796 4.69001L11.3796 24.8277C11.3796 25.586 10.7585 26.207 10.0002 26.207Z" fill="white"/>
</svg>
