<svg width="105" height="106" viewBox="0 0 105 106" fill="none" xmlns="http://www.w3.org/2000/svg">
    <path fill-rule="evenodd" clip-rule="evenodd" d="M3.5001 70.5095C3.5001 69.5453 4.28585 68.7595 5.2501 68.7595H10.5001V88.0095H5.2501C4.28585 88.0095 3.5001 87.2237 3.5001 86.2595V70.5095ZM3.5001 50.787C3.4791 38.9816 7.95735 27.6206 16.0301 19.0071L18.4783 21.4746C11.0811 29.4458 6.9791 39.9248 7.0001 50.801V65.2595H5.2501C4.6551 65.2665 4.0601 65.368 3.5001 65.5745V50.787ZM88.9909 19.0211C97.0497 27.6346 101.528 38.9956 101.5 50.787V65.5745C100.94 65.368 100.345 65.2665 99.7499 65.2595H97.9999V50.787C98.0209 39.9196 93.9189 29.4388 86.5217 21.4746L88.9909 19.0211ZM101.5 86.2595C101.5 87.2237 100.714 88.0095 99.7499 88.0095H94.4999V68.7595H99.7499C100.714 68.7595 101.5 69.5453 101.5 70.5095V86.2595ZM5.2501 91.5095H10.5001C10.5071 94.4075 12.8521 96.7525 15.7501 96.7595H22.7501C25.6481 96.7525 27.9931 94.4075 28.0001 91.5095V65.2595C27.9931 62.3615 25.6481 60.0165 22.7501 60.0095H15.7501C12.8521 60.0165 10.5071 62.3615 10.5001 65.2595V50.801C10.4931 40.8558 14.2468 31.2781 21.0001 23.9771C22.9006 25.9738 26.0313 26.1436 28.1366 24.3603C35.021 18.7201 43.6678 15.6716 52.5683 15.7539C61.4215 15.6856 70.021 18.7271 76.8635 24.3463C78.9687 26.1383 82.1065 25.9808 84.021 23.9771C90.7602 31.2781 94.4999 40.8488 94.4999 50.787V65.2595C94.4929 62.3615 92.1479 60.0165 89.25 60.0095H82.25C79.352 60.0165 77.007 62.3615 77 65.2595V91.5095C77.007 94.4075 79.352 96.7525 82.25 96.7595H89.25C89.845 96.7525 90.4399 96.651 90.9999 96.4445V96.7595C90.9929 99.6575 88.6479 102.002 85.75 102.009H59.5C56.602 102.002 54.257 99.6575 54.25 96.7595V76.1077C60.5797 75.7735 66.6505 73.5038 71.6467 69.5995C73.3967 68.1173 74.396 65.9298 74.375 63.632V52.607C74.375 52.313 74.2245 52.0383 73.9777 51.8755C73.7327 51.718 73.4177 51.69 73.1517 51.8055L57.6468 58.676C54.3655 60.125 50.6345 60.125 47.3533 58.676L31.8483 51.8055C31.5823 51.69 31.2673 51.711 31.0223 51.8755C30.7756 52.0383 30.6251 52.313 30.6251 52.607V63.632C30.6041 65.9228 31.6033 68.1103 33.3533 69.5995C38.3495 73.5038 44.4203 75.7735 50.75 76.1077V96.7595C50.75 101.593 54.6665 105.509 59.5 105.509H85.75C90.5834 105.509 94.4999 101.593 94.4999 96.7595V91.5095H99.7499C102.648 91.5025 104.993 89.1575 105 86.2595V50.787C105.035 37.4713 99.7289 24.6946 90.2824 15.3164C80.227 5.35012 66.5892 -0.167618 52.4318 0.0038816C38.3355 -0.132618 24.7731 5.36937 14.7526 15.2814C5.2851 24.6683 -0.0278898 37.4573 0.000110113 50.787V86.2595C0.0071101 89.1575 2.35211 91.5025 5.2501 91.5095Z" fill="black"/>
    <path fill-rule="evenodd" clip-rule="evenodd" d="M56.2258 55.4773C60.8598 53.4263 76.454 46.5296 80.801 44.5941C82.7767 43.7138 84.0542 41.7503 84.0542 39.5838C84.0542 37.4243 82.7767 35.4626 80.801 34.5806L56.2258 23.6763C53.8545 22.6316 51.1473 22.6316 48.7743 23.6763L24.1991 34.5806C22.2233 35.4626 20.9458 37.4243 20.9458 39.5838C20.9458 41.7503 22.2233 43.7138 24.1991 44.5941C28.4586 46.4876 44.2348 53.4683 48.7743 55.4773C51.1473 56.5308 53.8545 56.5308 56.2258 55.4773Z" fill="black"/>
</svg>
