<svg width="12" height="12" viewBox="0 0 12 12" fill="none" xmlns="http://www.w3.org/2000/svg">
    <path d="M3.11722 10.3126C2.97332 10.3123 2.83197 10.2746 2.70707 10.2031C2.42582 10.0437 2.25097 9.73436 2.25097 9.3985V2.60161C2.25097 2.26481 2.42582 1.95637 2.70707 1.797C2.83494 1.72351 2.98021 1.68571 3.12769 1.68757C3.27517 1.68942 3.41944 1.73086 3.54543 1.80755L9.35443 5.28474C9.47549 5.36065 9.57529 5.46607 9.64447 5.5911C9.71365 5.71614 9.74995 5.85669 9.74995 5.99959C9.74995 6.14248 9.71365 6.28304 9.64447 6.40807C9.57529 6.53311 9.47549 6.63852 9.35443 6.71443L3.54449 10.1926C3.41556 10.2705 3.26788 10.312 3.11722 10.3126Z" fill="#2C3658"/>
</svg>
