<svg width="28" height="28" viewBox="0 0 28 28" fill="none" xmlns="http://www.w3.org/2000/svg">
    <path fill-rule="evenodd" clip-rule="evenodd" d="M28 14C28 21.7338 21.7338 28 14 28C6.26617 28 0 21.7338 0 14C0 6.26617 6.26617 0 14 0C21.7338 0 28 6.26617 28 14Z" fill="#50B748"/>
    <path fill-rule="evenodd" clip-rule="evenodd" d="M16.9439 27.6718C17.2122 27.617 17.4817 27.5575 17.7454 27.4898C18.1969 27.3661 18.639 27.2156 19.0719 27.0476C19.5094 26.8785 19.934 26.6871 20.3482 26.4783C20.767 26.2636 21.173 26.0315 21.565 25.7806C21.957 25.5298 22.335 25.2568 22.7037 24.9651C23.0689 24.6781 23.42 24.3678 23.7525 24.04C24.0897 23.7156 24.4082 23.3738 24.7092 23.0191C25.0102 22.6633 25.2925 22.29 25.5527 21.9026C25.8164 21.52 26.0625 21.1233 26.2865 20.7126C26.5094 20.3031 26.7147 19.8831 26.8967 19.455C27.0799 19.0221 27.2385 18.5846 27.375 18.1378C27.494 17.7458 27.5944 17.3538 27.6807 16.9525L19.3589 8.63531C17.9414 7.20964 16.014 6.41164 14.0039 6.41164C11.989 6.40697 10.0582 7.20964 8.63485 8.63531C7.21502 10.0575 6.41235 11.9848 6.41235 13.9996C6.41235 16.0098 7.21502 17.9418 8.63485 19.364L16.9439 27.6671V27.6718Z" fill="#10A711"/>
    <path fill-rule="evenodd" clip-rule="evenodd" d="M17.4544 11.6668C17.3447 11.6761 17.2397 11.7169 17.1487 11.7858L12.888 14.9848L10.914 13.0061C10.4859 12.5651 9.64353 13.4028 10.0892 13.8309L12.4225 16.1643C12.6279 16.3649 12.9475 16.3883 13.1844 16.2191L17.851 12.7191C18.243 12.4368 18.0015 11.6761 17.5139 11.6668H17.4544ZM13.9999 6.41211C15.9412 6.41211 17.8779 7.15528 19.3642 8.63578C20.7852 10.0579 21.5879 11.9853 21.5879 14.0001C21.5879 16.0149 20.7852 17.9423 19.3642 19.3644C17.942 20.7854 16.0147 21.5881 13.9999 21.5881C11.985 21.5881 10.0577 20.7854 8.63553 19.3644C7.21453 17.9423 6.41187 16.0149 6.41187 14.0001C6.41187 11.9853 7.21453 10.0579 8.63553 8.63578C10.0577 7.21011 11.9897 6.41211 13.9999 6.41211Z" fill="white"/>
</svg>
