<svg width="20" height="20" viewBox="0 0 20 20" fill="none" xmlns="http://www.w3.org/2000/svg">
    <path fill-rule="evenodd" clip-rule="evenodd" d="M5.594 8.809C6.25 8.809 6.781 9.344 6.781 10C6.781 10.656 6.25 11.187 5.594 11.187C4.938 11.187 4.402 10.656 4.402 10C4.402 9.344 4.938 8.809 5.594 8.809ZM14.398 8.809C15.054 8.809 15.586 9.344 15.586 10C15.586 10.652 15.054 11.187 14.398 11.187C13.742 11.187 13.211 10.652 13.211 10C13.211 9.344 13.742 8.809 14.398 8.809ZM9.996 8.809C10.652 8.809 11.183 9.344 11.183 10C11.183 10.652 10.652 11.187 9.996 11.187C9.34 11.187 8.809 10.652 8.809 10C8.809 9.344 9.34 8.809 9.996 8.809ZM10.008 0C11.625 0 13.234 0.398 14.668 1.152C19.543 3.727 21.418 9.785 18.847 14.664C17.094 17.988 13.64 20 9.996 20C9.281 20 8.562 19.922 7.848 19.766C7.445 19.676 7.191 19.273 7.277 18.871C7.367 18.469 7.766 18.215 8.172 18.301C11.898 19.129 15.742 17.344 17.523 13.965C19.707 9.816 18.113 4.664 13.969 2.48C12.754 1.836 11.383 1.496 10.008 1.496C5.309 1.496 1.496 5.312 1.496 10C1.496 11.363 1.828 12.723 2.461 13.93L2.652 14.305C2.887 14.746 2.938 15.293 2.785 15.789C2.573 16.344 2.402 16.883 2.258 17.422C2.816 17.254 3.504 17.004 4 16.824L4.203 16.75C4.59 16.605 5.02 16.809 5.16 17.199C5.301 17.586 5.102 18.016 4.711 18.156L4.512 18.23C3.77 18.5 2.754 18.867 2.07 19.019C2.012 19.035 1.948 19.043 1.891 19.039C1.434 19.039 1.152 18.855 1 18.695C0.762 18.457 0.648 18.121 0.664 17.695C0.664 17.644 0.672 17.598 0.68 17.547C0.859 16.789 1.09 16.035 1.371 15.301C1.391 15.23 1.379 15.101 1.32 14.992L1.129 14.617C0.391 13.203 0 11.601 0 9.996C0 4.484 4.484 0 9.996 0H10.008Z" fill="#202244"/>
</svg>
