<svg width="26" height="26" viewBox="0 0 26 26" fill="none" xmlns="http://www.w3.org/2000/svg">
    <path fill-rule="evenodd" clip-rule="evenodd" d="M24.375 11.375H14.625V1.625C14.625 0.729625 13.8954 0 13 0C12.1046 0 11.375 0.729625 11.375 1.625V11.375H1.625C0.729625 11.375 0 12.1046 0 13C0 13.8954 0.729625 14.625 1.625 14.625H11.375V24.375C11.375 25.2704 12.1046 26 13 26C13.8954 26 14.625 25.2704 14.625 24.375V14.625H24.375C25.2704 14.625 26 13.8954 26 13C26 12.1046 25.2704 11.375 24.375 11.375Z" fill="white"/>
</svg>
