<svg width="24" height="24" viewBox="0 0 24 24" fill="none" xmlns="http://www.w3.org/2000/svg">
    <path opacity="0.4" d="M21.49 12.0001C21.81 10.9801 22 9.88012 22 8.69012C22 5.60012 19.51 3.1001 16.44 3.1001C14.62 3.1001 13.01 3.98015 12 5.34015C10.99 3.98015 9.37 3.1001 7.56 3.1001C4.49 3.1001 2 5.60012 2 8.69012C2 15.6901 8.48 19.8201 11.38 20.8201C11.55 20.8801 11.77 20.9101 12 20.9101" stroke="#6B7280" stroke-width="1.5" stroke-linecap="round" stroke-linejoin="round"/>
    <path d="M17.74 21.0001C19.5073 21.0001 20.94 19.5674 20.94 17.8001C20.94 16.0328 19.5073 14.6001 17.74 14.6001C15.9727 14.6001 14.54 16.0328 14.54 17.8001C14.54 19.5674 15.9727 21.0001 17.74 21.0001Z" stroke="#6B7280" stroke-width="1.5" stroke-linecap="round" stroke-linejoin="round"/>
    <path d="M21.54 21.6001L20.54 20.6001" stroke="#6B7280" stroke-width="1.5" stroke-linecap="round" stroke-linejoin="round"/>
</svg>
