<svg width="14" height="14" viewBox="0 0 14 14" fill="none" xmlns="http://www.w3.org/2000/svg">
    <path fill-rule="evenodd" clip-rule="evenodd" d="M2.04599 13.9828H10.8145C11.9468 13.9805 12.8605 13.0604 12.8605 11.9298V7.52277C12.8605 7.20068 12.598 6.93821 12.2759 6.93821C11.9538 6.93821 11.6914 7.20068 11.6914 7.52277V11.9298C11.6937 12.4162 11.3009 12.8114 10.8145 12.8137H2.04599C1.55963 12.8114 1.1668 12.4162 1.16914 11.9298V3.17534C1.1668 2.68898 1.55963 2.29381 2.04599 2.29148H6.43024C6.75234 2.29148 7.01481 2.02901 7.01481 1.70691C7.01481 1.38481 6.75234 1.12234 6.43024 1.12234H2.04599C0.913095 1.12468 0 2.04479 0 3.17534V11.9298C0 13.0604 0.913095 13.9805 2.04599 13.9828Z" fill="white"/>
    <path fill-rule="evenodd" clip-rule="evenodd" d="M6.63153 6.53415L10.5908 2.56552L11.408 3.38742L7.44641 7.35839L6.39828 7.5893L6.63153 6.53415ZM11.833 1.32332C12.0633 1.10176 12.4287 1.10176 12.6596 1.32332C12.8858 1.55363 12.8858 1.91899 12.6596 2.14989L12.2463 2.56318L11.4197 1.7366L11.833 1.32332ZM5.52611 6.11619L5.06488 8.22823C5.02396 8.42464 5.08301 8.62807 5.22506 8.7672C5.36652 8.90457 5.56703 8.96361 5.7611 8.92503L7.87139 8.46381C7.97837 8.43867 8.07891 8.38372 8.159 8.30364L13.4862 2.97647C14.1713 2.29136 14.1713 1.18185 13.4862 0.496736C12.7923 -0.165579 11.7003 -0.165579 11.0064 0.496736L5.68803 5.82858C5.60853 5.90866 5.55124 6.00629 5.52611 6.11619Z" fill="white"/>
</svg>
