<svg width="16" height="20" viewBox="0 0 16 20" fill="none" xmlns="http://www.w3.org/2000/svg">
    <path fill-rule="evenodd" clip-rule="evenodd" d="M7.9921 1.5313C6.98012 1.5273 6.01214 1.9303 5.29715 2.64828C4.58217 3.36727 4.18017 4.34425 4.18017 5.35923C4.17617 6.9102 5.10216 8.31218 6.52713 8.91017C7.9491 9.50416 9.59007 9.18016 10.6831 8.08218C11.773 6.9882 12.101 5.33623 11.512 3.90226C10.9221 2.46929 9.53108 1.5313 7.9921 1.5313ZM5.96514 0.406323C7.9531 -0.421662 10.2461 0.0393298 11.765 1.5743C13.289 3.10527 13.742 5.41423 12.914 7.41419C12.09 9.41816 10.1441 10.7231 7.9921 10.7191C5.05516 10.7111 2.6762 8.31618 2.6762 5.35923L2.6842 5.12924C2.7702 3.05227 4.04718 1.20731 5.96514 0.406323ZM5.88314 12.7661C7.32012 12.6451 8.76609 12.6451 10.2031 12.7661C10.988 12.8211 11.769 12.9341 12.535 13.1101C14.195 13.4461 15.281 14.1061 15.734 15.0741C16.097 15.875 16.086 16.801 15.707 17.598C15.246 18.567 14.16 19.227 12.472 19.571C11.711 19.742 10.933 19.852 10.1481 19.903C9.28508 20 8.55109 20 7.86711 20H7.59811C7.21112 19.957 6.91812 19.629 6.91812 19.239C6.91812 18.848 7.21112 18.52 7.59811 18.477H8.1951C8.79309 18.469 9.39808 18.442 10.0001 18.391C10.7111 18.344 11.418 18.242 12.117 18.09C13.312 17.828 14.066 17.449 14.301 16.946C14.484 16.563 14.484 16.117 14.301 15.735C14.066 15.2231 13.312 14.8281 12.14 14.5901C11.433 14.4301 10.7151 14.3241 9.99207 14.2811C8.64109 14.1561 7.28112 14.1561 5.93014 14.2811C5.21515 14.3281 4.50417 14.4261 3.80518 14.5781C2.6052 14.8441 1.86322 15.2231 1.62122 15.723C1.53122 15.914 1.48822 16.121 1.48822 16.332C1.48822 16.543 1.53122 16.754 1.62122 16.946C2.03521 17.52 2.6682 17.891 3.36719 17.977L3.46919 18.004C3.69918 18.082 3.87918 18.27 3.94918 18.512C4.03118 18.781 3.95318 19.078 3.75018 19.278C3.54719 19.477 3.25019 19.543 2.9842 19.453C1.85522 19.27 0.867234 18.594 0.281245 17.606C-0.0937483 16.809 -0.0937483 15.879 0.281245 15.0821C0.746236 14.0861 1.82822 13.4461 3.50019 13.1021C4.28517 12.9301 5.08216 12.8211 5.88314 12.7661Z" fill="#202244"/>
</svg>
