<svg width="20" height="21" viewBox="0 0 20 21" fill="none" xmlns="http://www.w3.org/2000/svg">
    <path fill-rule="evenodd" clip-rule="evenodd" d="M19.754 18.6049L16.3162 15.246L16.2382 15.125C16.0862 14.972 15.8832 14.89 15.6682 14.89C15.4572 14.89 15.2502 14.972 15.1022 15.125C12.1804 17.8039 7.68058 17.9489 4.58273 15.464C1.48488 12.9761 0.754913 8.63235 2.87581 5.30951C4.99671 1.98767 9.3095 0.719735 12.9533 2.34466C16.5981 3.96958 18.4451 7.98338 17.2661 11.7262C17.1841 12.0002 17.2501 12.2932 17.4491 12.5002C17.6451 12.7071 17.9421 12.7931 18.2231 12.7301C18.504 12.6682 18.731 12.4602 18.817 12.1912C20.223 7.75039 18.0981 2.96963 13.8173 0.940725C9.53548 -1.08518 4.37974 0.250758 1.68887 4.08557C-1.003 7.92138 -0.425029 13.1011 3.0518 16.281C6.52363 19.4568 11.8524 19.6748 15.5862 16.7929L18.629 19.7688C18.942 20.0778 19.449 20.0778 19.766 19.7688C20.078 19.4598 20.078 18.9598 19.766 18.6479L19.754 18.6049Z" fill="#200E32"/>
</svg>
