<svg width="22" height="22" viewBox="0 0 22 22" fill="none" xmlns="http://www.w3.org/2000/svg">
<path d="M11 2.75001H11.3603C10.1827 3.84424 9.42573 5.31653 9.22104 6.91096C9.01635 8.50539 9.37684 10.1211 10.2399 11.4773C11.1029 12.8336 12.4139 13.8445 13.9449 14.3344C15.476 14.8242 17.1303 14.7621 18.6203 14.1588C18.0471 15.538 17.1103 16.7356 15.9099 17.6241C14.7094 18.5125 13.2903 19.0585 11.8039 19.2036C10.3174 19.3488 8.81951 19.0877 7.46984 18.4483C6.12016 17.8089 4.96938 16.8151 4.14023 15.5729C3.31108 14.3307 2.83468 12.8868 2.76183 11.3951C2.68899 9.90336 3.02244 8.41986 3.72661 7.10281C4.43079 5.78576 5.47927 4.68456 6.76022 3.91668C8.04118 3.1488 9.50655 2.74304 11 2.74268V2.75001Z" stroke="#9CA3AF" stroke-width="1.5" stroke-linecap="round" stroke-linejoin="round"/>
</svg>
