<svg width="20" height="20" viewBox="0 0 20 20" fill="none" xmlns="http://www.w3.org/2000/svg">
    <path fill-rule="evenodd" clip-rule="evenodd" d="M5.996 1.668H3.035C2.66 1.66 2.293 1.809 2.027 2.078C1.758 2.344 1.605 2.715 1.605 3.098V6.121C1.598 6.508 1.746 6.887 2.016 7.16C2.285 7.438 2.652 7.586 3.035 7.578H5.996C6.371 7.578 6.73 7.422 6.992 7.148C7.258 6.875 7.402 6.504 7.398 6.121V3.098C7.391 2.309 6.766 1.672 5.996 1.668ZM5.996 0C7.668 0.004 9.023 1.391 9.031 3.098V6.121C9.031 6.941 8.711 7.727 8.141 8.309C7.57 8.887 6.801 9.211 5.996 9.207H3.035C1.363 9.203 0.012 7.824 0 6.121V3.098C0.012 1.391 1.363 0.012 3.035 0H5.996ZM16.965 0C18.625 0.039 19.957 1.406 19.992 3.098V6.109C20 6.93 19.691 7.719 19.133 8.305C18.57 8.891 17.805 9.227 17.004 9.238H15.777C15.363 9.191 15.047 8.836 15.047 8.41C15.047 7.98 15.363 7.625 15.777 7.578H16.965C17.34 7.578 17.699 7.422 17.965 7.148C18.226 6.875 18.371 6.504 18.367 6.121V3.098C18.355 2.312 17.734 1.676 16.965 1.668H14.004C13.23 1.668 12.601 2.309 12.601 3.098V7.617L12.594 7.723C12.531 8.129 12.183 8.438 11.769 8.434C11.551 8.426 11.348 8.336 11.199 8.176C11.051 8.016 10.973 7.801 10.98 7.578V3.098C10.976 2.277 11.293 1.488 11.863 0.906C12.43 0.328 13.199 0 14.004 0H16.965ZM16.965 12.449H14.004C13.23 12.449 12.601 13.09 12.601 13.879V16.902C12.601 17.281 12.746 17.648 13.012 17.918C13.273 18.184 13.633 18.336 14.004 18.332H16.965C17.336 18.336 17.695 18.184 17.957 17.918C18.223 17.648 18.367 17.281 18.367 16.902V13.879C18.367 13.5 18.219 13.137 17.957 12.867C17.691 12.602 17.336 12.449 16.965 12.449ZM4.25 10.793C4.562 10.758 4.863 10.906 5.031 11.18C5.195 11.449 5.195 11.793 5.031 12.063C4.863 12.332 4.562 12.484 4.25 12.449H3.035C2.258 12.449 1.629 13.09 1.625 13.879V16.863C1.645 17.648 2.266 18.281 3.035 18.293H6.016C6.387 18.297 6.746 18.148 7.012 17.879C7.277 17.609 7.426 17.246 7.426 16.863V12.383L7.41 12.27C7.398 11.977 7.539 11.688 7.789 11.527C8.07 11.344 8.434 11.356 8.703 11.555C8.977 11.754 9.102 12.102 9.02 12.43V16.891C9.02 18.602 7.664 19.992 5.984 19.992H3.035C1.375 19.957 0.035 18.59 0 16.891V13.879C0 13.059 0.32 12.273 0.891 11.691C1.457 11.113 2.23 10.789 3.035 10.793H4.25ZM16.965 10.793C18.637 10.797 19.988 12.176 20 13.879V16.902C19.988 18.609 18.637 19.988 16.965 20H14.004C12.336 19.988 10.984 18.605 10.98 16.902V13.879C10.98 12.176 12.332 10.793 14.004 10.793H16.965Z" fill="#202244"/>
</svg>
