<svg width="14" height="20" viewBox="0 0 14 20" fill="none" xmlns="http://www.w3.org/2000/svg">
    <path fill-rule="evenodd" clip-rule="evenodd" d="M14 7.98648C13.9879 7.06948 13.5671 6.2008 12.8514 5.62302L6.80491 0.802498C5.47521 -0.267499 3.57982 -0.267499 2.25113 0.802498L0.336609 2.1946C-0.0257609 2.45329 -0.108301 2.95356 0.151398 3.31493C0.411096 3.67226 0.910361 3.7548 1.27172 3.49611L3.21443 2.04462C3.97742 1.41551 5.07862 1.41551 5.84161 2.04462L11.8881 6.86514C12.2384 7.14497 12.4428 7.5617 12.4508 8.0056V16.023C12.4508 17.3286 11.3889 18.3865 10.0874 18.3865H8.29062C8.10642 18.3865 7.96046 18.2365 7.96046 18.0523V14.4387C7.96046 13.2861 7.02837 12.35 5.87684 12.347H3.24966C2.69503 12.347 2.16456 12.5664 1.772 12.96C1.37842 13.3536 1.15798 13.884 1.15798 14.4387V15.8227C1.15798 16.2545 1.5123 16.6089 1.94412 16.6089C2.38098 16.6089 2.7353 16.2545 2.7353 15.8227V14.4387C2.73127 14.3008 2.7816 14.1709 2.88024 14.0723C2.97486 13.9787 3.10471 13.9233 3.24161 13.9233H5.86879C6.14761 13.9233 6.3761 14.1518 6.3761 14.4306V18.0523C6.38013 19.1092 7.23673 19.9628 8.29062 19.9628H10.0401C12.2223 19.9628 13.9879 18.1932 13.9879 16.015L14 7.98648Z" fill="#202244"/>
</svg>
