<svg width="10" height="10" viewBox="0 0 10 10" fill="none" xmlns="http://www.w3.org/2000/svg">
    <path d="M2.59765 8.59379C2.47774 8.59356 2.35994 8.56213 2.25586 8.50257C2.02148 8.36976 1.87578 8.11195 1.87578 7.83207V2.168C1.87578 1.88734 2.02148 1.63031 2.25586 1.4975C2.36242 1.43625 2.48348 1.40476 2.60638 1.4063C2.72927 1.40785 2.8495 1.44238 2.95449 1.50628L7.79531 4.40394C7.8962 4.4672 7.97936 4.55505 8.03701 4.65924C8.09466 4.76344 8.12491 4.88056 8.12491 4.99964C8.12491 5.11872 8.09466 5.23585 8.03701 5.34005C7.97936 5.44424 7.8962 5.53209 7.79531 5.59535L2.95371 8.49379C2.84627 8.55874 2.7232 8.5933 2.59765 8.59379Z" fill="#2C3658"/>
</svg>
