<svg width="20" height="20" viewBox="0 0 20 20" fill="none" xmlns="http://www.w3.org/2000/svg">
    <path fill-rule="evenodd" clip-rule="evenodd" d="M7.27516 0C6.76653 0 6.35782 0.408717 6.35782 0.917342V6.37598H1.09899C1.0445 6.3669 0.98092 6.35782 0.917342 6.35782C0.408717 6.35782 0 6.76653 0 7.27516C0 7.7747 0.399634 8.18342 0.908259 8.1925H8.17433V1.09899C8.18342 1.0445 8.1925 0.98092 8.1925 0.917342C8.1925 0.408717 7.7747 0 7.27516 0ZM19.0825 11.8074C19.0199 11.8074 18.9554 11.8165 18.9009 11.8255H11.8074V19.0916C11.8165 19.6002 12.2161 19.9999 12.7247 19.9999C13.2342 19.9999 13.6421 19.5912 13.6421 19.0825C13.6421 19.019 13.633 18.9554 13.6239 18.9009V13.6421H19.0825C19.5921 13.6421 19.9999 13.2333 19.9999 12.7247C19.9999 12.2161 19.5921 11.8074 19.0825 11.8074ZM8.17433 18.9009V11.8255H1.09899C1.0445 11.8165 0.98092 11.8074 0.917342 11.8074C0.408717 11.8074 0 12.2161 0 12.7247C0 13.2333 0.399634 13.633 0.908259 13.6421H6.35782V19.0916C6.3669 19.6002 6.76653 19.9999 7.27516 19.9999C7.7747 19.9999 8.1925 19.5912 8.1925 19.0825C8.1925 19.019 8.18342 18.9554 8.17433 18.9009ZM19.9999 7.27516C19.9999 7.7747 19.5921 8.1925 19.0825 8.1925H11.8074V0.917342C11.8074 0.408717 12.2161 0 12.7247 0C13.2342 0 13.6421 0.408717 13.6421 0.917342C13.6421 0.98092 13.633 1.0445 13.6239 1.09899V6.37598H18.9009C18.9554 6.3669 19.0199 6.35782 19.0825 6.35782C19.5921 6.35782 19.9999 6.76653 19.9999 7.27516Z" fill="white"/>
</svg>
