<svg width="9" height="15" viewBox="0 0 9 15" fill="none" xmlns="http://www.w3.org/2000/svg">
    <path fill-rule="evenodd" clip-rule="evenodd" d="M8.00249 13.4019H3.96185C2.65167 13.3979 1.58999 12.3402 1.58191 11.03V2.99218C1.58191 2.55377 1.7799 2.13961 2.11528 1.85979L2.82946 1.33047C3.09008 1.0547 3.11332 0.632448 2.89209 0.324349C2.66783 0.0172606 2.2567 -0.0857758 1.91425 0.0758499L1.18795 0.620327C0.449522 1.18905 0.0161626 2.06082 0 2.99218V11.0381C0.00404064 13.2241 1.77586 14.9959 3.96185 15H8.00249C8.43989 15 8.79143 14.6444 8.79143 14.211C8.79143 13.7726 8.43989 13.4181 8.00249 13.4181V13.4019Z" fill="#167F71"/>
</svg>
