<svg width="18" height="18" viewBox="0 0 18 18" fill="none" xmlns="http://www.w3.org/2000/svg">
    <path fill-rule="evenodd" clip-rule="evenodd" d="M18 9C18 13.9705 13.9705 18 9 18C4.02947 18 0 13.9705 0 9C0 4.02947 4.02947 0 9 0C13.9705 0 18 4.02947 18 9Z" fill="#ECB13A"/>
    <path fill-rule="evenodd" clip-rule="evenodd" d="M17.3227 8.57905C17.3227 13.2881 13.5054 17.1054 8.79634 17.1054C4.08746 17.1054 0.27002 13.2881 0.27002 8.57905C0.27002 3.87003 4.08746 0.0527344 8.79634 0.0527344C13.5054 0.0527344 17.3227 3.87003 17.3227 8.57905Z" fill="#FFDE4F"/>
    <path fill-rule="evenodd" clip-rule="evenodd" d="M13.8561 8.61037C14.2913 8.60697 14.6386 8.97539 14.6001 9.41041C14.2983 12.7122 11.951 15.2912 9.07376 15.3227C6.1966 15.3544 3.7965 12.8245 3.42467 9.52981C3.37541 9.0982 3.71576 8.71922 4.15092 8.71564L13.8561 8.61037Z" fill="#645033"/>
    <path fill-rule="evenodd" clip-rule="evenodd" d="M6.3649 5.76131C6.3649 6.4299 5.82297 6.97183 5.15437 6.97183C4.48595 6.97183 3.94385 6.4299 3.94385 5.76131C3.94385 5.09275 4.48595 4.55078 5.15437 4.55078C5.82297 4.55078 6.3649 5.09275 6.3649 5.76131Z" fill="#645033"/>
    <path fill-rule="evenodd" clip-rule="evenodd" d="M14.1647 5.77547C14.1647 6.44389 13.6228 6.98599 12.9542 6.98599C12.2856 6.98599 11.7437 6.44389 11.7437 5.77547C11.7437 5.10687 12.2856 4.56494 12.9542 4.56494C13.6228 4.56494 14.1647 5.10687 14.1647 5.77547Z" fill="#645033"/>
    <path fill-rule="evenodd" clip-rule="evenodd" d="M9.0069 9.43853L4.04199 9.49117C4.10161 10.0912 4.26308 10.6702 4.51568 11.1965L4.56831 11.3052L9.02803 11.2561L13.4876 11.2069L13.5368 11.0982C13.7754 10.5683 13.9262 9.98239 13.9718 9.38232L9.0069 9.43853Z" fill="white"/>
    <path fill-rule="evenodd" clip-rule="evenodd" d="M11.4455 13.1755C9.95423 12.1615 8.12269 12.1825 6.65258 13.2281L6.27002 13.5018L6.65956 13.765C8.15079 14.779 9.98234 14.758 11.4524 13.7124L11.835 13.4386L11.4455 13.1755Z" fill="#EF4F43"/>
</svg>
