<svg width="20" height="18" viewBox="0 0 20 18" fill="none" xmlns="http://www.w3.org/2000/svg">
    <path fill-rule="evenodd" clip-rule="evenodd" d="M9.64286 16.7143C8.9325 16.7143 8.35714 16.1389 8.35714 15.4286C8.35714 14.7182 8.9325 14.1429 9.64286 14.1429C10.3532 14.1429 10.9286 14.7182 10.9286 15.4286C10.9286 16.1389 10.3532 16.7143 9.64286 16.7143ZM18.6429 14.7857H12.1236C11.835 13.6504 10.8129 12.8571 9.64286 12.8571C8.47286 12.8571 7.45071 13.6504 7.16207 14.7857H0.642857C0.288643 14.7857 0 15.0744 0 15.4286C0 15.7828 0.288643 16.0714 0.642857 16.0714H7.16207C7.45071 17.2067 8.47286 18 9.64286 18C10.8129 18 11.835 17.2067 12.1236 16.0714H18.6429C18.9971 16.0714 19.2857 15.7828 19.2857 15.4286C19.2857 15.0744 18.9971 14.7857 18.6429 14.7857ZM16.0714 10.2857C15.3611 10.2857 14.7857 9.71036 14.7857 9C14.7857 8.28964 15.3611 7.71429 16.0714 7.71429C16.7818 7.71429 17.3571 8.28964 17.3571 9C17.3571 9.71036 16.7818 10.2857 16.0714 10.2857ZM18.6429 8.35714H18.5522C18.2636 7.22186 17.2414 6.42857 16.0714 6.42857C14.9014 6.42857 13.8793 7.22186 13.5906 8.35714H0.642857C0.288643 8.35714 0 8.64579 0 9C0 9.35421 0.288643 9.64286 0.642857 9.64286H13.5906C13.8793 10.7781 14.9014 11.5714 16.0714 11.5714C17.2414 11.5714 18.2636 10.7781 18.5522 9.64286H18.6429C18.9971 9.64286 19.2857 9.35421 19.2857 9C19.2857 8.64579 18.9971 8.35714 18.6429 8.35714ZM3.21429 1.28571C3.92464 1.28571 4.5 1.86107 4.5 2.57143C4.5 3.28179 3.92464 3.85714 3.21429 3.85714C2.50393 3.85714 1.92857 3.28179 1.92857 2.57143C1.92857 1.86107 2.50393 1.28571 3.21429 1.28571ZM0.642857 3.21429H0.7335C1.02214 4.34957 2.04429 5.14286 3.21429 5.14286C4.38429 5.14286 5.40643 4.34957 5.69507 3.21429H18.6429C18.9971 3.21429 19.2857 2.92564 19.2857 2.57143C19.2857 2.21721 18.9971 1.92857 18.6429 1.92857H5.69507C5.40643 0.793286 4.38429 0 3.21429 0C2.04429 0 1.02214 0.793286 0.7335 1.92857H0.642857C0.288643 1.92857 0 2.21721 0 2.57143C0 2.92564 0.288643 3.21429 0.642857 3.21429Z" fill="#E8F1FF"/>
</svg>
