<svg width="22" height="22" viewBox="0 0 22 22" fill="none" xmlns="http://www.w3.org/2000/svg">
<path d="M13.75 9.1669L17.9236 7.08056C18.0633 7.01075 18.2185 6.97779 18.3746 6.98482C18.5306 6.99184 18.6823 7.03862 18.8151 7.12072C18.948 7.20281 19.0577 7.3175 19.1338 7.4539C19.2099 7.59029 19.2499 7.74387 19.25 7.90006V14.1004C19.2499 14.2566 19.2099 14.4102 19.1338 14.5466C19.0577 14.683 18.948 14.7976 18.8151 14.8797C18.6823 14.9618 18.5306 15.0086 18.3746 15.0156C18.2185 15.0227 18.0633 14.9897 17.9236 14.9199L13.75 12.8336V9.1669Z" stroke="#9CA3AF" stroke-width="1.5" stroke-linecap="round" stroke-linejoin="round"/>
<path d="M11.9167 5.5H4.58333C3.57081 5.5 2.75 6.32081 2.75 7.33333V14.6667C2.75 15.6792 3.57081 16.5 4.58333 16.5H11.9167C12.9292 16.5 13.75 15.6792 13.75 14.6667V7.33333C13.75 6.32081 12.9292 5.5 11.9167 5.5Z" stroke="#9CA3AF" stroke-width="1.5" stroke-linecap="round" stroke-linejoin="round"/>
</svg>
