<svg width="153" height="153" viewBox="0 0 153 153" fill="none" xmlns="http://www.w3.org/2000/svg">
    <path fill-rule="evenodd" clip-rule="evenodd" d="M153 76.5C153 118.75 118.75 153 76.5 153C34.2498 153 0 118.75 0 76.5C0 34.2498 34.2498 0 76.5 0C118.75 0 153 34.2498 153 76.5Z" fill="#FFC200"/>
    <mask id="mask0_0_506" style="mask-type:luminance" maskUnits="userSpaceOnUse" x="22" y="82" width="109" height="71">
        <path fill-rule="evenodd" clip-rule="evenodd" d="M22.0833 82.0134H130.193V153H22.0833V82.0134Z" fill="white"/>
    </mask>
    <g mask="url(#mask0_0_506)">
        <path fill-rule="evenodd" clip-rule="evenodd" d="M130.193 130.983C100.126 160.616 51.7456 160.298 22.0833 130.27C23.907 125.229 27.4433 120.986 32.0802 118.307C35.2043 115.994 38.5876 114.067 42.1634 112.552C36.7269 93.8512 51.5136 84.6638 57.1722 82.0134C57.1722 90.6505 65.259 84.9155 75.2953 85.0315C83.5474 85.1179 99.8863 93.4366 99.8863 82.4675C108.965 85.1573 118.876 102.469 112.06 113.112C114.846 114.472 117.489 116.137 119.937 118.067C124.707 121.102 128.312 125.653 130.193 130.993V130.983Z" fill="#677079"/>
    </g>
</svg>
