<svg width="40" height="40" viewBox="0 0 40 40" fill="none" xmlns="http://www.w3.org/2000/svg">
    <path fill-rule="evenodd" clip-rule="evenodd" d="M8 22C9 22 10 21.204 10 20C10 18.796 9.204 18 8 18H2C1 18 0 18.796 0 20C0 21.204 0.796 22 2 22H8ZM11.398 25C10.796 24 9.602 23.796 8.602 24.204L3.398 27.204C2.398 27.796 2.204 29 2.602 30C3 30.602 3.602 31 4.398 31C4.796 31 5 31 5.398 30.796L10.602 27.796C11.602 27.204 11.796 26 11.398 25ZM15 28.602C14 28 12.796 28.398 12.204 29.398L9.204 34.602C8.602 35.602 9 36.796 10 37.398C10.398 37.602 10.602 37.602 11 37.602C11.602 37.602 12.398 37.204 12.796 36.602L15.796 31.398C16.204 30.398 16 29.204 15 28.602ZM20 30C19 30 18 30.796 18 32V38C18 39.204 18.796 40 20 40C21 40 22 39.204 22 38V32C22 31 21 30 20 30ZM27.602 29.398C27 28.398 25.796 28.204 24.796 28.602C23.796 29.204 23.602 30.398 24 31.398L27 36.602C27.398 37.204 28 37.602 28.796 37.602C29.204 37.602 29.398 37.602 29.796 37.398C30.796 36.796 31 35.602 30.602 34.602L27.602 29.398ZM36.602 27.398L31.398 24.398C30.398 23.796 29.204 24.204 28.602 25.204C28 26.204 28.398 27.398 29.398 28L34.602 31C35 31.204 35.204 31.204 35.602 31.204C36.204 31.204 37 30.796 37.398 30.204C37.796 29 37.602 27.796 36.602 27.398ZM38 18H32C30.796 18 30 18.796 30 20C30 21.204 30.796 22 32 22H38C39.204 22 40 21.204 40 20C40 19 39.204 18 38 18ZM28.602 15C29 15.602 29.602 16 30.398 16C30.796 16 31 16 31.398 15.796L36.602 12.796C37.602 12.204 37.796 11 37.398 10C36.796 9 35.602 8.796 34.602 9.204L29.398 12.204C28.398 12.796 28.204 14 28.602 15ZM25 11.398C25.398 11.602 25.602 11.602 26 11.602C26.602 11.602 27.398 11.204 27.796 10.602L30.796 5.398C31.398 4.398 31 3.204 30 2.602C29 2 27.796 2.398 27.204 3.398L24.204 8.602C23.796 9.602 24 10.796 25 11.398ZM20 0C18.796 0 18 0.796 18 2V8C18 9.204 18.796 10 20 10C21.204 10 22 9.204 22 8V2C22 0.796 21.204 0 20 0Z" fill="#202244"/>
</svg>
