<svg width="20" height="20" viewBox="0 0 20 20" fill="none" xmlns="http://www.w3.org/2000/svg">
    <path d="M15 3.33325H5C4.07952 3.33325 3.33333 4.07944 3.33333 4.99992V6.66659C3.33333 7.58706 4.07952 8.33325 5 8.33325H15C15.9205 8.33325 16.6667 7.58706 16.6667 6.66659V4.99992C16.6667 4.07944 15.9205 3.33325 15 3.33325Z" stroke="#9CA3AF" stroke-width="1.5" stroke-linecap="round" stroke-linejoin="round"/>
    <path d="M15 11.6665H5C4.07952 11.6665 3.33333 12.4127 3.33333 13.3332V14.9998C3.33333 15.9203 4.07952 16.6665 5 16.6665H15C15.9205 16.6665 16.6667 15.9203 16.6667 14.9998V13.3332C16.6667 12.4127 15.9205 11.6665 15 11.6665Z" stroke="#9CA3AF" stroke-width="1.5" stroke-linecap="round" stroke-linejoin="round"/>
</svg>
