<svg width="17" height="14" viewBox="0 0 17 14" fill="none" xmlns="http://www.w3.org/2000/svg">
    <path fill-rule="evenodd" clip-rule="evenodd" d="M16.9999 1.6593C16.3624 1.9347 15.6849 2.11745 14.9947 2.20329C15.7249 1.76555 16.2697 1.0813 16.5315 0.274658C15.8481 0.679255 15.0976 0.968253 14.3139 1.12465C13.2378 -0.0440897 11.5081 -0.336488 10.1107 0.410657C8.70904 1.1612 7.99164 2.75834 8.36394 4.30193C5.56151 4.15913 2.95203 2.83484 1.18234 0.656305C0.872944 1.19095 0.713995 1.7987 0.713995 2.41579C0.710595 3.57859 1.29199 4.66743 2.26098 5.31512C1.70679 5.29812 1.16534 5.14852 0.680845 4.87993V4.92328C0.687645 6.57991 1.85979 8.0011 3.48668 8.32325C3.18068 8.4159 2.86533 8.46265 2.54998 8.46605C2.33068 8.46605 2.11139 8.44565 1.89549 8.4057C2.35448 9.82264 3.66262 10.7933 5.15011 10.8197C3.92442 11.7861 2.41058 12.314 0.849994 12.3174C0.564396 12.3174 0.282198 12.3004 0 12.2664C1.59374 13.2966 3.45013 13.8414 5.34561 13.838C7.98824 13.8678 10.5357 12.8282 12.4048 10.9625C14.2774 9.09675 15.3194 6.55356 15.2999 3.91008V3.46214C15.9671 2.96404 16.5417 2.35289 16.9999 1.6593Z" fill="#1DA1F2"/>
</svg>
