<svg width="22" height="22" viewBox="0 0 22 22" fill="none" xmlns="http://www.w3.org/2000/svg">
<path d="M12.8333 2.75V6.41667C12.8333 6.65978 12.9299 6.89294 13.1018 7.06485C13.2737 7.23676 13.5069 7.33333 13.75 7.33333H17.4166" stroke="#9CA3AF" stroke-width="1.5" stroke-linecap="round" stroke-linejoin="round"/>
<path d="M8.24998 15.5833H13.75M8.24998 11.9167H13.75M15.5833 19.25H6.41665C5.93042 19.25 5.4641 19.0568 5.12028 18.713C4.77647 18.3692 4.58331 17.9029 4.58331 17.4167V4.58333C4.58331 4.0971 4.77647 3.63079 5.12028 3.28697C5.4641 2.94315 5.93042 2.75 6.41665 2.75H12.8333L17.4166 7.33333V17.4167C17.4166 17.9029 17.2235 18.3692 16.8797 18.713C16.5359 19.0568 16.0695 19.25 15.5833 19.25Z" stroke="#9CA3AF" stroke-width="1.5" stroke-linecap="round" stroke-linejoin="round"/>
</svg>
