<svg width="14" height="16" viewBox="0 0 14 16" fill="none" xmlns="http://www.w3.org/2000/svg">
    <g clip-path="url(#clip0_534_5886)">
        <path d="M11.8751 1.24514C11.1133 0.40371 9.73619 0.0429688 7.97449 0.0429688H2.86152C2.68722 0.042975 2.51864 0.103236 2.38608 0.212917C2.25352 0.322598 2.16569 0.474505 2.13837 0.641326L0.00943089 13.7257C-0.0328855 13.9837 0.173284 14.2173 0.443147 14.2173H3.59971L4.39246 9.34469L4.36786 9.49727C4.42433 9.15285 4.72831 8.89881 5.08828 8.89881H6.58827C9.535 8.89881 11.8423 7.73897 12.5163 4.38379C12.5363 4.28456 12.5537 4.18798 12.5687 4.09362C12.4836 4.04996 12.4836 4.04996 12.5687 4.09362C12.7694 2.85351 12.5673 2.00938 11.8751 1.24514Z" fill="#27346A"/>
        <path d="M5.60028 3.64689C5.68658 3.60707 5.78096 3.58644 5.87654 3.58649H9.88501C10.3597 3.58649 10.8024 3.61643 11.207 3.67952C11.3202 3.69702 11.4328 3.7179 11.5447 3.74215C11.7033 3.77605 11.86 3.81755 12.0143 3.86649C12.2132 3.93086 12.3985 4.00583 12.5687 4.09362C12.7694 2.85303 12.5673 2.00938 11.8751 1.24514C11.1128 0.40371 9.73619 0.0429688 7.97449 0.0429688H2.86109C2.50107 0.0429688 2.1948 0.296955 2.13837 0.641326L0.00943119 13.7252C-0.0328852 13.9836 0.173284 14.217 0.44271 14.217H3.59971L5.24442 4.10994C5.26059 4.01059 5.30143 3.91654 5.36342 3.83588C5.42541 3.75522 5.5067 3.69036 5.60028 3.64689Z" fill="#27346A"/>
        <path d="M12.5162 4.38392C11.8422 7.73862 9.53488 8.89894 6.58809 8.89894H5.08767C4.7277 8.89894 4.42367 9.15298 4.36774 9.49741L3.3815 15.556C3.34466 15.7818 3.52486 15.9864 3.7606 15.9864H6.42151C6.57393 15.9863 6.72134 15.9336 6.83723 15.8376C6.95311 15.7417 7.02986 15.6088 7.05368 15.4629L7.0796 15.3315L7.58111 12.2515L7.61342 12.0812C7.63724 11.9354 7.71398 11.8025 7.82986 11.7066C7.94573 11.6106 8.09313 11.5579 8.24554 11.5578H8.64377C11.2214 11.5578 13.2398 10.543 13.8296 7.60813C14.0757 6.38164 13.9484 5.35764 13.2971 4.63839C13.0996 4.42053 12.8543 4.24061 12.5685 4.09375C12.553 4.18858 12.5362 4.28469 12.5162 4.38392Z" fill="#2790C3"/>
        <path d="M11.8631 3.82156C11.7581 3.79183 11.652 3.7655 11.5451 3.74262C11.4331 3.71877 11.3205 3.69803 11.2074 3.68043C10.8023 3.6169 10.3599 3.58692 9.88483 3.58692H5.87685C5.7812 3.58671 5.68674 3.60752 5.60059 3.64779C5.5069 3.69113 5.42552 3.75595 5.3635 3.83663C5.30148 3.91732 5.2607 4.01144 5.24467 4.11084L4.39277 9.34517L4.36816 9.49775C4.4242 9.15333 4.72818 8.89929 5.0882 8.89929H6.58863C9.53536 8.89929 11.8426 7.73945 12.5166 4.38427C12.5367 4.28503 12.5535 4.18888 12.569 4.09409C12.3983 4.00678 12.2136 3.93134 12.0146 3.86739C11.9644 3.85127 11.914 3.83599 11.8632 3.82156" fill="#1F264F"/>
    </g>
    <defs>
        <clipPath id="clip0_534_5886">
            <rect width="14" height="16" fill="white"/>
        </clipPath>
    </defs>
</svg>
