<svg width="16" height="19" viewBox="0 0 16 19" fill="none" xmlns="http://www.w3.org/2000/svg">
    <path fill-rule="evenodd" clip-rule="evenodd" d="M7.96753 0.072476C10.8305 0.072476 14.0412 2.09051 14.404 5.33299V7.02277C14.528 7.6308 14.8162 8.19965 15.2312 8.6622C15.2563 8.6911 15.2797 8.72001 15.2964 8.75359C15.676 9.32524 15.8942 9.98455 15.9268 10.6653L15.9017 10.8369C15.9306 11.7695 15.621 12.6834 15.0232 13.4051C14.266 14.2249 13.228 14.7387 12.1127 14.8441C9.36262 15.1425 6.58642 15.1425 3.84006 14.8441C2.73965 14.7312 1.72037 14.2174 0.97713 13.4051C0.371905 12.6945 0.05204 11.7844 0.0734887 10.8556V10.739C0.121049 10.0396 0.354186 9.36161 0.75425 8.77876L0.820461 8.69483C1.23545 8.22856 1.51987 7.66437 1.64763 7.05541V5.36563L1.69053 5.27051C1.83321 5.02991 2.10272 4.8919 2.38621 4.9208C2.70328 4.95717 2.96253 5.19777 3.01289 5.51111V7.20182V7.29228C2.8385 8.1409 2.44496 8.92797 1.86958 9.5733C1.64763 9.9258 1.5236 10.3268 1.50495 10.739V10.9208C1.48723 11.4999 1.68027 12.0679 2.05143 12.5202C2.56526 13.048 3.25348 13.3725 3.98927 13.4378C6.6489 13.7259 9.33465 13.7259 11.9961 13.4378C12.7543 13.3688 13.4584 13.0303 13.9741 12.4801C14.3275 12.039 14.5103 11.4888 14.4954 10.9283V10.739C14.4767 10.3231 14.3574 9.923 14.1382 9.56584C13.5414 8.92424 13.1217 8.13717 12.9324 7.28482C12.9287 7.25591 12.9287 7.22327 12.9324 7.19436V5.49619C12.6918 3.01933 10.201 1.48249 8.0328 1.48249C7.11145 1.48249 6.20407 1.71563 5.40301 2.16325L5.30416 2.21454C5.10087 2.29474 4.87146 2.27982 4.67842 2.17071C4.45554 2.03922 4.31752 1.79956 4.32498 1.54404C4.33151 1.28572 4.47792 1.05259 4.70733 0.936018C5.70143 0.374622 6.82329 0.0799364 7.96753 0.072476ZM9.53048 16.4574C9.7888 16.2242 10.1861 16.2103 10.463 16.4397C10.7652 16.6868 10.809 17.1353 10.5572 17.4338C9.938 18.2386 8.98121 18.7123 7.96007 18.7235L7.75584 18.716C6.81583 18.647 5.94576 18.1845 5.37037 17.4338L5.30789 17.3498C5.12978 17.0551 5.18759 16.6653 5.46456 16.4397C5.76671 16.1879 6.21899 16.2317 6.46985 16.5339C6.57989 16.6803 6.71045 16.8071 6.85966 16.9162C7.25319 17.2081 7.74838 17.3321 8.2333 17.2594C8.72196 17.1866 9.15839 16.9274 9.45121 16.5339H9.45774L9.53048 16.4574Z" fill="#167F71"/>
    <path d="M14.404 5.33299H14.477L14.4761 5.32493L14.404 5.33299ZM14.404 7.02277H14.33L14.3329 7.03727L14.404 7.02277ZM15.2312 8.6622L15.2859 8.61455L15.2851 8.61376L15.2312 8.6622ZM15.2964 8.75359L15.2311 8.78627L15.236 8.79371L15.2964 8.75359ZM15.9268 10.6653L16 10.676L15.9993 10.6618L15.9268 10.6653ZM15.9017 10.8369L15.8288 10.8262L15.8292 10.8391L15.9017 10.8369ZM15.0232 13.4051L15.0766 13.4544L15.0791 13.4514L15.0232 13.4051ZM12.1127 14.8441L12.1059 14.7719L12.1049 14.772L12.1127 14.8441ZM3.84006 14.8441L3.84789 14.772L3.84746 14.7719L3.84006 14.8441ZM0.97713 13.4051L0.921877 13.4522L0.923619 13.4541L0.97713 13.4051ZM0.0734887 10.8556L0.14602 10.8572V10.8556H0.0734887ZM0.0734887 10.739L0.000956992 10.7341V10.739H0.0734887ZM0.75425 8.77876L0.697179 8.73374L0.69445 8.73772L0.75425 8.77876ZM0.820461 8.69483L0.766185 8.64653L0.763516 8.64991L0.820461 8.69483ZM1.64763 7.05541L1.71862 7.07031L1.72017 7.06294V7.05541H1.64763ZM1.64763 5.36563L1.58151 5.33581L1.5751 5.35003V5.36563H1.64763ZM1.69053 5.27051L1.62775 5.23328L1.62441 5.24069L1.69053 5.27051ZM2.38621 4.9208L2.39448 4.84874L2.39357 4.84865L2.38621 4.9208ZM3.01289 5.51111H3.08635L3.0845 5.4996L3.01289 5.51111ZM3.01289 7.29228L3.08393 7.30688L3.08542 7.29965V7.29228H3.01289ZM1.86958 9.5733L1.81469 9.52435L1.8082 9.53465L1.86958 9.5733ZM1.50495 10.739L1.43242 10.7357V10.739H1.50495ZM1.50495 10.9208L1.57748 10.9231V10.9208H1.50495ZM2.05143 12.5202L1.99516 12.5663L1.99946 12.5707L2.05143 12.5202ZM3.98927 13.4378L3.99708 13.3657L3.99568 13.3655L3.98927 13.4378ZM11.9961 13.4378L11.9896 13.3655L11.9883 13.3657L11.9961 13.4378ZM13.9741 12.4801L14.0272 12.5298L14.0307 12.5254L13.9741 12.4801ZM14.4954 10.9283H14.4228L14.4229 10.9302L14.4954 10.9283ZM14.4954 10.739H14.568L14.5678 10.7357L14.4954 10.739ZM14.1382 9.56584L14.2013 9.52714L14.1913 9.51644L14.1382 9.56584ZM12.9324 7.28482L12.8602 7.29414L12.8616 7.30055L12.9324 7.28482ZM12.9324 7.19436L13.005 7.20372V7.19436H12.9324ZM12.9324 5.49619H13.0053L13.0046 5.48918L12.9324 5.49619ZM5.40301 2.16325L5.43643 2.22767L5.43839 2.22657L5.40301 2.16325ZM5.30416 2.21454L5.33092 2.28237L5.33757 2.27893L5.30416 2.21454ZM4.67842 2.17071L4.64156 2.2332L4.64273 2.23386L4.67842 2.17071ZM4.32498 1.54404L4.39749 1.54616L4.39749 1.54587L4.32498 1.54404ZM4.70733 0.936018L4.74022 1.00074L4.743 0.999174L4.70733 0.936018ZM9.53048 16.4574L9.48174 16.4034L9.47793 16.4074L9.53048 16.4574ZM10.463 16.4397L10.4168 16.4955L10.4171 16.4958L10.463 16.4397ZM10.5572 17.4338L10.5017 17.3869L10.4997 17.3895L10.5572 17.4338ZM7.96007 18.7235L7.95741 18.796L7.96086 18.796L7.96007 18.7235ZM7.75584 18.716L7.75052 18.7884L7.75319 18.7885L7.75584 18.716ZM5.37037 17.4338L5.31219 17.4771L5.31281 17.4779L5.37037 17.4338ZM5.30789 17.3498L5.24553 17.3875L5.24971 17.3931L5.30789 17.3498ZM5.46456 16.4397L5.51038 16.4959L5.51099 16.4954L5.46456 16.4397ZM6.46985 16.5339L6.5279 16.4902L6.52566 16.4875L6.46985 16.5339ZM6.85966 16.9162L6.90287 16.8579L6.90247 16.8576L6.85966 16.9162ZM8.2333 17.2594L8.22262 17.1876L8.22254 17.1876L8.2333 17.2594ZM9.45121 16.5339V16.4613H9.41477L9.39302 16.4906L9.45121 16.5339ZM9.45774 16.5339V16.6064H9.48885L9.51029 16.5838L9.45774 16.5339ZM7.96753 0.145008C10.8048 0.145008 13.9744 2.14552 14.3319 5.34106L14.4761 5.32493C14.1081 2.03551 10.8561 -5.56538e-05 7.96753 -5.56538e-05V0.145008ZM14.3315 5.33299V7.02277H14.4765V5.33299H14.3315ZM14.3329 7.03727C14.4596 7.65806 14.7537 8.2386 15.1772 8.71063L15.2851 8.61376C14.8787 8.1607 14.5965 7.60353 14.4751 7.00828L14.3329 7.03727ZM15.1765 8.70983C15.201 8.73798 15.2191 8.76114 15.2316 8.78602L15.3613 8.72115C15.3402 8.67889 15.3117 8.64423 15.2859 8.61456L15.1765 8.70983ZM15.236 8.79371C15.6084 9.3546 15.8224 10.0013 15.8544 10.6688L15.9993 10.6618C15.966 9.96782 15.7436 9.29588 15.3569 8.71347L15.236 8.79371ZM15.8551 10.6548L15.8299 10.8264L15.9734 10.8474L15.9986 10.6758L15.8551 10.6548ZM15.8292 10.8391C15.8575 11.7542 15.5537 12.6508 14.9673 13.3589L15.0791 13.4514C15.6882 12.7159 16.0036 11.7847 15.9742 10.8347L15.8292 10.8391ZM14.9699 13.3559C14.2248 14.1625 13.2035 14.6682 12.1059 14.7719L12.1195 14.9163C13.2526 14.8092 14.3071 14.2872 15.0765 13.4544L14.9699 13.3559ZM12.1049 14.772C9.35999 15.0698 6.58904 15.0698 3.84789 14.772L3.83222 14.9162C6.5838 15.2152 9.36525 15.2152 12.1205 14.9162L12.1049 14.772ZM3.84746 14.7719C2.76475 14.6609 1.76188 14.1553 1.03064 13.3562L0.923619 13.4541C1.67886 14.2795 2.71455 14.8016 3.83266 14.9162L3.84746 14.7719ZM1.03235 13.3581C0.438759 12.6612 0.124961 11.7684 0.146001 10.8572L0.000976323 10.8539C-0.0208805 11.8004 0.305051 12.7279 0.921912 13.4522L1.03235 13.3581ZM0.14602 10.8556V10.739H0.000956992V10.8556H0.14602ZM0.145853 10.7439C0.192541 10.0573 0.421402 9.39185 0.81405 8.81981L0.69445 8.73772C0.286971 9.33137 0.0495562 10.0218 0.0011241 10.7341L0.145853 10.7439ZM0.811195 8.82369L0.877406 8.73976L0.763516 8.64991L0.697305 8.73384L0.811195 8.82369ZM0.874642 8.74306C1.29803 8.26734 1.58826 7.69166 1.71862 7.07031L1.57665 7.04052C1.45149 7.63707 1.17286 8.18978 0.76628 8.64661L0.874642 8.74306ZM1.72017 7.05541V5.36563H1.5751V7.05541H1.72017ZM1.71375 5.39545L1.75665 5.30033L1.62441 5.24069L1.58151 5.33581L1.71375 5.39545ZM1.75292 5.30751C1.88124 5.09112 2.12358 4.96693 2.37886 4.99296L2.39357 4.84865C2.08186 4.81686 1.78518 4.9687 1.62814 5.23351L1.75292 5.30751ZM2.37795 4.99286C2.66386 5.02566 2.89626 5.24251 2.94127 5.52262L3.0845 5.4996C3.0288 5.15304 2.7427 4.88869 2.39448 4.84875L2.37795 4.99286ZM2.94036 5.51111V7.20182H3.08542V5.51111H2.94036ZM2.94036 7.20182V7.29228H3.08542V7.20182H2.94036ZM2.94184 7.27768C2.77 8.11389 2.38225 8.88932 1.81544 9.52503L1.92372 9.62157C2.50767 8.96663 2.907 8.16791 3.08393 7.30688L2.94184 7.27768ZM1.8082 9.53465C1.5795 9.89789 1.45171 10.3111 1.4325 10.7357L1.57741 10.7423C1.5955 10.3425 1.71577 9.95371 1.93096 9.61194L1.8082 9.53465ZM1.43242 10.739V10.9208H1.57748V10.739H1.43242ZM1.43246 10.9186C1.4142 11.5153 1.61311 12.1004 1.99536 12.5662L2.1075 12.4741C1.74744 12.0354 1.56027 11.4846 1.57745 10.9231L1.43246 10.9186ZM1.99946 12.5707C2.52553 13.1111 3.22997 13.4432 3.98286 13.51L3.99568 13.3655C3.27699 13.3018 2.605 12.9848 2.1034 12.4696L1.99946 12.5707ZM3.98145 13.5099C6.64628 13.7986 9.33726 13.7986 12.004 13.5099L11.9883 13.3657C9.33203 13.6533 6.65152 13.6533 3.99708 13.3657L3.98145 13.5099ZM12.0027 13.51C12.7782 13.4394 13.4989 13.0931 14.027 12.5297L13.9212 12.4305C13.4179 12.9674 12.7305 13.2981 11.9896 13.3656L12.0027 13.51ZM14.0307 12.5254C14.3949 12.0708 14.5833 11.5038 14.5679 10.9264L14.4229 10.9302C14.4373 11.4737 14.2601 12.0071 13.9175 12.4347L14.0307 12.5254ZM14.5679 10.9283V10.739H14.4228V10.9283H14.5679ZM14.5678 10.7357C14.5487 10.3079 14.4258 9.89584 14.2 9.5279L14.0764 9.60377C14.2889 9.95017 14.4048 10.3382 14.4229 10.7422L14.5678 10.7357ZM14.1913 9.51644C13.6031 8.88405 13.1897 8.10852 13.0032 7.26909L12.8616 7.30055C13.0538 8.16582 13.4797 8.96444 14.0851 9.61524L14.1913 9.51644ZM13.0044 7.27554C13.0014 7.25279 13.0014 7.22639 13.0044 7.20364L12.8605 7.18508C12.856 7.22015 12.856 7.25903 12.8605 7.2941L13.0044 7.27554ZM13.005 7.19436V5.49619H12.8599V7.19436H13.005ZM13.0046 5.48918C12.7593 2.96372 10.2256 1.40996 8.0328 1.40996V1.55502C10.1764 1.55502 12.6244 3.07494 12.8602 5.5032L13.0046 5.48918ZM8.0328 1.40996C7.09925 1.40996 6.17967 1.64618 5.36763 2.09994L5.43839 2.22657C6.22847 1.78508 7.12364 1.55502 8.0328 1.55502V1.40996ZM5.36961 2.09887L5.27076 2.15016L5.33757 2.27893L5.43642 2.22763L5.36961 2.09887ZM5.27755 2.14707C5.09453 2.21927 4.88803 2.20587 4.71411 2.10757L4.64273 2.23386C4.85489 2.35377 5.1072 2.37022 5.33078 2.28202L5.27755 2.14707ZM4.71528 2.10824C4.51401 1.98951 4.39083 1.77396 4.39749 1.54616L4.25248 1.54192C4.24421 1.82516 4.39707 2.08894 4.64157 2.23318L4.71528 2.10824ZM4.39749 1.54587C4.40335 1.31399 4.53471 1.10509 4.74019 1.00068L4.67447 0.871355C4.42113 1.00008 4.25967 1.25746 4.25248 1.54221L4.39749 1.54587ZM4.743 0.999174C5.72619 0.443939 6.83591 0.152387 7.968 0.145006L7.96705 -5.41098e-05C6.81067 0.00748549 5.67667 0.305306 4.67166 0.872861L4.743 0.999174ZM9.57908 16.5112C9.8109 16.302 10.1678 16.2893 10.4168 16.4955L10.5093 16.3838C10.2043 16.1312 9.76669 16.1465 9.48188 16.4035L9.57908 16.5112ZM10.4171 16.4958C10.6883 16.7176 10.7272 17.1199 10.5018 17.387L10.6127 17.4805C10.8908 17.1508 10.8421 16.656 10.509 16.3835L10.4171 16.4958ZM10.4997 17.3895C9.89423 18.1765 8.95843 18.64 7.95927 18.651L7.96086 18.796C9.00398 18.7846 9.98177 18.3006 10.6147 17.478L10.4997 17.3895ZM7.96271 18.651L7.75848 18.6435L7.75319 18.7885L7.95742 18.796L7.96271 18.651ZM7.76115 18.6437C6.84146 18.5762 5.99053 18.1237 5.42794 17.3896L5.31281 17.4779C5.90098 18.2453 6.79019 18.7179 7.75053 18.7884L7.76115 18.6437ZM5.42855 17.3904L5.36607 17.3065L5.24971 17.3931L5.31219 17.4771L5.42855 17.3904ZM5.36997 17.3123C5.21 17.0477 5.26224 16.6981 5.51038 16.4959L5.41875 16.3834C5.11295 16.6326 5.04955 17.0626 5.24582 17.3874L5.36997 17.3123ZM5.51099 16.4954C5.78203 16.2695 6.18856 16.3086 6.41405 16.5802L6.52566 16.4875C6.24943 16.1548 5.75138 16.1062 5.41813 16.3839L5.51099 16.4954ZM6.41187 16.5774C6.52645 16.7299 6.66221 16.8617 6.81684 16.9747L6.90247 16.8576C6.75868 16.7525 6.63333 16.6306 6.52783 16.4903L6.41187 16.5774ZM6.81645 16.9745C7.22544 17.2778 7.74004 17.4067 8.24406 17.3311L8.22254 17.1876C7.75672 17.2575 7.28095 17.1384 6.90287 16.8579L6.81645 16.9745ZM8.24398 17.3311C8.75135 17.2556 9.20498 16.9863 9.5094 16.5772L9.39302 16.4906C9.11181 16.8685 8.69256 17.1177 8.22262 17.1876L8.24398 17.3311ZM9.45121 16.6064H9.45774V16.4613H9.45121V16.6064ZM9.51029 16.5838L9.58303 16.5074L9.47793 16.4074L9.40519 16.4839L9.51029 16.5838Z" fill="#167F71"/>
</svg>
