<svg width="12" height="18" viewBox="0 0 12 18" fill="none" xmlns="http://www.w3.org/2000/svg">
    <path fill-rule="evenodd" clip-rule="evenodd" d="M9.37467 14.74L11.962 7.63146C12.081 7.30447 11.9122 6.94249 11.5852 6.82348C11.2582 6.70446 10.8962 6.87325 10.7772 7.20025L8.18992 14.3088C7.51564 16.1613 5.4639 17.1181 3.61133 16.4438C1.75877 15.7695 0.802028 13.7178 1.47631 11.8652L4.78229 2.7821C5.21796 1.5851 6.54791 0.964938 7.74491 1.40061C8.9419 1.83628 9.56207 3.16623 9.12639 4.36322L6.03602 12.854C5.8378 13.3986 5.23397 13.6801 4.68937 13.4819C4.14478 13.2837 3.86321 12.6799 4.06142 12.1353L6.86433 4.43437C6.98334 4.10737 6.81455 3.7454 6.48756 3.62638C6.16056 3.50737 5.79859 3.67616 5.67957 4.00315L2.87667 11.7041C2.441 12.9011 3.06116 14.231 4.25816 14.6667C5.45516 15.1023 6.7851 14.4822 7.22077 13.2852L10.3111 4.79444C10.9854 2.94188 10.0287 0.890132 8.17612 0.215854C6.32356 -0.458423 4.27181 0.498321 3.59754 2.35088L0.29155 11.434C-0.619752 13.9378 0.676336 16.7173 3.18012 17.6286C5.6839 18.5399 8.46337 17.2438 9.37467 14.74Z" fill="#202244"/>
</svg>
