<svg width="64" height="58" viewBox="0 0 64 58" fill="none" xmlns="http://www.w3.org/2000/svg">
    <path fill-rule="evenodd" clip-rule="evenodd" d="M42.3282 37.6711C36.6412 43.3591 27.3712 43.3591 21.6721 37.6711C15.9801 31.9681 15.9801 22.699 21.6721 17.011C24.5122 14.16 28.2502 12.73 32.0002 12.73C35.8752 12.726 39.5902 14.261 42.3282 17C48.0312 22.699 48.0312 31.9681 42.3282 37.6711ZM46.4882 38.2701C49.1133 34.8041 50.4023 30.507 50.1213 26.171C50.0783 25.539 50.0123 24.921 49.8983 24.3C49.3013 20.699 47.6212 17.261 44.8402 14.492C44.6092 14.261 44.3712 14.031 44.1292 13.82C43.6212 13.371 43.1092 12.961 42.5782 12.57C36.2812 8.04996 27.7112 8.04996 21.4101 12.57C20.8791 12.949 20.3591 13.378 19.8591 13.82C19.6291 14.039 19.3911 14.25 19.1601 14.48C16.4881 17.14 14.7151 20.57 14.0901 24.289C13.9881 24.91 13.9101 25.539 13.8711 26.16C13.5511 31.199 15.3091 36.3391 19.1481 40.1711C22.6912 43.7311 27.3522 45.5001 32.0002 45.5001C35.8592 45.5001 39.7112 44.2701 42.9412 41.8321L55.0583 56.0591C55.7893 56.9141 56.8403 57.4212 57.9613 57.4642C59.0783 57.5072 60.1683 57.0821 60.9613 56.2891C62.6093 54.6411 62.5003 51.9211 60.7193 50.4021L46.4882 38.2701Z" fill="#292F64"/>
    <mask id="mask0_0_1057" style="mask-type:luminance" maskUnits="userSpaceOnUse" x="0" y="0" width="64" height="37">
        <path fill-rule="evenodd" clip-rule="evenodd" d="M0 0H64V36.4919H0V0Z" fill="white"/>
    </mask>
    <g mask="url(#mask0_0_1057)">
        <path fill-rule="evenodd" clip-rule="evenodd" d="M52.219 10.4409C55.102 10.4409 57.442 8.10093 57.442 5.21792C57.442 2.33891 55.102 -0.00010168 52.219 -0.00010168C49.3399 -0.00810171 46.9999 2.33891 46.9999 5.21792C46.9999 8.10093 49.3399 10.4409 52.219 10.4409ZM55.891 11.1789L55.711 11.1599L52.809 15.32C52.68 15.511 52.461 15.625 52.231 15.621C52 15.621 51.782 15.5 51.641 15.308L48.7309 11.1519L48.5509 11.1709C47.3399 11.3079 46.1799 11.6789 45.1019 12.2889L44.7309 12.4999L45.0509 12.7889C45.3089 13.0189 45.5589 13.2609 45.8089 13.511C48.6989 16.402 50.5779 20.039 51.2389 24.058L51.2819 24.32H59.571L59.809 20.089C59.836 19.703 60.164 19.41 60.551 19.421H60.559C60.949 19.441 61.25 19.781 61.231 20.171L61.012 24.32H64V20.261C64 15.609 60.512 11.6989 55.891 11.1789ZM11.7698 10.4409C14.6478 10.4409 16.9878 8.10093 16.9878 5.21792C16.9878 2.33891 14.6478 -0.00010168 11.7698 -0.00010168C8.89079 -0.00010168 6.55178 2.33891 6.55178 5.21792C6.53878 8.10093 8.89079 10.4409 11.7698 10.4409ZM18.9488 12.7999L19.2618 12.5189L18.8978 12.3079C17.8398 11.7029 16.6638 11.3199 15.4488 11.1789L15.2698 11.1599L12.3788 15.308C12.2498 15.48 12.0308 15.589 11.7888 15.589C11.5388 15.589 11.3278 15.492 11.2108 15.308L8.30179 11.1519L8.10179 11.1789C3.47977 11.6789 -0.000244142 15.589 -0.000244142 20.269V24.332H2.96877L2.74977 20.179C2.72977 19.789 3.03077 19.449 3.49977 19.429C3.85177 19.429 4.15977 19.742 4.17977 20.109L4.40977 24.339H12.6988L12.7378 24.082C13.4098 20.07 15.2888 16.429 18.1908 13.5309C18.4408 13.2689 18.6908 13.0389 18.9488 12.7999ZM31.9999 24.992C34.4889 24.992 36.5119 22.961 36.5119 20.48C36.5119 18 34.4889 15.968 31.9999 15.968C29.5119 15.968 27.4879 18 27.4879 20.48C27.4879 22.961 29.5119 24.992 31.9999 24.992ZM35.1599 25.742L34.9809 25.718L32.5899 29.128C32.4689 29.309 32.2389 29.41 31.9999 29.41C31.7619 29.41 31.5389 29.3 31.4219 29.128L29.0309 25.718L28.8519 25.742C25.1019 26.191 22.2698 29.41 22.2698 33.21V36.492H24.5198L24.3398 33.141C24.3198 32.75 24.6288 32.402 25.1019 32.371C25.4409 32.371 25.7499 32.679 25.7699 33.059L25.9609 36.492H38.0389L38.2309 33.059C38.2579 32.668 38.5899 32.367 38.9809 32.378H38.9889C39.3789 32.402 39.6799 32.742 39.6599 33.141L39.4809 36.492H41.7309V33.21C41.7189 29.421 38.8989 26.211 35.1599 25.742Z" fill="#292F64"/>
    </g>
</svg>
