<svg width="40" height="48" viewBox="0 0 40 48" fill="none" xmlns="http://www.w3.org/2000/svg">
    <path fill-rule="evenodd" clip-rule="evenodd" d="M17.7392 3.13041H4.17397C3.59901 3.13041 3.13049 2.66189 3.13049 2.08694C3.13049 1.51198 3.59901 1.04346 4.17397 1.04346H17.7392C18.3141 1.04346 18.7827 1.51198 18.7827 2.08694C18.7827 2.66189 18.3141 3.13041 17.7392 3.13041ZM35.4783 3.13041H21.9131C21.3381 3.13041 20.8696 2.66189 20.8696 2.08694C20.8696 1.51198 21.3381 1.04346 21.9131 1.04346H35.4783C36.0533 1.04346 36.5218 1.51198 36.5218 2.08694C36.5218 2.66189 36.0533 3.13041 35.4783 3.13041Z" fill="#DAD7E5"/>
    <path fill-rule="evenodd" clip-rule="evenodd" d="M4.17395 17.7391V16.6956C4.20212 8.92273 9.90473 2.33943 17.592 1.19786C18.1712 1.12064 18.7013 1.5203 18.7826 2.09943C18.864 2.67334 18.4602 3.2076 17.8863 3.28482C11.2341 4.27612 6.29743 9.97038 6.26091 16.6956V17.7391C6.26091 18.314 5.79238 18.7826 5.21743 18.7826C4.64247 18.7826 4.17395 18.314 4.17395 17.7391ZM33.3913 17.7391V16.6956C33.3913 9.95369 28.4432 4.23125 21.766 3.26499C21.192 3.1836 20.7882 2.65351 20.8696 2.07438C20.951 1.50047 21.4811 1.09664 22.0602 1.17804C29.7715 2.29038 35.4908 8.90604 35.4783 16.6956V17.7391C35.4783 18.314 35.0098 18.7826 34.4348 18.7826C33.8599 18.7826 33.3913 18.314 33.3913 17.7391Z" fill="#DAD7E5"/>
    <path fill-rule="evenodd" clip-rule="evenodd" d="M29.2174 25.0434L25.0435 36.5217H14.6087L10.4348 25.0434L19.8261 14.6086L29.2174 25.0434Z" fill="#6FABE6"/>
    <path fill-rule="evenodd" clip-rule="evenodd" d="M29.2174 25.0435L25.8052 34.4348H24.3141C20.6171 34.4222 17.2665 32.2414 15.7618 28.8626C14.2581 25.488 14.8779 21.5384 17.3437 18.7826L20.4741 15.3297L29.2174 25.0435Z" fill="#82BCF4"/>
    <path fill-rule="evenodd" clip-rule="evenodd" d="M20.8695 15.7659V26.0869C20.8695 26.6619 20.401 27.1304 19.8261 27.1304C19.2511 27.1304 18.7826 26.6619 18.7826 26.0869V15.7659L19.8261 14.6086L20.8695 15.7659Z" fill="#FFDE76"/>
    <path fill-rule="evenodd" clip-rule="evenodd" d="M21.9131 28.1739C21.9173 29.2132 21.1514 30.0981 20.1235 30.2442C19.0926 30.3913 18.1096 29.76 17.8206 28.7604C17.5315 27.7618 18.0209 26.7026 18.9705 26.2748C19.6143 25.9847 20.3646 26.0421 20.9594 26.4251C21.55 26.808 21.9131 27.4644 21.9131 28.1739Z" fill="#FFCC66"/>
    <path fill-rule="evenodd" clip-rule="evenodd" d="M21.7255 29.0299C20.9345 29.3805 20.0131 29.2093 19.4027 28.5979C18.7902 27.9864 18.6201 27.065 18.9707 26.274C19.7617 25.9234 20.682 26.0946 21.2935 26.706C21.905 27.3175 22.0761 28.2389 21.7255 29.0299Z" fill="#FFDE76"/>
    <mask id="mask0_0_902" style="mask-type:luminance" maskUnits="userSpaceOnUse" x="0" y="0" width="40" height="48">
        <path fill-rule="evenodd" clip-rule="evenodd" d="M0 48H39.6522V0H0V48Z" fill="white"/>
    </mask>
    <g mask="url(#mask0_0_902)">
        <path fill-rule="evenodd" clip-rule="evenodd" d="M16.6957 40.6956H22.9565V36.5217H16.6957V40.6956Z" fill="#F16F39"/>
        <path fill-rule="evenodd" clip-rule="evenodd" d="M22.9565 36.5217V38.6087H20.8695C19.7165 38.6087 18.7826 37.6748 18.7826 36.5217H22.9565Z" fill="#F8834B"/>
        <path fill-rule="evenodd" clip-rule="evenodd" d="M26.0869 48H13.5652L14.6087 40.6957H25.0434C25.9325 46.9565 25.6789 45.2119 26.0869 48Z" fill="#F16F39"/>
    </g>
    <path fill-rule="evenodd" clip-rule="evenodd" d="M25.7853 45.9131H21.9662C20.6409 45.9089 19.3815 45.3339 18.5133 44.3353C17.6451 43.3325 17.2538 42.0084 17.4375 40.6957H25.0434L25.7853 45.9131Z" fill="#F8834B"/>
    <path fill-rule="evenodd" clip-rule="evenodd" d="M4.17391 2.08696C4.17391 3.24 3.24 4.17391 2.08696 4.17391C0.933913 4.17391 0 3.24 0 2.08696C0 0.933913 0.933913 0 2.08696 0C3.24 0 4.17391 0.933913 4.17391 2.08696Z" fill="#374F68"/>
    <path fill-rule="evenodd" clip-rule="evenodd" d="M39.6522 2.08696C39.6522 3.24 38.7183 4.17391 37.5652 4.17391C36.4122 4.17391 35.4783 3.24 35.4783 2.08696C35.4783 0.933913 36.4122 0 37.5652 0C38.7183 0 39.6522 0.933913 39.6522 2.08696Z" fill="#374F68"/>
    <mask id="mask1_0_902" style="mask-type:luminance" maskUnits="userSpaceOnUse" x="0" y="0" width="40" height="48">
        <path fill-rule="evenodd" clip-rule="evenodd" d="M0 48H39.6522V0H0V48Z" fill="white"/>
    </mask>
    <g mask="url(#mask1_0_902)">
        <path fill-rule="evenodd" clip-rule="evenodd" d="M32.3479 21.913H36.5218V17.7391H32.3479V21.913ZM3.13049 21.913H7.30441V17.7391H3.13049V21.913ZM17.7392 4.17391H21.9131V0H17.7392V4.17391Z" fill="#DB5669"/>
        <path fill-rule="evenodd" clip-rule="evenodd" d="M39.4646 2.9424C38.6736 3.293 37.7523 3.12187 37.1408 2.5104C36.5293 1.89892 36.3582 0.978569 36.7088 0.187613C37.4997 -0.162996 38.4211 0.00813454 39.0326 0.619613C39.6441 1.23109 39.8152 2.15144 39.4646 2.9424ZM3.98634 2.9424C3.19538 3.293 2.27504 3.12187 1.66356 2.5104C1.05104 1.89892 0.88095 0.978569 1.23156 0.187613C2.02251 -0.162996 2.94286 0.00813454 3.5533 0.619613C4.16582 1.23109 4.33591 2.15144 3.98634 2.9424Z" fill="#425B72"/>
        <path fill-rule="evenodd" clip-rule="evenodd" d="M21.9131 0V3.13043C20.1851 3.13043 18.7826 1.728 18.7826 0H21.9131ZM36.5218 17.7391V20.8696C34.7938 20.8696 33.3913 19.4671 33.3913 17.7391H36.5218ZM7.30438 17.7391V20.8696C5.57638 20.8696 4.17395 19.4671 4.17395 17.7391H7.30438Z" fill="#F26674"/>
    </g>
</svg>
