<svg width="63" height="40" viewBox="0 0 63 40" fill="none" xmlns="http://www.w3.org/2000/svg">
    <path fill-rule="evenodd" clip-rule="evenodd" d="M50.8475 16.8332C50.8475 16.6667 50.8751 16.5001 50.8751 16.3336C50.8751 7.30583 43.6806 0 34.8058 0C28.4028 0 22.9025 3.80528 20.3196 9.30556C19.1944 8.73583 17.9308 8.40278 16.5972 8.40278C12.5 8.40278 9.08306 11.4442 8.43042 15.4167C3.51417 17.111 0 21.8196 0 27.3611C0 34.3332 5.56972 40 12.4306 40H26.6667V28.8889H19.9724L31.1111 17.264L42.25 28.8747H35.5556V39.9858H50.8751C57.1528 39.9858 62.2222 34.7775 62.2222 28.4028C62.2222 22.0279 57.1251 16.8474 50.8475 16.8332Z" fill="#167F71"/>
</svg>
