<svg width="18" height="22" viewBox="0 0 18 22" fill="none" xmlns="http://www.w3.org/2000/svg">
    <path fill-rule="evenodd" clip-rule="evenodd" d="M1.00468 8.07588C0.9691 8.07588 0.933519 8.07893 0.897938 8.083C0.377438 8.14298 -0.0119203 8.58723 0.000278912 9.10773V12.1575C0.000278912 16.0776 3.91521 19.3195 7.83421 19.3195H5.80101H5.70138C5.14936 19.3591 4.72849 19.8319 4.75696 20.3839C4.78441 20.94 5.24493 21.369 5.80101 21.3527H11.9006C12.2707 21.3649 12.6153 21.1697 12.8023 20.8525C12.9894 20.5343 12.9894 20.1419 12.8023 19.8237C12.6153 19.5065 12.2707 19.3114 11.9006 19.3195H9.86741C13.7874 19.3195 18.0002 16.1192 18.0002 12.1992V9.14941C18.0002 8.58926 17.5438 8.13281 16.9796 8.13281C16.4204 8.13281 15.963 8.58926 15.963 9.14941V12.1992C15.963 15.0193 12.6875 17.2863 9.86741 17.2863H7.83421C5.01517 17.2863 2.18089 15.3558 2.03348 12.1575V9.10773C2.03755 8.83427 1.92979 8.57198 1.73562 8.37375C1.54145 8.17856 1.27916 8.07182 1.00468 8.07588ZM8.85488 2.03727C10.5506 2.03727 11.9006 3.39138 11.9006 5.09114V10.1701C11.9006 11.8658 10.5506 13.2158 8.85488 13.2158C7.15919 13.2158 5.80101 11.8658 5.80101 10.1701V5.09114C5.80101 3.39138 7.15919 2.03727 8.85488 2.03727ZM8.85488 0C6.05922 0 3.7678 2.29549 3.7678 5.09114V10.1701C3.7678 12.9657 6.05922 15.249 8.85488 15.249C11.6505 15.249 13.9338 12.9657 13.9338 10.1701V5.09114C13.9338 2.29549 11.6505 0 8.85488 0Z" fill="white"/>
</svg>
