<?xml version="1.0" encoding="utf-8"?><!-- Uploaded to: SVG Repo, www.svgrepo.com, Generator: SVG Repo Mixer Tools -->
<svg width="800px" height="800px" viewBox="0 0 24 24" fill="none" xmlns="http://www.w3.org/2000/svg">
    <path d="M17.93 18.12C16.8703 18.118 15.835 17.802 14.9549 17.2118C14.0747 16.6217 13.3893 15.7839 12.9851 14.8043C12.581 13.8247 12.4763 12.7473 12.6842 11.7082C12.8922 10.6691 13.4034 9.71501 14.1534 8.9664C14.9035 8.21779 15.8585 7.7083 16.898 7.50229C17.9375 7.29628 19.0147 7.40301 19.9935 7.80899C20.9723 8.21496 21.8088 8.90197 22.3974 9.7832C22.9859 10.6644 23.3 11.7003 23.3 12.76C23.2974 14.1825 22.7304 15.5458 21.7236 16.5507C20.7169 17.5556 19.3525 18.12 17.93 18.12ZM17.93 8.90002C17.167 8.90199 16.4217 9.13006 15.7882 9.5554C15.1548 9.98074 14.6616 10.5843 14.371 11.2898C14.0803 11.9953 14.0053 12.7711 14.1554 13.5192C14.3055 14.2673 14.6739 14.9541 15.2141 15.493C15.7543 16.0318 16.4421 16.3984 17.1906 16.5466C17.9391 16.6947 18.7147 16.6177 19.4195 16.3252C20.1242 16.0328 20.7265 15.538 21.1502 14.9035C21.5739 14.2689 21.8 13.523 21.8 12.76C21.8 12.2523 21.6998 11.7495 21.5052 11.2805C21.3106 10.8116 21.0254 10.3856 20.6659 10.027C20.3064 9.66848 19.8797 9.38436 19.4102 9.19097C18.9408 8.99757 18.4377 8.8987 17.93 8.90002Z" fill="#000000"/>
    <path d="M17 15.83C16.879 15.8286 16.7596 15.8013 16.65 15.75C16.5297 15.6841 16.4292 15.5872 16.3588 15.4694C16.2885 15.3516 16.2509 15.2172 16.25 15.08V10.67C16.2509 10.5328 16.2885 10.3984 16.3588 10.2806C16.4292 10.1628 16.5297 10.0659 16.65 10C16.7724 9.93692 16.9095 9.90825 17.0469 9.91705C17.1843 9.92586 17.3167 9.97181 17.43 10.05L20.59 12.26C20.689 12.3291 20.7699 12.4211 20.8257 12.5282C20.8816 12.6353 20.9107 12.7542 20.9107 12.875C20.9107 12.9958 20.8816 13.1147 20.8257 13.2218C20.7699 13.3289 20.689 13.4209 20.59 13.49L17.38 15.7C17.2675 15.7771 17.1361 15.822 17 15.83ZM17.75 12.11V13.64L18.85 12.87L17.75 12.11Z" fill="#000000"/>
    <path d="M14.94 22.73H8.94C7.94889 22.73 6.99809 22.3377 6.2954 21.6387C5.59271 20.9398 5.19529 19.9911 5.19 19V5.00001C5.18869 4.50624 5.28464 4.01705 5.47238 3.56036C5.66013 3.10367 5.93598 2.68843 6.2842 2.33836C6.63242 1.98828 7.04619 1.71022 7.50187 1.52005C7.95755 1.32988 8.44623 1.23132 8.94 1.23001H14.94C15.4338 1.23132 15.9224 1.32988 16.3781 1.52005C16.8338 1.71022 17.2476 1.98828 17.5958 2.33836C17.944 2.68843 18.2199 3.10367 18.4076 3.56036C18.5954 4.01705 18.6913 4.50624 18.69 5.00001V8.14001C18.69 8.33892 18.611 8.52969 18.4703 8.67034C18.3297 8.81099 18.1389 8.89001 17.94 8.89001C17.7411 8.89001 17.5503 8.81099 17.4097 8.67034C17.269 8.52969 17.19 8.33892 17.19 8.14001V5.00001C17.19 4.40327 16.9529 3.83098 16.531 3.40902C16.109 2.98706 15.5367 2.75001 14.94 2.75001H8.94C8.34326 2.75001 7.77097 2.98706 7.34901 3.40902C6.92705 3.83098 6.69 4.40327 6.69 5.00001V19C6.69 19.5967 6.92705 20.169 7.34901 20.591C7.77097 21.013 8.34326 21.25 8.94 21.25H14.94C15.5367 21.25 16.109 21.013 16.531 20.591C16.9529 20.169 17.19 19.5967 17.19 19V17.37C17.19 17.1711 17.269 16.9803 17.4097 16.8397C17.5503 16.699 17.7411 16.62 17.94 16.62C18.1389 16.62 18.3297 16.699 18.4703 16.8397C18.611 16.9803 18.69 17.1711 18.69 17.37V19C18.6821 19.9903 18.2838 20.9375 17.5817 21.6358C16.8796 22.3342 15.9303 22.7274 14.94 22.73Z" fill="#000000"/>
    <path d="M11.94 19.73C11.8402 19.7303 11.7415 19.7099 11.65 19.67C11.5608 19.632 11.4794 19.5778 11.41 19.51C11.3392 19.441 11.2815 19.3597 11.24 19.27C11.1737 19.0824 11.1737 18.8776 11.24 18.69C11.2815 18.6003 11.3392 18.519 11.41 18.45C11.4766 18.3788 11.5587 18.3241 11.65 18.29C11.7399 18.2506 11.8369 18.2303 11.935 18.2303C12.0331 18.2303 12.1301 18.2506 12.22 18.29C12.3154 18.3216 12.4014 18.3766 12.47 18.45C12.5378 18.5194 12.5921 18.6007 12.63 18.69C12.6696 18.7815 12.6901 18.8802 12.6901 18.98C12.6901 19.0798 12.6696 19.1785 12.63 19.27C12.5921 19.3592 12.5378 19.4406 12.47 19.51C12.3283 19.6489 12.1384 19.7277 11.94 19.73Z" fill="#000000"/>
</svg>