<svg width="22" height="16" viewBox="0 0 22 16" fill="none" xmlns="http://www.w3.org/2000/svg">
    <path fill-rule="evenodd" clip-rule="evenodd" d="M16.6284 10.0382C16.8593 10.2613 16.9522 10.592 16.8707 10.9029C16.7891 11.2136 16.5469 11.4558 16.236 11.5373C15.9253 11.6189 15.5947 11.526 15.3716 11.2951L13.3333 9.25689L11.2951 11.2951C11.1216 11.4687 10.894 11.5556 10.6667 11.5556C10.4393 11.5556 10.2118 11.4687 10.0382 11.2951C9.69089 10.948 9.69089 10.3853 10.0382 10.0382L12.0764 8L10.0382 5.96178C9.80733 5.73867 9.71444 5.408 9.796 5.09733C9.87756 4.78644 10.1198 4.54422 10.4307 4.46267C10.7413 4.38111 11.072 4.474 11.2951 4.70489L13.3333 6.74311L15.3716 4.70489C15.5947 4.474 15.9253 4.38111 16.236 4.46267C16.5469 4.54422 16.7891 4.78644 16.8707 5.09733C16.9522 5.408 16.8593 5.73867 16.6284 5.96178L14.5902 8L16.6284 10.0382ZM19.5556 13.3333C19.5556 13.8238 19.1571 14.2222 18.6667 14.2222H7.90978L2.37844 8L7.90978 1.77778H18.6667C19.1571 1.77778 19.5556 2.17622 19.5556 2.66667V13.3333ZM18.6667 0H7.11111L0 8L7.11111 16H18.6667C20.1398 16 21.3333 14.8064 21.3333 13.3333V2.66667C21.3333 1.19356 20.1398 0 18.6667 0Z" fill="#1D1D1B"/>
</svg>
