<svg width="70" height="70" viewBox="0 0 70 70" fill="none" xmlns="http://www.w3.org/2000/svg">
    <path fill-rule="evenodd" clip-rule="evenodd" d="M66.5 53.6667H3.5C1.568 53.6667 0 52.0987 0 50.1667V3.5C0 1.568 1.568 0 3.5 0H66.5C68.432 0 70 1.568 70 3.5V50.1667C70 52.0987 68.432 53.6667 66.5 53.6667Z" fill="#0455BF"/>
    <path fill-rule="evenodd" clip-rule="evenodd" d="M59.5001 49H7.00008C5.71208 49 4.66675 47.9547 4.66675 46.6667V7C4.66675 5.712 5.71208 4.66667 7.00008 4.66667H58.3334C59.6214 4.66667 60.6667 5.712 60.6667 7V47.8333C60.6667 48.4773 60.1441 49 59.5001 49Z" fill="#FDFEFF"/>
    <path fill-rule="evenodd" clip-rule="evenodd" d="M7.00008 46.6667V7C7.00008 5.712 8.04541 4.66667 9.33341 4.66667H7.00008C5.71208 4.66667 4.66675 5.712 4.66675 7V46.6667C4.66675 47.9547 5.71208 49 7.00008 49H9.33341C8.04541 49 7.00008 47.9547 7.00008 46.6667Z" fill="#DFEAEF"/>
    <path fill-rule="evenodd" clip-rule="evenodd" d="M45.5 26.8333C45.5 32.6309 40.7976 37.3333 35 37.3333C29.2024 37.3333 24.5 32.6309 24.5 26.8333C24.5 21.0358 29.2024 16.3333 35 16.3333C40.7976 16.3333 45.5 21.0358 45.5 26.8333Z" fill="#0455BF"/>
    <path fill-rule="evenodd" clip-rule="evenodd" d="M39.6666 31.5C39.6666 30.6678 40.1162 29.9024 40.8333 29.4887C39.284 28.5709 37.3209 29.6956 37.3333 31.5V35C38.1173 35 38.9013 34.9082 39.6666 34.7324V31.5Z" fill="#004787"/>
    <path fill-rule="evenodd" clip-rule="evenodd" d="M37.3332 35C33.3837 35.0062 29.7686 32.7942 27.975 29.2756C26.183 25.7584 26.5174 21.5351 28.8383 18.3384C26.3479 20.1429 24.7737 22.9444 24.531 26.0073C24.2868 29.0702 25.399 32.0833 27.5752 34.258C29.7437 36.428 32.7583 37.5402 35.8197 37.2976C38.8826 37.0533 41.6903 35.4807 43.4886 32.9887C41.7028 34.2953 39.5452 35 37.3332 35Z" fill="#004787"/>
    <path fill-rule="evenodd" clip-rule="evenodd" d="M32.6667 31.5C32.0227 31.5 31.5 30.9773 31.5 30.3333V23.3333C31.5 22.4638 32.4116 21.8991 33.1893 22.288L40.1893 25.788C40.9002 26.1473 41.0527 27.0947 40.4927 27.6531C40.3107 27.8367 40.3107 27.8367 33.1893 31.3724C33.0244 31.458 32.8487 31.5 32.6667 31.5Z" fill="#FEBC00"/>
    <path fill-rule="evenodd" clip-rule="evenodd" d="M40.1891 25.7882L39.9605 25.673L35.5225 27.8788C34.7447 28.2677 33.8331 27.703 33.8331 26.8335V22.6102L33.1891 22.2882C32.4113 21.8993 31.4998 22.4639 31.4998 23.3335V30.3335C31.4936 31.203 32.4051 31.7677 33.1829 31.385C40.298 27.8477 40.298 27.8477 40.4862 27.6657C41.0462 27.101 40.8938 26.1522 40.1829 25.8006L40.1891 25.7882Z" fill="#EDAA03"/>
    <path fill-rule="evenodd" clip-rule="evenodd" d="M22.1667 39.6667H11.6667V42H44.3334V39.6667H22.1667Z" fill="#0455BF"/>
    <path fill-rule="evenodd" clip-rule="evenodd" d="M65.3333 24.5C66.6213 24.5 67.6667 25.788 67.6667 26.8333C67.6667 28.1213 66.6213 29.1667 65.3333 29.1667C64.0453 29.1667 63 27.8787 63 26.8333C63 25.5453 64.0453 24.5 65.3333 24.5Z" fill="#FEBC00"/>
    <path fill-rule="evenodd" clip-rule="evenodd" d="M66.5001 28C64.8045 28.0062 63.6752 26.25 64.3799 24.7131C62.885 25.3742 62.5194 27.3373 63.6752 28.4916C64.8356 29.652 66.7925 29.288 67.4599 27.7931C67.1565 27.9269 66.8283 28 66.5001 28Z" fill="#EDAA03"/>
    <path fill-rule="evenodd" clip-rule="evenodd" d="M56 46.6667C54.712 46.6667 53.6666 47.712 53.6666 49V45.5C53.6666 42.3889 49 42.3889 49 45.5V40.8333C49 37.7222 44.3333 37.7222 44.3333 40.8333V31.5C44.3333 28.3889 39.6666 28.3889 39.6666 31.5V55.034C39.6666 56.3282 38.1049 56.9722 37.1933 56.0607L32.6666 51.534C31.7613 50.5976 30.2602 50.5867 29.3424 51.5091C28.42 52.4269 28.4309 53.928 29.3673 54.8333L34.314 59.7862L36.3969 61.8644C38.5544 64.0204 39.7693 66.9496 39.7693 70H55.314V69.5629C55.314 67.886 55.8413 66.2511 56.8198 64.8838C57.8044 63.5227 58.3333 61.8878 58.3333 60.2109V49C58.3333 47.712 57.288 46.6667 56 46.6667Z" fill="#ECC19C"/>
    <path fill-rule="evenodd" clip-rule="evenodd" d="M18.6668 43.1667C16.5886 43.1667 15.5494 40.6513 17.0148 39.1813C18.4848 37.716 21.0001 38.7551 21.0001 40.8333C21.0001 42.1213 19.9548 43.1667 18.6668 43.1667Z" fill="#FEBC00"/>
    <path fill-rule="evenodd" clip-rule="evenodd" d="M19.8333 42C18.1378 42.0062 17.0084 40.25 17.7131 38.7131C16.2182 39.3742 15.8527 41.3373 17.0084 42.4916C18.1689 43.652 20.1258 43.288 20.7931 41.7931C20.4898 41.9269 20.1616 42 19.8333 42Z" fill="#EDAA03"/>
    <path fill-rule="evenodd" clip-rule="evenodd" d="M29.3673 51.5338C29.5135 51.3938 29.6768 51.2725 29.8479 51.1698C28.1026 50.1478 25.9762 51.6925 26.4024 53.6665H28.7357C28.5708 52.895 28.8088 52.0923 29.3673 51.5338ZM37.3333 53.6665H39.6666V48.9998H37.3333V53.6665Z" fill="#004787"/>
    <mask id="mask0_0_154" style="mask-type:luminance" maskUnits="userSpaceOnUse" x="0" y="0" width="70" height="70">
        <path fill-rule="evenodd" clip-rule="evenodd" d="M0 70H70V0H0V70Z" fill="white"/>
    </mask>
    <g mask="url(#mask0_0_154)">
        <path fill-rule="evenodd" clip-rule="evenodd" d="M37.3334 49H39.6667V42H37.3334V49ZM39.6667 36.2273C39.3929 36.3611 39.1145 36.4887 38.8345 36.5976C38.7365 36.6349 38.64 36.6707 38.5358 36.708C38.2745 36.8044 38.0085 36.8838 37.7347 36.9569C37.6196 36.9864 37.492 37.0238 37.3691 37.0533L37.3271 37.0658V39.6667H39.6605L39.6667 36.2273Z" fill="#DFEAEF"/>
        <path fill-rule="evenodd" clip-rule="evenodd" d="M39.6666 34.7326C38.9013 34.9084 38.1173 35.0002 37.3333 35.0002V37.0597L37.3753 37.0535C37.8746 36.9322 38.3599 36.7797 38.8344 36.5977C39.119 36.4826 39.399 36.3675 39.6666 36.2213V34.7326ZM37.3333 42.0002H39.6666V39.6668H37.3333V42.0002Z" fill="#004787"/>
    </g>
</svg>
