<svg width="22" height="22" viewBox="0 0 22 22" fill="none" xmlns="http://www.w3.org/2000/svg">
    <path fill-rule="evenodd" clip-rule="evenodd" d="M21.5564 12.3641C21.5564 5.54713 16.0093 0 9.19103 0V1.25728C15.3156 1.25728 20.2991 6.23989 20.2991 12.3641H21.5564ZM1.55901 7.20485L3.38238 5.38148C3.3959 5.36796 3.42042 5.36074 3.45216 5.36074C3.52351 5.36074 3.63164 5.39625 3.72719 5.49212L6.41495 8.17956C6.55356 8.31849 6.56582 8.48414 6.52559 8.52469L5.68792 9.36203C4.64564 10.4046 5.84634 12.6945 7.57039 14.4182C8.42849 15.2766 9.37145 15.9615 10.2273 16.3484C11.6358 16.9843 12.3342 16.5901 12.6253 16.2994L13.4639 15.4617C13.5032 15.4215 13.6688 15.4338 13.8078 15.5724L16.4952 18.2614C16.6341 18.4 16.6464 18.5647 16.6071 18.6049L14.7825 20.4283C14.2767 20.9356 13.0503 20.8347 11.5019 20.1583C9.70903 19.3763 7.71875 17.9433 5.89915 16.125C4.1949 14.4207 2.72671 12.3531 1.8683 10.4537C1.1746 8.91884 1.05924 7.70462 1.55901 7.20485ZM0.722919 10.9704C1.64011 13.0038 3.20291 15.2065 5.01025 17.0139C6.93798 18.9416 9.06593 20.4676 10.9996 21.3112C12.052 21.7705 12.9949 21.9999 13.7867 21.9999C14.5763 21.9999 15.2172 21.773 15.6714 21.3172L17.496 19.4942C18.0498 18.9391 18.0005 17.9876 17.3844 17.3725L14.6967 14.6835C14.0803 14.0684 13.1288 14.0193 12.575 14.5728L11.7377 15.4102C11.5054 15.5834 10.0714 15.1414 8.45929 13.5293C6.84462 11.9159 6.40269 10.4807 6.57714 10.2509L7.41574 9.41358C7.96926 8.85881 7.91897 7.90579 7.30385 7.29066L4.61483 4.60322C3.99971 3.9881 3.047 3.93749 2.49317 4.49258L0.670113 6.31595C-0.241102 7.2256 -0.222557 8.87955 0.722919 10.9704Z" fill="#0961F5"/>
    <path fill-rule="evenodd" clip-rule="evenodd" d="M9.4238 3.43449V4.69177C13.784 4.69177 17.3312 8.23888 17.3312 12.5976H18.5884C18.5884 7.54517 14.4778 3.43449 9.4238 3.43449Z" fill="#0961F5"/>
    <path fill-rule="evenodd" clip-rule="evenodd" d="M14.1301 12.5973H15.3874C15.3874 9.31044 12.7119 6.63494 9.4238 6.63494V7.89223C12.0195 7.89223 14.1301 10.0029 14.1301 12.5973Z" fill="#0961F5"/>
</svg>
