<svg width="17" height="20" viewBox="0 0 17 20" fill="none" xmlns="http://www.w3.org/2000/svg">
    <mask id="mask0_0_237" style="mask-type:luminance" maskUnits="userSpaceOnUse" x="0" y="0" width="17" height="20">
        <path fill-rule="evenodd" clip-rule="evenodd" d="M0 0H16.2841V20H0V0Z" fill="white"/>
    </mask>
    <g mask="url(#mask0_0_237)">
        <path fill-rule="evenodd" clip-rule="evenodd" d="M13.6043 10.628C13.6163 9.06906 14.4322 7.63212 15.7642 6.81916C14.9242 5.61221 13.5693 4.87024 12.1043 4.81924C10.5414 4.65925 9.10447 5.72921 8.27251 5.72921C7.44454 5.72921 6.27259 4.83924 4.97165 4.85824C3.24572 4.91724 1.67479 5.8782 0.834827 7.39013C-0.926098 10.448 0.381846 14.9988 2.14377 17.4677C2.94474 18.6787 3.94469 20.0496 5.26464 19.9986C6.58458 19.9476 7.01456 19.1786 8.5425 19.1786C10.0734 19.1786 10.5414 19.9986 11.8424 19.9676C13.1433 19.9406 14.0653 18.7296 14.9052 17.5187C15.4992 16.6397 15.9632 15.6788 16.2842 14.6708C14.6632 13.9799 13.6083 12.3899 13.6043 10.628ZM11.0844 3.19031C11.8464 2.30835 12.2293 1.1594 12.1433 -0.000549293C10.9834 0.0934467 9.90544 0.640423 9.14347 1.51939C8.4055 2.37035 8.04552 3.4873 8.14351 4.60825C9.29246 4.62025 10.3774 4.09328 11.0844 3.19031Z" fill="#1D1D1B"/>
    </g>
</svg>
