<svg width="24" height="24" viewBox="0 0 24 24" fill="none" xmlns="http://www.w3.org/2000/svg">
    <mask id="mask0_0_207" style="mask-type:luminance" maskUnits="userSpaceOnUse" x="0" y="0" width="24" height="24">
        <path fill-rule="evenodd" clip-rule="evenodd" d="M0 0H23.9999V24H0V0Z" fill="white"/>
    </mask>
    <g mask="url(#mask0_0_207)">
        <path fill-rule="evenodd" clip-rule="evenodd" d="M24 12.0001C24 18.6292 18.6289 24.0002 11.9999 24.0002C5.3718 24.0002 -0.000244143 18.6292 -0.000244143 12.0001C-0.000244143 5.37105 5.3718 0 11.9999 0C18.6289 0 24 5.37105 24 12.0001Z" fill="#50B748"/>
    </g>
    <path fill-rule="evenodd" clip-rule="evenodd" d="M14.5232 23.7189C14.7532 23.6719 14.9842 23.6209 15.2102 23.5619C15.5982 23.4569 15.9772 23.3279 16.3482 23.1839C16.7232 23.0389 17.0862 22.8749 17.4412 22.6949C17.8013 22.5119 18.1483 22.3119 18.4843 22.0979C18.8203 21.8829 19.1453 21.6479 19.4603 21.3979C19.7733 21.1519 20.0743 20.8869 20.3593 20.6049C20.6483 20.3279 20.9213 20.0349 21.1803 19.7299C21.4383 19.4259 21.6803 19.1049 21.9023 18.7729C22.1283 18.4448 22.3393 18.1048 22.5313 17.7538C22.7233 17.4018 22.8983 17.0428 23.0553 16.6758C23.2113 16.3048 23.3483 15.9298 23.4643 15.5468C23.5663 15.2108 23.6523 14.8748 23.7273 14.5308L16.5942 7.40175C15.3782 6.17974 13.7272 5.49573 12.0032 5.49573C10.2772 5.49173 8.62117 6.17974 7.40216 7.40175C6.18415 8.62076 5.49614 10.2728 5.49614 11.9998C5.49614 13.7228 6.18415 15.3788 7.40216 16.5978L14.5232 23.7149V23.7189Z" fill="#10A711"/>
    <path fill-rule="evenodd" clip-rule="evenodd" d="M14.9607 10.0001C14.8667 10.0081 14.7767 10.0431 14.6987 10.1021L11.0467 12.8441L9.35567 11.1481C8.98766 10.7701 8.26666 11.4881 8.64866 11.8551L10.6487 13.8551C10.8237 14.0271 11.0987 14.0471 11.3017 13.9021L15.3017 10.9021C15.6377 10.6601 15.4307 10.0081 15.0127 10.0001H14.9607ZM11.9997 5.49602C13.6637 5.49602 15.3237 6.13303 16.5987 7.40204C17.8157 8.62105 18.5037 10.2731 18.5037 12.0001C18.5037 13.7271 17.8157 15.3791 16.5987 16.5981C15.3787 17.8161 13.7277 18.5041 11.9997 18.5041C10.2737 18.5041 8.62066 17.8161 7.40165 16.5981C6.18364 15.3791 5.49663 13.7271 5.49663 12.0001C5.49663 10.2731 6.18364 8.62105 7.40165 7.40204C8.62066 6.18003 10.2767 5.49602 11.9997 5.49602Z" fill="white"/>
</svg>
