<svg width="14" height="14" viewBox="0 0 14 14" fill="none" xmlns="http://www.w3.org/2000/svg">
    <path d="M3.52785 11.2511L3.53055 11.2526C3.56266 11.271 3.59892 11.2809 3.63588 11.2813C3.6751 11.2808 3.71348 11.2698 3.74706 11.2495L3.74984 11.2478L10.5192 7.19533C10.5509 7.17447 10.5771 7.14622 10.5955 7.11297L3.52785 11.2511ZM3.52785 11.2511C3.44697 11.2053 3.37598 11.101 3.37598 10.9649V3.0352C3.37598 2.89843 3.44661 2.79504 3.52785 2.74901L3.52785 2.74902M3.52785 11.2511L3.52785 2.74902M3.52785 2.74902L3.5318 2.74675M3.52785 2.74902L3.5318 2.74675M3.5318 2.74675C3.5645 2.72796 3.60166 2.71829 3.63938 2.71877C3.6771 2.71924 3.714 2.72984 3.74622 2.74945L3.74621 2.74947M3.5318 2.74675L3.74621 2.74947M3.74621 2.74947L3.75097 2.75232M3.74621 2.74947L3.75097 2.75232M3.75097 2.75232L10.5192 6.80368M3.75097 2.75232L10.5192 6.80368M10.5192 6.80368C10.5509 6.82454 10.5771 6.85279 10.5955 6.88604C10.6147 6.92077 10.6248 6.95981 10.6248 6.9995C10.6248 7.03919 10.6147 7.07824 10.5955 7.11297L10.5192 6.80368Z" stroke="#6B7280" stroke-width="1.5"/>
</svg>
